<?xml version="1.0" encoding="UTF-8" standalone="no"?>
<!DOCTYPE svg PUBLIC "-//W3C//DTD SVG 1.1//EN" "http://www.w3.org/Graphics/SVG/1.1/DTD/svg11.dtd">
<svg width="100%" height="100%" viewBox="0 0 1254 1254" version="1.1" xmlns="http://www.w3.org/2000/svg" xmlns:xlink="http://www.w3.org/1999/xlink" xml:space="preserve" xmlns:serif="http://www.serif.com/" style="fill-rule:evenodd;clip-rule:evenodd;stroke-linejoin:round;stroke-miterlimit:2;">
    <g transform="matrix(1,0,0,1,-8205,0)">
        <rect id="globicono9" x="8205" y="0" width="1254" height="1254" style="fill:none;"/>
        <g id="globicono91" serif:id="globicono9">
            <g id="ChatGPT-Image-5-jun-2026--10_38_22.png" serif:id="ChatGPT Image 5 jun 2026, 10_38_22.png" transform="matrix(2.171344,0,0,2.171344,7720.271784,-132.878062)">
                <path d="M557.396,149.644C558.018,150.047 558.64,150.45 559.261,150.854C580.374,164.966 596.719,171.108 602.401,173.752L603.605,174.26C616.159,180.016 638.511,186.255 641.602,187.118L642.54,187.385C645.463,188.234 645.407,188.253 648.421,188.9C672.161,195.15 690.469,195.359 695.419,198.592C697.407,200.805 697.502,200.723 698.401,203.516C698.627,206.984 698.622,206.931 698.611,215.5C698.447,340.909 700.988,344.523 686.566,389.524L685.619,392.538C684.236,396.34 681.44,404.859 672.591,422.548C672.287,423.117 670.078,427.245 668.682,429.596C664.536,436.574 664.599,436.517 660.353,443.409C658.446,446.203 658.51,446.161 658.342,446.395C658.087,446.783 655.968,450.012 655.098,451.199C624.464,492.958 586.418,515.513 576.221,522.034C556.547,534.057 532.69,545.063 521.576,550.648C511.733,555.595 493.588,541.704 472.411,531.655C468.406,529.453 442.768,515.36 424.668,500.282C418.273,494.606 418.169,494.805 411.765,489.205C410.386,487.921 409.007,486.637 407.628,485.353C401.967,479.907 402.014,479.996 396.552,474.448C394.697,472.553 392.148,469.683 391.773,469.262C383.443,459.498 383.228,459.74 375.856,449.247L374.639,447.412C372.632,444.487 372.709,444.541 369.906,440.259C369.262,439.245 368.618,438.232 367.974,437.218C366.822,435.293 366.897,435.308 365.729,433.379C362.622,427.795 353.698,412.819 345.725,389.407C343.671,383.007 343.667,383.055 343.507,382.497C340.941,372.99 340.908,373.062 338.584,363.478C335.374,347.538 335.038,340.884 334.191,335.517C333.779,326.948 333.781,327.047 333.727,318.501C333.712,311.834 333.698,305.167 333.684,298.5L333.708,296.501C333.713,285.513 333.704,285.56 333.678,276.5L333.701,274.501C333.702,269.168 333.703,263.834 333.705,258.501C333.702,249.168 333.699,239.834 333.696,230.501L333.679,227.5L333.697,225.5C333.658,216.986 333.641,217.081 333.694,208.502L333.681,206.502C333.875,202.126 333.767,201.969 336.663,198.675C338.48,197.501 338.423,197.509 340.555,196.967C341.302,196.845 356.04,195.015 374.58,190.94C378.663,190.047 378.583,190.041 382.609,188.981C384.577,188.5 386.546,188.02 388.514,187.539C389.841,187.186 391.168,186.833 392.495,186.48C394.198,185.944 395.902,185.407 397.605,184.871C410.296,180.92 410.372,181.358 427.421,174.323C427.821,174.164 430.35,173.156 432.373,172.226C438.986,169.229 438.987,169.317 442.51,167.523C442.911,167.33 443.311,167.138 443.711,166.946C456.533,160.144 478.896,149.519 506.361,122.36C520.615,108.265 521.069,124.401 557.396,149.644ZM589.603,189.275C590.309,189.551 595.797,191.696 598.399,192.796L598.027,193.5C598.01,193.627 597.811,195.089 597.811,195.089C598.988,196.156 599.151,195.904 599.995,197.192C600.642,198.181 602.954,198.354 604.012,196.5C604.258,196.068 604.21,195.426 604.613,195.134C604.871,194.947 605.276,195.584 605.534,195.397C617.775,200.132 633.176,204.246 635.383,204.881C635.593,205.421 635.804,205.96 636.015,206.5C637.268,212.608 640.562,207.223 641.53,206.387C642.219,206.544 656.294,209.8 657.578,210.097C657.011,212.248 656.224,213.334 658.52,213.306C661.211,213.273 662.242,211.21 662.573,211.038C662.873,210.882 663.275,211.346 663.575,211.191C675.383,213.869 679.146,212.627 679.245,215.534C679.248,215.605 679.406,301.112 679.218,311.496C678.817,333.695 676.795,343.019 675.291,351.472C671.008,349.27 672.18,352.427 672.341,352.623C673.273,353.755 673.963,352.408 674.968,353.576C675.183,353.825 674.646,354.308 674.861,354.557L674.687,355.544C670.545,356.403 671.369,357.492 671.055,358.382C670.844,358.98 668.946,361.439 668.748,361.695C667.33,363.532 669.429,363.832 669.852,365.417C670.455,367.676 671.204,367.006 671.67,367.553C667.209,385.092 659.314,401.836 657.963,404.701C657.602,404.559 651.659,402.221 653.465,406.521C654.244,408.374 653.805,408.507 655.191,410.327C650.647,419.08 650.573,418.986 645.366,427.418C643.135,425.539 642.919,426.007 641.506,426.507C641.358,426.536 639.661,426.867 639.661,426.867C637.697,426.715 638.917,430.297 638.773,430.552C638.491,431.051 637.724,431.143 637.441,431.643C637.271,431.647 635.443,430.341 635.68,433.477C635.759,434.53 635.953,435.575 635.994,436.63C636.019,437.254 635.711,437.898 635.877,438.5C636.018,439.012 636.715,439.243 636.856,439.755C635.517,441.509 633.853,444.06 628.411,450.426C626.692,448.231 626.785,448.133 626.557,448.057C625.644,447.757 622.312,450.943 626.5,450.035L627.959,450.887C624.681,455.15 624.573,454.958 620.964,458.9C617.911,462.398 617.879,462.253 614.613,465.612C609.273,470.893 609.444,470.961 603.792,475.824C603.299,475.566 597.147,472.348 596.882,476.505C596.795,477.864 599.294,479.415 599.572,479.587C598.144,480.715 598.237,480.73 596.8,481.854C596.501,481.659 590.655,477.835 592.385,482.511C592.828,483.71 592.609,483.667 592.866,484.993C582.659,493.404 568.667,502.107 566.479,503.468C550.059,513.878 518.102,530.357 515.415,529.865C514.3,529.661 488.568,517.102 484.76,515.002C445.642,493.424 427.483,475.117 427.196,474.848C428.871,472.667 430.588,472.3 428.381,470.69C428.099,470.484 425.763,470.031 425.467,470.24C424.869,470.663 424.676,471.521 424.078,471.944C414.206,462.698 414.38,462.618 405.3,452.676C380.742,422.401 365.331,396.118 356.832,349.438C353.72,332.345 352.855,332.298 352.927,217.501C352.931,211.568 356.078,213.93 370.42,211.008C385.033,208.03 449.174,196.461 502.58,153.602C514.335,144.169 514.635,140.055 518.849,144.126C545.848,170.207 583.447,186.592 589.603,189.275ZM641.506,426.507C642.919,426.007 643.135,425.539 645.366,427.418C641.204,433.686 641.234,433.638 636.856,439.755C636.715,439.243 636.018,439.012 635.877,438.5C635.711,437.898 636.019,437.254 635.994,436.63C635.953,435.575 635.759,434.53 635.68,433.477C635.443,430.341 637.271,431.647 637.441,431.643C637.724,431.143 638.491,431.051 638.773,430.552C638.917,430.297 637.697,426.715 639.661,426.867C639.661,426.867 641.358,426.536 641.506,426.507ZM674.687,355.544C673.037,362.402 671.924,366.596 671.67,367.553C671.204,367.006 670.455,367.676 669.852,365.417C669.429,363.832 667.33,363.532 668.748,361.695C668.946,361.439 670.844,358.98 671.055,358.382C671.369,357.492 670.545,356.403 674.687,355.544ZM603.792,475.824C602.385,477.078 600.978,478.333 599.572,479.587C599.294,479.415 596.795,477.864 596.882,476.505C597.147,472.348 603.299,475.566 603.792,475.824ZM598.399,192.796C599.357,193.169 599.348,193.155 605.534,195.397C605.276,195.584 604.871,194.947 604.613,195.134C604.21,195.426 604.258,196.068 604.012,196.5C602.954,198.354 600.642,198.181 599.995,197.192C599.151,195.904 598.988,196.156 597.811,195.089C597.811,195.089 598.01,193.627 598.027,193.5L598.399,192.796ZM657.963,404.701C657.732,405.146 657.792,405.159 655.191,410.327C653.805,408.507 654.244,408.374 653.465,406.521C651.659,402.221 657.602,404.559 657.963,404.701ZM424.078,471.944C424.676,471.521 424.869,470.663 425.467,470.24C425.763,470.031 428.099,470.484 428.381,470.69C430.588,472.3 428.871,472.667 427.196,474.848C426.947,474.615 424.661,472.476 424.078,471.944ZM635.383,204.881C637.432,205.383 639.481,205.885 641.53,206.387C640.562,207.223 637.268,212.608 636.015,206.5C635.804,205.96 635.593,205.421 635.383,204.881ZM596.8,481.854C594.842,483.455 594.92,483.405 592.866,484.993C592.609,483.667 592.828,483.71 592.385,482.511C590.655,477.835 596.501,481.659 596.8,481.854ZM657.578,210.097C658.626,210.291 658.553,210.215 659.519,210.394C659.844,210.455 659.819,210.453 663.575,211.191C663.275,211.346 662.873,210.882 662.573,211.038C662.242,211.21 661.211,213.273 658.52,213.306C656.224,213.334 657.011,212.248 657.578,210.097ZM675.291,351.472L674.861,354.557C674.646,354.308 675.183,353.825 674.968,353.576C673.963,352.408 673.273,353.755 672.341,352.623C672.18,352.427 671.008,349.27 675.291,351.472ZM627.959,450.887L626.5,450.035C622.312,450.943 625.644,447.757 626.557,448.057C626.785,448.133 626.692,448.231 628.411,450.426L627.959,450.887Z" style="fill:rgb(24,24,24);fill-opacity:0.99;"/>
                <path d="M490.326,245.283C493.327,245.219 493.264,245.195 493.52,245.196C505.336,245.252 508.339,244.459 510.205,246.649C509.688,248.616 509.713,248.538 509.713,250.51L509.725,256.489C509.71,258.48 509.714,261.099 509.715,261.5C509.715,263.089 509.64,263.025 509.248,264.514C508.535,267.23 509.787,267.105 512.546,267.154C514.174,267.138 515.802,267.122 517.43,267.106C518.419,266.854 518.391,267.5 519.392,267.245C519.485,267.221 520.06,267.075 520.23,266.392C520.389,265.753 519.937,265.06 520.097,264.421C520.145,260.449 520.216,260.524 520.1,256.572C520.233,255.002 520.247,255.086 520.174,253.463L520.174,252.537C520.255,250.92 520.24,251.006 520.111,249.43C520.299,246.562 519.902,246.427 520.671,245.673C520.671,245.673 523.212,245.2 523.433,245.159C525.007,245.299 524.925,245.305 526.554,245.152C527.182,245.146 527.809,245.14 528.437,245.134C529.814,245.134 531.191,245.133 532.568,245.133C537.155,245.281 537.129,245.239 537.521,245.293C541.656,245.862 539.439,247.989 539.683,265.484C539.717,267.857 543.902,267.682 549.517,269.049C549.623,269.075 549.529,269.061 552.675,269.268C553.166,269.721 553.204,269.645 557.439,271.633C559.657,273.136 559.764,272.745 562.228,273.982C562.812,274.516 562.606,274.718 563.336,274.995C563.558,275.079 565.384,276.32 565.559,276.439C567.412,278.255 567.579,278.008 571.156,281.822C576.042,287.031 577.56,292.826 578.578,294.452C578.718,295.432 578.814,295.379 579.712,297.482C579.75,300.044 580.037,311.432 579.46,313.486C579.32,313.988 578.205,315.887 577.806,317.568C576.729,322.112 569.517,331.462 564.478,332.473C560.768,333.217 566.082,334.801 566.313,334.87C567.443,335.206 567.387,335.189 568.494,335.518C570.245,336.715 570.25,336.687 570.385,336.811C571.525,337.857 572.477,337.364 572.602,337.397C573.494,338.346 573.482,338.346 573.565,338.422C578.94,343.31 578.893,343.269 582.989,349.187C588.171,356.675 587.395,370.541 585.447,376.48C577.93,399.39 557.741,402.369 553.557,403.723C546.322,406.063 543.008,404.059 540.373,405.337C538.404,406.293 541.214,428.143 538.555,428.666C538.274,428.721 521.901,428.762 521.455,428.666C519.917,428.339 520.135,427.662 520.143,408.544C520.15,408.336 520.662,405.654 519.331,404.954C519.147,404.857 516.162,404.981 515.442,404.948C512.815,405.016 512.824,404.973 512.596,404.981C510.306,405.144 509.16,404.154 509.235,406.447C509.287,408.029 509.625,407.936 509.779,409.474C509.782,410.498 509.786,411.521 509.789,412.545C509.794,413.513 509.799,414.482 509.804,415.451C509.527,417.214 509.617,422.263 509.806,423.548C509.728,425.946 510.622,426.26 508.928,427.935C508.295,428.562 508.402,428.709 507.515,428.721C491.777,428.943 491.698,429.142 490.529,428.448C487.67,426.749 490.696,406.722 489.717,406.346C487.17,405.368 487.319,404.886 484.589,404.982C483.529,404.982 482.47,404.982 481.41,404.982C458.414,404.672 458.437,405.001 456.445,404.862C453.658,404.667 454.304,401.658 454.183,393.554C455.165,391.534 455.801,391.586 455.12,389.496C454.976,389.051 454.333,388.893 454.189,388.449L453.998,387.506C454.234,385.638 454.284,385.648 454.253,385.489C453.115,379.633 471.236,383.784 473.638,381.627C475.073,380.34 474.224,380.032 474.134,373.54C474.221,371.5 474.14,369.77 474.125,369.443C474.126,368.813 474.127,368.184 474.128,367.554C474.049,366.555 473.97,365.557 473.891,364.558L474.252,363.534C474.604,360.446 474.608,360.524 474.293,357.474C474.241,354.513 474.245,354.602 474.129,351.563C474.586,349.488 474.586,349.512 474.153,347.461L474.145,346.534C474.139,345.504 474.133,344.474 474.128,343.444C474.277,339.483 474.281,339.542 474.126,335.557C474.127,334.519 474.128,333.481 474.129,332.443C474.19,331 474.194,331.076 474.127,329.556C474.129,328.52 474.131,327.483 474.133,326.447C474.132,325.816 474.131,325.185 474.13,324.555C474.135,323.525 474.14,322.495 474.145,321.465L474.141,320.538C474.32,317.981 474.217,318.074 473.833,315.574L474.16,314.54C474.961,311.549 474.772,311.593 474.304,308.476L474.293,307.522C474.281,306.839 474.269,306.155 474.257,305.472C474.161,301.504 474.207,301.592 474.202,297.558C474.699,295.459 474.682,295.477 474.138,293.439C474.158,292.479 474.178,291.52 474.198,290.56C474.527,288.924 475.297,288.739 474.243,287.779C474.243,287.779 471.663,287.849 471.438,287.855C470.813,287.856 470.188,287.857 469.563,287.857C466.942,287.482 467.019,287.481 464.466,287.768L463.528,287.759C461.963,287.638 462.043,287.648 460.439,287.843L455.429,287.836C455.143,285.556 455.062,285.643 454.248,283.514C454.221,281.529 454.193,279.543 454.166,277.557C454.393,276.87 454.621,276.184 454.848,275.498C455.213,272.687 455.493,272.695 455.131,271.495C454.994,271.044 454.321,270.896 454.185,270.445L454.265,269.475C454.464,268.466 453.721,267.36 456.446,267.174C457.562,267.098 457.524,267.132 470.426,267.084C472.055,267.179 471.97,267.176 473.574,267.088C484.219,267.161 484.195,267.188 487.476,267.152C491.71,267.105 487.379,249.045 490.326,245.283ZM506.558,346.815C509.445,346.789 538.483,346.52 542.628,348.217C549.156,350.89 549.82,352.12 550.153,352.738C551.043,354.386 550.899,354.453 551.726,355.216C554.143,357.448 552.887,357.923 552.841,359.378C552.826,359.882 554.338,359.489 554.321,365.499C554.318,366.58 554.298,373.53 548.701,377.797C540.703,383.896 534.486,382.035 508.5,382.263C508.133,382.266 504.301,382.3 504,381.404C503.892,381.086 504.223,380.722 504.116,380.403C504.456,379.955 505.22,379.978 505.56,379.529C506.476,378.321 505.513,378.395 504.252,377.612C504.289,377.035 504.192,377.042 504.211,370.386C504.997,369.128 506.372,369.008 505.031,364.499C506.149,360.772 505.026,360.876 504.611,360.448C503.681,356.083 504.606,349.494 504.739,348.552C505.746,347.689 505.681,347.751 506.558,346.815ZM506.588,287.923C516.298,287.861 525.859,287.381 531.502,289.495C531.807,289.61 543.409,288.837 547.82,301.379C548.498,303.309 548.848,311.259 547.164,314.359C547.026,314.614 546.49,315.6 545.64,317.649C544.409,317.772 544.436,317.746 543.403,318.427C543.183,318.842 543.427,318.859 543.2,319.289C543.149,319.386 543.142,319.372 542.417,320.416C539.992,322.748 539.732,322.282 536.472,323.264C536.301,323.218 534.363,321.426 533.143,323.064C532.686,323.677 532.804,323.657 532.441,324.292C528.419,324.268 528.402,323.745 524.573,324.842C523.184,325.239 523.139,324.411 506.529,325.339C507.784,324.138 508.74,323.771 507.251,322.92C505.931,322.165 505.864,322.818 504.412,322.531L504.191,321.471C505.937,319.515 507.507,319.201 505.498,317.502C505.287,317.323 504.884,317.589 504.673,317.41C504.282,315.922 504.31,315.986 504.541,314.516C505.461,313.118 505.057,313.041 504.482,311.506C504.393,310.803 504.304,310.1 504.215,309.397C504.466,309.056 504.323,308.88 504.394,308.638C504.41,308.581 504.455,308.514 504.402,308.43C504.339,308.332 504.428,308.141 504.428,308.141C504.428,308.141 504.451,307.949 504.499,307.856C504.597,307.664 504.616,307.517 504.598,307.369C504.567,307.118 504.547,306.885 504.58,306.472C504.629,305.499 504.678,304.527 504.727,303.554C505.956,302.143 505.942,301.802 504.576,300.473C504.576,299.824 504.576,299.176 504.576,298.527C505.954,297.195 505.935,296.816 504.622,295.44C503.875,293.007 503.781,292.976 504.706,290.615C505.693,289.274 505.689,289.346 506.588,287.923ZM504.412,322.531C505.864,322.818 505.931,322.165 507.251,322.92C508.74,323.771 507.784,324.138 506.529,325.339C504.465,325.016 504.407,324.668 504.412,322.531ZM504.673,317.41C504.884,317.589 505.287,317.323 505.498,317.502C507.507,319.201 505.937,319.515 504.191,321.471C504.173,320.438 504.394,320.472 504.156,319.471C503.795,317.953 504.619,317.626 504.673,317.41ZM506.588,287.923C505.689,289.346 505.693,289.274 504.706,290.615C504.579,289.67 502.942,287.966 506.588,287.923Z" style="fill:rgb(254,184,0);fill-opacity:0.99;"/>
                <path d="M365.729,433.379C366.897,435.308 366.822,435.293 367.974,437.218C365.084,437.099 364.872,436.815 362.745,438.828C361.582,439.93 359.926,437.835 361.66,436.81C364.088,435.376 364.336,436.103 364.5,435.93C364.844,435.57 364.592,434.861 364.936,434.5L365.729,433.379Z" style="fill:rgb(33,32,31);fill-opacity:0.04;"/>
                <path d="M397.605,184.871C395.902,185.407 394.198,185.944 392.495,186.48C392.821,184.904 393.545,184.979 392.976,183.507C392.91,183.336 392.415,182.056 393.234,181.222C393.553,180.897 394.194,180.391 397.605,184.871Z" style="fill:rgb(29,30,26);fill-opacity:0.05;"/>
                <path d="M424.078,471.944C424.676,471.521 424.869,470.663 425.467,470.24C425.763,470.031 428.099,470.484 428.381,470.69C430.588,472.3 428.871,472.667 427.196,474.848C426.947,474.615 424.661,472.476 424.078,471.944Z" style="fill:rgb(40,37,29);fill-opacity:0.04;"/>
                <path d="M695.419,198.592L695.983,197.5C696.226,197.514 696.257,196.97 696.5,196.983C698.996,197.123 699.629,200.072 699.709,200.441C699.998,201.79 699.933,201.745 699.5,203.001L698.401,203.516C697.502,200.723 697.407,200.805 695.419,198.592Z" style="fill:rgb(36,37,36);fill-opacity:0.04;"/>
                <path d="M635.383,204.881C637.432,205.383 639.481,205.885 641.53,206.387C640.562,207.223 637.268,212.608 636.015,206.5C635.804,205.96 635.593,205.421 635.383,204.881Z" style="fill:rgb(35,32,27);fill-opacity:0.09;"/>
                <path d="M596.8,481.854C594.842,483.455 594.92,483.405 592.866,484.993C592.609,483.667 592.828,483.71 592.385,482.511C590.655,477.835 596.501,481.659 596.8,481.854Z" style="fill:rgb(23,21,17);fill-opacity:0.07;"/>
                <path d="M657.578,210.097C658.626,210.291 658.553,210.215 659.519,210.394C659.844,210.455 659.819,210.453 663.575,211.191C663.275,211.346 662.873,210.882 662.573,211.038C662.242,211.21 661.211,213.273 658.52,213.306C656.224,213.334 657.011,212.248 657.578,210.097Z" style="fill:rgb(26,25,22);fill-opacity:0.08;"/>
                <path d="M515.442,404.948C516.162,404.981 519.147,404.857 519.331,404.954C520.662,405.654 520.15,408.336 520.143,408.544C517.072,407.669 516.632,407.902 515.442,404.948Z" style="fill:rgb(98,73,0);fill-opacity:0.05;"/>
                <path d="M474.293,357.474C474.608,360.524 474.604,360.446 474.252,363.534C472.084,362.31 472.152,362.032 472.245,359.514C472.296,358.109 473.614,357.864 474.293,357.474Z" style="fill:rgb(237,175,2);fill-opacity:0.04;"/>
                <path d="M474.304,308.476C474.772,311.593 474.961,311.549 474.16,314.54C471.803,311.964 470.312,310.704 474.304,308.476Z" style="fill:rgb(241,177,0);fill-opacity:0.06;"/>
                <path d="M557.396,149.644C557.668,149.137 558.991,149.705 558.541,147.506C558.115,145.425 560.285,143.918 560.484,146.502C560.535,147.157 560.438,147.825 560.548,148.472C560.98,151.006 559.536,150.346 559.261,150.854C558.64,150.45 558.018,150.047 557.396,149.644Z" style="fill:rgb(31,30,28);fill-opacity:0.05;"/>
                <path d="M642.54,187.385L643.981,186.5C647.017,185.761 647.791,185.804 648.421,188.9C645.407,188.253 645.463,188.234 642.54,187.385Z" style="fill:rgb(30,29,28);fill-opacity:0.07;"/>
                <path d="M509.715,261.5C509.945,261.951 512.143,266.259 512.546,267.154C509.787,267.105 508.535,267.23 509.248,264.514C509.64,263.025 509.715,263.089 509.715,261.5Z" style="fill:rgb(225,164,0);fill-opacity:0.08;"/>
                <path d="M464.466,287.768C467.019,287.481 466.942,287.482 469.563,287.857C467.642,290.79 466.403,290.756 464.466,287.768Z" style="fill:rgb(231,169,2);fill-opacity:0.06;"/>
                <path d="M686.566,389.524L687.5,390.981C688.349,392.243 688.828,392.083 688.645,393.57C688.472,394.968 686.325,393.152 685.619,392.538L686.566,389.524Z" style="fill:rgb(28,26,25);fill-opacity:0.06;"/>
                <path d="M333.708,296.501L333.684,298.5C330.801,299.952 330.848,300.04 330.571,300.068C330.193,300.107 328.004,297.981 333.708,296.501Z" style="fill:rgb(28,29,27);fill-opacity:0.04;"/>
                <path d="M333.697,225.5L333.679,227.5C331.004,228.169 329.554,231.14 329.916,228.441C330.098,227.083 330.221,227.094 331.488,226.492C332.614,225.958 332.564,226.009 333.697,225.5Z" style="fill:rgb(27,27,26);fill-opacity:0.05;"/>
                <path d="M509.804,415.451C510.559,416.412 510.885,416.266 510.817,417.496C510.532,422.605 510.106,423.159 509.806,423.548C509.617,422.263 509.527,417.214 509.804,415.451Z" style="fill:rgb(206,146,0);fill-opacity:0.1;"/>
                <path d="M333.701,274.501L333.678,276.5C330.805,277.943 330.854,278.096 330.579,278.057C328.381,277.745 333.378,274.698 333.701,274.501Z" style="fill:rgb(25,25,24);fill-opacity:0.06;"/>
                <path d="M443.711,166.946C443.311,167.138 442.911,167.33 442.51,167.523C442.303,167.338 438.022,163.527 441.586,164.182C442.623,164.372 442.352,164.724 443.711,166.946Z" style="fill:rgb(32,33,32);fill-opacity:0.05;"/>
                <path d="M512.596,404.981C511.381,407.093 510.44,408.158 510.219,408.407L509.779,409.474C509.625,407.936 509.287,408.029 509.235,406.447C509.16,404.154 510.306,405.144 512.596,404.981Z" style="fill:rgb(230,170,0);fill-opacity:0.08;"/>
                <path d="M675.291,351.472L674.861,354.557C674.646,354.308 675.183,353.825 674.968,353.576C673.963,352.408 673.273,353.755 672.341,352.623C672.18,352.427 671.008,349.27 675.291,351.472Z" style="fill:rgb(36,32,26);fill-opacity:0.09;"/>
                <path d="M454.189,388.449C454.333,388.893 454.976,389.051 455.12,389.496C455.801,391.586 455.165,391.534 454.183,393.554C453.835,392.882 453.488,392.21 453.14,391.538L453.141,390.461C453.49,389.79 453.839,389.12 454.189,388.449Z" style="fill:rgb(242,175,7);fill-opacity:0.07;"/>
                <path d="M471.438,287.855C471.663,287.849 474.243,287.779 474.243,287.779C475.297,288.739 474.527,288.924 474.198,290.56C472.487,289.577 472.508,289.558 471.438,287.855Z" style="fill:rgb(235,171,0);fill-opacity:0.06;"/>
                <path d="M528.437,245.134C530.112,242.902 530.908,242.95 532.568,245.133C531.191,245.133 529.814,245.134 528.437,245.134Z" style="fill:rgb(216,161,9);fill-opacity:0.08;"/>
                <path d="M474.138,293.439C474.682,295.477 474.699,295.459 474.202,297.558C471.854,296.18 472.202,295.378 474.138,293.439Z" style="fill:rgb(225,166,0);fill-opacity:0.06;"/>
                <path d="M562.228,273.982L563.932,273.5C564.196,273.545 564.236,272.887 564.5,272.932C564.789,272.981 565.036,273.023 565.559,276.439C565.384,276.32 563.558,275.079 563.336,274.995C562.606,274.718 562.812,274.516 562.228,273.982Z" style="fill:rgb(135,99,4);fill-opacity:0.05;"/>
                <path d="M568.494,335.518C572.655,335.031 572.21,336.745 572.602,337.397C572.477,337.364 571.525,337.857 570.385,336.811C570.25,336.687 570.245,336.715 568.494,335.518Z" style="fill:rgb(208,152,5);fill-opacity:0.04;"/>
                <path d="M520.097,264.421C519.937,265.06 520.389,265.753 520.23,266.392C520.06,267.075 519.485,267.221 519.392,267.245C518.391,267.5 518.419,266.854 517.43,267.106C518.544,265.523 518.53,265.569 520.097,264.421Z" style="fill:rgb(227,166,2);fill-opacity:0.09;"/>
                <path d="M505.031,364.499C506.372,369.008 504.997,369.128 504.211,370.386C504.629,367.426 504.205,367.414 505.031,364.499Z" style="fill:rgb(207,160,0);fill-opacity:0.09;"/>
                <path d="M474.153,347.461C474.586,349.512 474.586,349.488 474.129,351.563C472.843,350.156 471.846,349.668 474.153,347.461Z" style="fill:rgb(224,165,0);fill-opacity:0.09;"/>
                <path d="M506.588,287.923C505.689,289.346 505.693,289.274 504.706,290.615C504.579,289.67 502.942,287.966 506.588,287.923Z" style="fill:rgb(234,180,0);fill-opacity:0.05;"/>
                <path d="M490.326,245.283C491.114,243.537 491.288,243.475 491.452,243.416C493.035,242.849 492.756,243.708 493.52,245.196C493.264,245.195 493.327,245.219 490.326,245.283Z" style="fill:rgb(209,155,12);fill-opacity:0.08;"/>
                <path d="M481.41,404.982C482.47,404.982 483.529,404.982 484.589,404.982C483.551,407.169 482.449,407.171 481.41,404.982Z" style="fill:rgb(215,158,3);fill-opacity:0.1;"/>
                <path d="M473.833,315.574C474.217,318.074 474.32,317.981 474.141,320.538C473.013,318.17 472.976,318.081 473.833,315.574Z" style="fill:rgb(218,159,0);fill-opacity:0.13;"/>
                <path d="M454.185,270.445C454.321,270.896 454.994,271.044 455.131,271.495C455.493,272.695 455.213,272.687 454.848,275.498C454.189,272.977 454.461,272.993 454.185,270.445Z" style="fill:rgb(234,168,5);fill-opacity:0.26;"/>
                <path d="M460.439,287.843C462.043,287.648 461.963,287.638 463.528,287.759C462.444,288.343 462.096,290.076 460.439,287.843Z" style="fill:rgb(232,167,4);fill-opacity:0.13;"/>
                <path d="M504.252,377.612C505.513,378.395 506.476,378.321 505.56,379.529C505.22,379.978 504.456,379.955 504.116,380.403C504.161,379.473 504.206,378.542 504.252,377.612Z" style="fill:rgb(250,191,0);fill-opacity:0.04;"/>
                <path d="M523.622,244.711C525.017,244.394 524.992,244.385 526.371,244.744L526.554,245.152C524.925,245.305 525.007,245.299 523.433,245.159L523.622,244.711Z" style="fill:rgb(210,156,8);fill-opacity:0.18;"/>
                <path d="M549.517,269.049C549.678,268.981 551.532,268.204 551.532,268.204C551.657,268.211 551.617,268.283 552.675,269.268C549.529,269.061 549.623,269.075 549.517,269.049Z" style="fill:rgb(235,172,5);fill-opacity:0.09;"/>
                <path d="M509.725,256.489C510.415,259.024 510.403,259.016 509.715,261.5C509.714,261.099 509.71,258.48 509.725,256.489Z" style="fill:rgb(193,131,0);fill-opacity:0.16;"/>
                <path d="M520.174,253.463C520.247,255.086 520.233,255.002 520.1,256.572L519.685,256.393C519.397,254.82 519.532,254.887 520.174,253.463Z" style="fill:rgb(230,166,0);fill-opacity:0.22;"/>
                <path d="M519.69,249.61L520.111,249.43C520.24,251.006 520.255,250.92 520.174,252.537C519.542,251.125 519.417,251.168 519.69,249.61Z" style="fill:rgb(230,167,2);fill-opacity:0.22;"/>
                <path d="M474.125,369.443C474.14,369.77 474.221,371.5 474.134,373.54C473.253,371.547 473.241,371.478 474.125,369.443Z" style="fill:rgb(212,153,0);fill-opacity:0.14;"/>
                <path d="M510.219,408.407C510.564,410.609 511.109,410.738 509.789,412.545C509.786,411.521 509.782,410.498 509.779,409.474L510.219,408.407Z" style="fill:rgb(185,129,0);fill-opacity:0.13;"/>
                <path d="M543.403,318.427L544.288,318.226C543.834,318.999 544.511,319.421 543.165,320.138C542.785,320.341 542.81,320.207 542.417,320.416C543.142,319.372 543.149,319.386 543.2,319.289C543.427,318.859 543.183,318.842 543.403,318.427Z" style="fill:rgb(216,158,0);fill-opacity:0.13;"/>
                <path d="M470.616,266.709C472.041,266.492 471.961,266.49 473.384,266.71L473.574,267.088C471.97,267.176 472.055,267.179 470.426,267.084L470.616,266.709Z" style="fill:rgb(213,153,3);fill-opacity:0.28;"/>
                <path d="M510.205,246.649C510.556,248.621 510.249,248.557 509.713,250.51C509.713,248.538 509.688,248.616 510.205,246.649Z" style="fill:rgb(206,143,1);fill-opacity:0.13;"/>
                <path d="M519.69,249.61C519.417,251.168 519.542,251.125 520.174,252.537C519.607,251.874 516.432,251.641 519.69,249.61Z" style="fill:rgb(177,130,3);fill-opacity:0.05;"/>
                <path d="M520.174,253.463C519.532,254.887 519.397,254.82 519.685,256.393C516.388,254.352 519.617,254.113 520.174,253.463Z" style="fill:rgb(177,130,0);fill-opacity:0.05;"/>
                <path d="M578.578,294.452C579.681,295.717 579.522,295.759 579.712,297.482C578.814,295.379 578.718,295.432 578.578,294.452Z" style="fill:rgb(189,139,6);fill-opacity:0.11;"/>
                <path d="M536.472,323.264C534.994,324.089 535.082,324.114 533.485,324.458C534.909,323.585 534.865,323.628 536.472,323.264Z" style="fill:rgb(231,171,0);fill-opacity:0.33;"/>
                <path d="M504.482,311.506C505.057,313.041 505.461,313.118 504.541,314.516C504.549,314.385 504.545,314.39 504.482,311.506Z" style="fill:rgb(202,153,0);fill-opacity:0.15;"/>
                <path d="M474.145,321.465C474.14,322.495 474.135,323.525 474.13,324.555C473.642,322.986 473.645,323.018 474.145,321.465Z" style="fill:rgb(214,154,0);fill-opacity:0.16;"/>
                <path d="M474.133,326.447C474.131,327.483 474.129,328.52 474.127,329.556C473.64,327.98 473.644,328.011 474.133,326.447Z" style="fill:rgb(213,153,0);fill-opacity:0.16;"/>
                <path d="M474.128,343.444C474.133,344.474 474.139,345.504 474.145,346.534C473.648,344.973 473.649,345.005 474.128,343.444Z" style="fill:rgb(213,154,0);fill-opacity:0.16;"/>
                <path d="M474.129,332.443C474.128,333.481 474.127,334.519 474.126,335.557C473.64,333.969 473.649,334 474.129,332.443Z" style="fill:rgb(212,153,0);fill-opacity:0.16;"/>
                <path d="M473.891,364.558C473.97,365.557 474.049,366.555 474.128,367.554C473.679,366.079 473.574,366.105 473.891,364.558Z" style="fill:rgb(216,155,0);fill-opacity:0.15;"/>
                <path d="M545.64,317.649C545.189,317.841 544.739,318.033 544.288,318.226L543.403,318.427C544.436,317.746 544.409,317.772 545.64,317.649Z" style="fill:rgb(193,139,0);fill-opacity:0.08;"/>
                <path d="M474.257,305.472C474.269,306.155 474.281,306.839 474.293,307.522C473.678,306.604 474.048,306.593 474.257,305.472Z" style="fill:rgb(225,163,0);fill-opacity:0.2;"/>
            </g>
        </g>
    </g>
</svg>
