<?xml version="1.0" encoding="UTF-8" standalone="no"?>
<!DOCTYPE svg PUBLIC "-//W3C//DTD SVG 1.1//EN" "http://www.w3.org/Graphics/SVG/1.1/DTD/svg11.dtd">
<svg width="100%" height="100%" viewBox="0 0 1254 1254" version="1.1" xmlns="http://www.w3.org/2000/svg" xmlns:xlink="http://www.w3.org/1999/xlink" xml:space="preserve" xmlns:serif="http://www.serif.com/" style="fill-rule:evenodd;clip-rule:evenodd;stroke-linejoin:round;stroke-miterlimit:2;">
    <g transform="matrix(1,0,0,1,-10813,0)">
        <rect id="globicono11" x="10813" y="0" width="1254" height="1254" style="fill:none;"/>
        <g id="globicono111" serif:id="globicono11">
            <g id="ChatGPT-Image-5-jun-2026--10_44_14.png" serif:id="ChatGPT Image 5 jun 2026, 10_44_14.png" transform="matrix(2.085063,0,0,2.085063,10371.742898,-128.341589)">
                <path d="M446.56,168.996C472.032,164.89 491.84,174.843 501.018,188.886C506.321,197.001 503.44,177.943 533.576,169.933C547.186,167.584 549.837,168.189 556.535,169.05C559.016,169.314 558.95,169.341 561.45,169.825C566.194,170.839 566.072,171.007 569.615,172.12C600.537,183.715 602.863,208.574 604.679,210.278C607.873,213.277 610.344,207.882 632.168,221L633.303,221.797C633.329,221.818 638.645,225.31 645.346,232.637C647.138,234.55 647.129,234.535 647.281,234.703C648.238,235.765 648.127,235.778 649.076,236.831C657.939,249.03 659.263,253.573 662.082,260.625L663.229,264.594C668.583,283.325 665.094,293.872 663.821,300.584C662.105,305.376 660.602,306.249 664.54,309.453C665.766,310.564 666.993,311.676 668.219,312.787C669.582,314.223 675.707,319.949 681.421,331.539C682.058,332.622 682.066,332.609 682.109,332.709C692.685,357.473 686.805,376.228 683.801,384.62C683.604,385.137 681.624,390.347 680.652,390.772C679.819,391.138 679.537,391.261 669.526,388.428C667.926,387.897 666.231,387.684 664.63,387.153C658.093,384.983 677.355,374.294 664.751,340.397C663.394,337.257 663.363,337.346 661.739,334.362C660.98,333.192 659.958,331.541 659.805,331.294C657.359,328.183 657.55,328.144 654.952,325.098C652.415,322.666 651.53,319.125 647.116,323.081C640.292,328.55 638.156,329.82 635.368,331.273C633.379,332.278 631.391,333.283 629.402,334.287C617.698,338.547 617.675,338.312 605.52,340.713C601.153,341.339 601.883,342.711 601.869,346.486C602.478,369.877 598.984,381.301 572.5,384.495C571.166,384.538 569.833,384.58 568.5,384.623C567.838,384.668 567.173,384.515 566.511,384.56C564.47,384.7 565.987,387.181 567.576,398.484C567.897,401.427 568.458,401.983 567.474,407.49C566.37,409.756 566.487,409.853 564.369,411.168C561.428,411.596 561.39,411.472 558.8,410.009C557.748,409.209 555.888,407.556 555.641,407.336C555.042,406.736 551.147,402.832 548.659,399.378C545.566,394.871 545.624,394.938 542.598,390.432C539.86,386.606 540.017,386.553 536.861,383.133C534.981,381.377 534.971,381.466 532.818,380.031C531.31,378.981 531.296,379.104 529.624,378.237C529.377,378.109 529.553,377.77 521.596,375.164C518.017,374.617 518.116,374.371 514.494,374.412C511.485,374.447 512.218,379.244 512.213,381.499C511.987,488.326 512.106,492.84 512.362,502.518C513.622,507.109 513.32,507.198 515.698,511.366C518.544,515.611 524.341,520.253 525.182,520.926C526.303,521.847 526.257,521.797 527.415,522.63L529.268,523.861C529.52,524.005 531.228,524.976 532.378,525.722C537.01,527.561 536.981,527.593 537.384,527.749L539.495,528.516C545.179,531.288 551.529,534.008 551.985,541.536C551.7,542.414 551.416,543.291 551.131,544.168C544.967,547.259 541.07,546.183 533.426,544.727C528.925,543.19 528.951,543.255 524.637,541.17C515.996,535.712 513.995,534.729 505.954,525.115C504.116,522.207 502.497,526.012 500.062,529.105C499.747,529.452 499.431,529.799 499.116,530.146C499.101,530.162 496.364,532.95 496.162,533.137C475.152,552.519 446.922,545.032 441.514,543.444C438.484,542.418 438.532,542.514 435.602,541.255C427.926,537.26 418.74,533.324 407.982,516.227L405.891,512.327C402.387,503.412 403.372,502.481 401.584,502.159C396.079,501.169 396.068,501.868 390.558,501.211C388.225,500.573 385.892,499.936 383.559,499.298C382.587,498.932 381.615,498.565 380.642,498.199C379.67,497.806 378.697,497.414 377.724,497.021C368.05,492.099 365.474,489.54 365.471,489.537C359.97,485.302 356.539,481.079 355.739,480.288C355.097,479.558 351.964,475.993 348.719,470.368C346.903,467.021 346.96,467.052 345.32,463.579L344.772,462.379C342.765,457.321 341.816,455.298 340.808,449.458C336.829,430.048 340.698,419.565 341.402,416.471C342.476,413.08 342.997,413.124 342.479,411.509C342.479,411.509 338.862,407.778 338.548,407.454C334.499,402.943 334.394,403.112 330.929,398.215C330.269,397.213 329.609,396.211 328.949,395.209C327.039,391.947 327.118,391.985 325.293,388.614C322.473,382.2 322.513,382.235 320.309,375.542C319.104,370.036 319.206,370.085 318.262,364.515C318.183,355.048 318.306,355.121 318.331,351.483C319.929,342.536 320.613,335.828 328.964,321.807C330.497,319.552 333.183,316.042 333.56,315.549C334.415,314.48 336.819,311.012 342.414,306.395C345.496,303.852 345.017,303.257 343.605,299.464L342.953,297.381L342.741,296.432C342.083,293.597 341.453,293.721 340.988,284.468L340.911,280.511C341.31,270.441 341.714,270.485 341.844,269.563C342.191,267.901 342.538,266.239 342.885,264.577C344.126,259.973 344.116,260.052 345.579,255.53L346.413,253.462L347.608,250.547C357.114,231.809 363.353,227.519 373.72,219.848C374.732,219.208 375.743,218.569 376.755,217.929C386.196,212.746 388.271,212.572 396.575,210.792C401.301,209.78 397.58,206.512 405.905,193.773C406.897,192.454 407.889,191.136 408.881,189.817C409.833,188.789 410.785,187.76 411.737,186.732C414.091,184.478 413.936,184.422 416.439,182.418C416.789,182.141 418.638,180.676 420.84,178.993C422.294,178.109 422.259,178.146 427.74,174.955C432.099,173.075 431.976,172.973 436.464,171.398C439.037,170.556 438.956,170.613 441.575,169.912C443.236,169.607 444.898,169.302 446.56,168.996ZM462.517,185.072C462.669,185.311 463.39,188.607 467.321,189.827C467.871,189.998 467.836,189.202 474.516,190.054C475.671,190.202 475.602,189.99 477.603,189.322C481.407,192.068 481.437,191.92 484.841,195.17C488.588,199.154 490.682,202.67 492.614,210.472C494.345,217.464 493.309,217.572 493.241,300.499C493.077,501.271 494,501.425 492.251,507.407C491.418,509.511 486.025,523.128 471.543,526.668C453.644,531.043 443.477,523.682 439.49,521.514C441.712,519.311 441.509,519.039 441.293,518.907C439.68,517.926 439.662,518.809 437.248,519.844C429.016,512.823 427.943,512.502 422.009,499.728C424.366,498.326 425.173,498.239 425.474,498.207C428.34,497.898 426.616,496.61 425.252,494.146C441.401,482.404 437.984,476.686 433.168,471.915C426.461,468.214 424.767,469.502 420.622,472.629C416.806,476.436 417.077,476.645 412.622,479.702C412.113,478.885 411.402,479.301 411.319,477.611C411.203,475.235 408.379,475.458 409.228,477.629C409.907,479.368 409.906,479.366 409.363,481.055C401.478,483.12 401.364,482.817 393.414,480.984C393.405,480.445 394.06,480.038 394.051,479.5C394.028,478.091 392.592,479.056 392.321,477.67C391.803,475.012 390.85,477.263 390.511,477.527C388.921,478.768 387.512,476.495 386.5,476.994C386.084,477.2 385.754,477.553 385.338,477.758C384.298,477.013 384.308,477.013 384.215,476.954C368.327,466.857 358.053,446.408 362.468,424.489C369.534,427.492 366.551,420.899 366.171,420.79C365.945,420.726 365.688,421.138 365.5,420.999C364.967,420.605 364.836,419.804 364.303,419.41C364.779,418.629 366.195,416.301 371.382,410.428C372.516,410.821 372.756,411.505 373.4,410.429C375.304,407.249 374.749,406.57 371.5,404.861L370.427,405.627C359.949,399.931 357.492,397.232 357.131,396.945C357.081,395.261 357.473,395.077 356.168,393.928C353.596,391.662 356.646,388.865 353.552,388.862C351.726,388.86 351.871,389.323 350.151,389.795C345.297,383.434 345.498,383.372 342.376,376.553C342.615,376.084 341.787,376.198 342.049,375.684C342.494,374.81 342.881,375.261 343.423,374.495C343.62,374.217 343.514,374.19 343.282,372.565C343.09,371.224 346.78,365.819 339.786,368.428C337.987,359.628 338.431,357.283 339.395,348.476C340.088,346.148 340.781,343.819 341.474,341.49C343.725,343.745 343.996,343.547 344.142,343.332C344.802,342.362 344.214,342.378 342.342,339.43C346.3,330.934 347.19,329.464 354.136,322.128C357.568,324.888 357.666,325.676 358.43,324.875C359.1,324.171 359.054,322.966 359.725,322.262L361.796,324.142C361.808,324.545 360.378,325.08 361.879,327.042C362.867,328.332 364.098,331.706 365.24,329.071C365.304,328.923 365.278,328.927 365.763,327.131C366.384,327.553 370.351,330.25 373.686,332.155C373.443,332.703 372.737,332.955 372.495,333.503C372.397,333.726 373.169,336.374 375.468,335.957C377.015,335.677 376.993,336.81 378.5,336.147C378.976,335.937 379.189,335.317 379.665,335.108C389.169,339.488 393.389,339.385 404.68,343.052C404.573,343.337 403.322,343.555 403.983,347.502C404.587,351.109 405.54,351.186 403.99,354.5L404.01,355.5L405.659,356.508C405.668,364.674 405.645,364.621 407.476,372.509C408.233,374.214 408.748,376.393 412.868,380.04C411.766,382.137 410.21,382.678 412.332,383.726C414.308,384.703 413.851,383.263 414.672,381.24C416.505,382.092 422.617,386.135 432.439,384.147C435.033,383.828 434.971,383.952 437.548,384.109C443.733,384.483 444.411,390.678 450.227,386.248C450.979,386.265 450.701,386.84 451.5,386.858C451.577,386.86 452.052,386.87 452.277,386.294C452.392,385.999 451.962,385.659 452.081,385.366C452.244,384.962 452.866,384.865 453.019,384.458C453.265,383.805 452.963,378.976 452.933,378.5L451.882,377.508C451.564,373.761 451.913,373.5 449.272,370.89C449.145,370.365 450.23,370.025 450.103,369.5C450.055,369.303 449.933,369.414 448.302,367.71C445.379,364.653 446.345,369.731 446.389,369.963C431.456,366.002 423.172,367.091 423.047,355.486C423.418,354.765 423.709,355.078 424.05,354.415C424.129,354.262 423.985,354.275 423.147,352.464C423.899,348.86 423.971,347.882 424.001,347.479C424.869,335.685 427.678,335.372 425.185,331.711C422.662,328.007 417.928,328.033 417.435,327.924C407.818,325.595 374.291,322.878 362.285,295.565C362.671,295.06 361.709,295.06 362.058,294.604C362.134,294.504 362.281,294.312 363.5,293.977C363.699,293.922 363.923,294.109 364.117,294.038C364.341,293.956 366.011,290.961 361.569,292.485C361.054,289.248 360.447,286.082 360.341,285.527C359.498,281.125 361.239,264.01 368.001,253.199C368.934,251.582 375.305,239.053 387.675,231.768L388.5,232.166C388.932,232.156 389.068,233.001 389.5,232.991C389.925,232.982 390.033,232.262 390.435,232.122C390.751,232.012 393.018,232.957 393.518,232.523C394.516,231.655 393.281,231.101 394.186,230.22C394.902,229.522 395.413,230.063 396.597,227.942C399.726,227.662 399.703,228.477 400.597,231.464C397.525,233.673 397.039,234.77 399.998,237.115C401.972,238.679 402.24,237.316 402.78,237.365C404.158,240.451 404.2,240.345 405.924,243.211C405.424,243.763 404.591,243.936 404.091,244.488C403.963,244.629 403.361,247.624 404.478,247.542C405.725,247.45 405.745,247.362 406.752,248.138C407.2,248.483 407.532,248.328 407.595,248.299C408.399,247.926 408.02,247.548 408.893,247.142C414.591,253.272 415.909,253.492 420.592,255.082C420.782,255.444 419.504,256.523 422.567,257.425C422.882,259.397 423.154,259.691 423.291,259.838C424.551,261.199 424.487,259.787 425.296,258.093L425.567,257.792C427.497,257.155 427.397,257.007 428.43,255.226C429.492,254.778 441.74,249.621 430.893,241.031C414.028,227.675 412.563,209.267 428.132,195.043C429.777,193.717 429.691,193.733 431.489,192.483C431.757,192.692 434.991,195.211 435.594,193.574C435.774,193.086 435.731,192.499 436.036,192.079C436.274,191.752 436.875,191.835 437.101,191.5C437.288,191.224 436.915,190.776 437.101,190.5L437.353,189.174C447.423,185.03 449.937,184.941 462.517,185.072ZM550.519,185.069C551.361,187.145 551.339,187.335 553.462,187.821C555.506,188.288 554.662,189.142 554.814,189.148C555.131,189.16 555.182,188.474 555.5,188.486C555.84,188.508 556.18,188.531 556.521,188.553C558.368,188.354 558.71,187.54 559.804,189.057C561.508,191.419 562.321,190.111 563.516,187.462C564.897,188.019 566.279,188.576 567.66,189.133C567.511,189.86 566.399,189.617 566.981,192.436C567.339,194.172 567.895,193.699 569.581,194.311C573.214,195.631 572.864,193.814 573.844,193.063C581.504,199.118 580.862,199.725 584.648,205.421C584.423,205.553 581.606,206.348 581.845,209.464C582.002,211.511 583.608,211.848 583.98,209.777C584.055,209.358 583.764,208.849 584.009,208.5C584.375,207.978 585.244,207.974 585.61,207.452C587.072,211.492 587.194,211.406 588.003,216.532C589.671,227.097 570.622,236.425 570.72,249.47C570.574,249.74 571.034,250.106 570.888,250.377C570.626,250.864 569.954,251.017 569.642,251.474C569.463,251.735 568.896,252.563 570.957,255.202C571.035,255.302 571.668,256.113 572.484,255.627C573.019,255.308 573.19,254.549 573.725,254.231C576.598,255.774 576.515,255.77 579.594,257.019C579.889,257.169 579.776,258.067 581.526,258.001C583.203,257.938 583.308,258.367 583.312,258.223C583.33,257.634 582.541,257.088 582.443,257.021C582.018,256.726 581.971,257.295 581.514,256.979C582.583,256.827 585.121,257.088 587.229,253.354C594.238,240.934 597.436,242.395 604.242,230.346C604.858,229.523 605.409,225.406 617.612,232.284C617.807,234.508 617.141,234.382 616.902,236.559C616.842,237.104 617.033,239.986 623.745,236.189C624.822,237.074 626.352,238.227 626.582,238.4C625.901,240.603 625.881,240.809 627.532,242.468C629.565,244.511 631.03,243.612 631.055,246.534C631.068,248.038 631.086,248.162 632.493,248.677C633.856,249.176 634.353,249.336 633.559,250.534C633.309,250.911 632.822,251.113 632.629,251.522C632.344,252.125 634.091,253.357 634.207,255.592C634.259,256.608 634.128,257.628 634.181,258.644C634.378,259.671 633.197,260.411 635.324,261.253C635.354,261.221 636.034,261.224 636.5,258.915C638.02,259.217 637.968,259.146 639.386,259.687C642.157,260.745 641.296,258.923 641.457,258.519C642.736,261.459 642.672,261.378 643.814,264.386C643.449,264.986 642.389,264.899 642.024,265.5C641.818,265.84 642.933,265.822 642.088,270.47C641.486,273.776 645.488,272.984 645.949,272.428C646.162,272.172 645.583,271.698 645.796,271.442C646.016,272.466 646.236,273.489 646.457,274.513L645.5,274.866L644.786,275.5C644.383,275.997 643.477,277.116 644.953,283.489C644.901,287.069 643.833,287.871 646.985,289.536C640.252,292.251 642.13,294.108 642.607,294.311C642.721,294.36 643.486,294.223 643.562,294.21C645.074,293.94 644.989,294.451 645.839,294.595C643.35,302.489 642.586,303.504 635.94,309.96C634.823,309.293 633.705,308.625 632.587,307.958C632.398,308.279 631.87,308.289 631.68,308.61C630.811,310.081 630.792,313.53 630.79,313.965L629.5,313.034C627.558,313.687 627.563,313.484 625.54,313.258C623.593,313.04 624.438,315.594 622.56,315.049C622.378,314.996 618.419,313.847 620.634,316.42C620.736,316.54 620.923,315.997 622.5,317.037C622.934,317.324 622.974,318.02 623.408,318.306C618.079,320.736 618.204,320.798 612.56,322.677C612.075,322.314 611.351,323.106 610.985,321.5C610.937,321.291 609.992,317.146 608.988,319.714C608.153,321.85 609.205,321.999 608.401,324.102C604.413,325.025 601.19,325.721 600.562,325.857C600.276,325.679 599.847,326.166 599.561,325.988C599.48,325.937 598.92,323.99 596.468,324.385C593.647,324.841 592.532,324.126 592.439,327.041C587.751,328.201 587.827,328.108 587.429,328.214C575.212,331.449 587.977,338.555 580.856,359.647C575.714,368.641 570.29,369.549 561.545,370.909C559.603,369.823 559.45,369.869 557.495,370.936C555.989,370.128 555.622,370.357 555.344,368.631C554.49,363.328 552.533,370.462 552.458,370.738L551.491,370.548C551.417,370.304 550.632,367.697 550.485,367.518C549.172,365.921 549.126,367.565 547.425,369.753C546.028,369.197 536.963,365.59 530.629,361.296C519.373,353.665 516.458,355.611 513.635,354.228C512.1,353.476 512.182,352.911 512.212,304.5C512.269,213.362 511.394,212.963 515.734,203.616C517.701,200.22 517.603,200.229 520.079,197.146C520.596,197.209 520.87,197.939 521.387,198.001C521.759,198.047 523.074,196.731 523.017,196.401C522.92,195.836 522.11,195.57 522.013,195.005C527.019,190.484 527.651,190.126 534.429,187.312C544.606,184.364 550.24,185.074 550.519,185.069ZM626.582,238.4C629.307,240.807 635.034,245.538 641.457,258.519C641.296,258.923 642.157,260.745 639.386,259.687C637.968,259.146 638.02,259.217 636.5,258.915L634.181,258.644C634.128,257.628 634.259,256.608 634.207,255.592C634.091,253.357 632.344,252.125 632.629,251.522C632.822,251.113 633.309,250.911 633.559,250.534C634.353,249.336 633.856,249.176 632.493,248.677C631.086,248.162 631.068,248.038 631.055,246.534C631.03,243.612 629.565,244.511 627.532,242.468C625.881,240.809 625.901,240.603 626.582,238.4ZM462.517,185.072C472.174,186.077 476.297,188.715 477.603,189.322C475.602,189.99 475.671,190.202 474.516,190.054C467.836,189.202 467.871,189.998 467.321,189.827C463.39,188.607 462.669,185.311 462.517,185.072ZM550.519,185.069C557.061,186.116 557.05,185.91 563.516,187.462C562.321,190.111 561.508,191.419 559.804,189.057C558.71,187.54 558.368,188.354 556.521,188.553L555.5,188.486C555.182,188.474 555.131,189.16 554.814,189.148C554.662,189.142 555.506,188.288 553.462,187.821C551.339,187.335 551.361,187.145 550.519,185.069ZM630.79,313.965C627.123,316.304 627.163,316.21 623.408,318.306C622.974,318.02 622.934,317.324 622.5,317.037C620.923,315.997 620.736,316.54 620.634,316.42C618.419,313.847 622.378,314.996 622.56,315.049C624.438,315.594 623.593,313.04 625.54,313.258C627.563,313.484 627.558,313.687 629.5,313.034L630.79,313.965ZM404.68,343.052C407.946,344.773 406.57,345.748 405.659,356.508L404.01,355.5L403.99,354.5C405.54,351.186 404.587,351.109 403.983,347.502C403.322,343.555 404.573,343.337 404.68,343.052ZM646.457,274.513C647.635,280.618 647.142,280.628 647.303,285.492L646.027,284.5C645.669,284.163 645.311,283.826 644.953,283.489C643.477,277.116 644.383,275.997 644.786,275.5L645.5,274.866L646.457,274.513ZM567.66,189.133C570.949,190.898 570.835,190.91 573.844,193.063C572.864,193.814 573.214,195.631 569.581,194.311C567.895,193.699 567.339,194.172 566.981,192.436C566.399,189.617 567.511,189.86 567.66,189.133ZM350.151,389.795C351.871,389.323 351.726,388.86 353.552,388.862C356.646,388.865 353.596,391.662 356.168,393.928C357.473,395.077 357.081,395.261 357.131,396.945C353.19,393.76 353.351,393.667 350.151,389.795ZM617.612,232.284C620.844,234.058 620.715,234.093 623.745,236.189C617.033,239.986 616.842,237.104 616.902,236.559C617.141,234.382 617.807,234.508 617.612,232.284ZM643.814,264.386C644.474,266.738 645.135,269.09 645.796,271.442C645.583,271.698 646.162,272.172 645.949,272.428C645.488,272.984 641.486,273.776 642.088,270.47C642.933,265.822 641.818,265.84 642.024,265.5C642.389,264.899 643.449,264.986 643.814,264.386ZM339.786,368.428C346.78,365.819 343.09,371.224 343.282,372.565C343.514,374.19 343.62,374.217 343.423,374.495C342.881,375.261 342.494,374.81 342.049,375.684C341.787,376.198 342.615,376.084 342.376,376.553C340.804,372.546 340.927,372.553 339.786,368.428ZM385.338,477.758C385.754,477.553 386.084,477.2 386.5,476.994C387.512,476.495 388.921,478.768 390.511,477.527C390.85,477.263 391.803,475.012 392.321,477.67C392.592,479.056 394.028,478.091 394.051,479.5C394.06,480.038 393.405,480.445 393.414,480.984C389.18,479.871 389.276,479.788 385.338,477.758ZM396.597,227.942C395.413,230.063 394.902,229.522 394.186,230.22C393.281,231.101 394.516,231.655 393.518,232.523C393.018,232.957 390.751,232.012 390.435,232.122C390.033,232.262 389.925,232.982 389.5,232.991C389.068,233.001 388.932,232.156 388.5,232.166L387.675,231.768C392.05,229.586 392.043,229.717 396.597,227.942ZM425.252,494.146C426.616,496.61 428.34,497.898 425.474,498.207C425.173,498.239 424.366,498.326 422.009,499.728C420.304,496.282 422.157,496.424 425.252,494.146ZM364.303,419.41C364.836,419.804 364.967,420.605 365.5,420.999C365.688,421.138 365.945,420.726 366.171,420.79C366.551,420.899 369.534,427.492 362.468,424.489L364.303,419.41ZM400.597,231.464C400.69,231.766 400.693,231.752 402.78,237.365C402.24,237.316 401.972,238.679 399.998,237.115C397.039,234.77 397.525,233.673 400.597,231.464ZM632.587,307.958C633.705,308.625 634.823,309.293 635.94,309.96C633.268,312.444 633.193,312.251 630.79,313.965C630.792,313.53 630.811,310.081 631.68,308.61C631.87,308.289 632.398,308.279 632.587,307.958ZM373.686,332.155C375.653,333.196 379.183,334.878 379.665,335.108C379.189,335.317 378.976,335.937 378.5,336.147C376.993,336.81 377.015,335.677 375.468,335.957C373.169,336.374 372.397,333.726 372.495,333.503C372.737,332.955 373.443,332.703 373.686,332.155ZM354.136,322.128C356.882,319.565 357.416,320.391 359.725,322.262C359.054,322.966 359.1,324.171 358.43,324.875C357.666,325.676 357.568,324.888 354.136,322.128ZM646.985,289.536C646.583,293.258 646.234,293.116 645.839,294.595C644.989,294.451 645.074,293.94 643.562,294.21C643.486,294.223 642.721,294.36 642.607,294.311C642.13,294.108 640.252,292.251 646.985,289.536ZM420.592,255.082C424.567,255.602 424.506,255.592 428.43,255.226C427.397,257.007 427.497,257.155 425.567,257.792C424.832,257.758 424.097,257.723 423.363,257.689L422.567,257.425C419.504,256.523 420.782,255.444 420.592,255.082ZM405.924,243.211C407.831,245.907 407.812,245.894 407.983,246.122C408.4,246.679 408.452,246.554 408.893,247.142C408.02,247.548 408.399,247.926 407.595,248.299C407.532,248.328 407.2,248.483 406.752,248.138C405.745,247.362 405.725,247.45 404.478,247.542C403.361,247.624 403.963,244.629 404.091,244.488C404.591,243.936 405.424,243.763 405.924,243.211ZM437.353,189.174L437.101,190.5C436.915,190.776 437.288,191.224 437.101,191.5C436.875,191.835 436.274,191.752 436.036,192.079C435.731,192.499 435.774,193.086 435.594,193.574C434.991,195.211 431.757,192.692 431.489,192.483C434.335,190.606 434.292,190.684 437.353,189.174ZM361.796,324.142L365.763,327.131C365.278,328.927 365.304,328.923 365.24,329.071C364.098,331.706 362.867,328.332 361.879,327.042C360.378,325.08 361.808,324.545 361.796,324.142ZM451.882,377.508L452.933,378.5C452.963,378.976 453.265,383.805 453.019,384.458C452.866,384.865 452.244,384.962 452.081,385.366C451.962,385.659 452.392,385.999 452.277,386.294C452.052,386.87 451.577,386.86 451.5,386.858C450.701,386.84 450.979,386.265 450.227,386.248C452.294,382.221 451.49,382.031 451.882,377.508ZM600.562,325.857C596.433,326.477 596.518,326.482 592.439,327.041C592.532,324.126 593.647,324.841 596.468,324.385C598.92,323.99 599.48,325.937 599.561,325.988C599.847,326.166 600.276,325.679 600.562,325.857ZM370.427,405.627L371.5,404.861C374.749,406.57 375.304,407.249 373.4,410.429C372.756,411.505 372.516,410.821 371.382,410.428C372.36,407.873 372.264,407.648 370.427,405.627ZM584.648,205.421L585.61,207.452C585.244,207.974 584.375,207.978 584.009,208.5C583.764,208.849 584.055,209.358 583.98,209.777C583.608,211.848 582.002,211.511 581.845,209.464C581.606,206.348 584.423,205.553 584.648,205.421ZM570.72,249.47C571.597,252.223 571.668,252.135 573.725,254.231C573.19,254.549 573.019,255.308 572.484,255.627C571.668,256.113 571.035,255.302 570.957,255.202C568.896,252.563 569.463,251.735 569.642,251.474C569.954,251.017 570.626,250.864 570.888,250.377C571.034,250.106 570.574,249.74 570.72,249.47ZM644.953,283.489C645.311,283.826 645.669,284.163 646.027,284.5L647.303,285.492L646.985,289.536C643.833,287.871 644.901,287.069 644.953,283.489ZM412.622,479.702C411.536,480.153 410.449,480.604 409.363,481.055C409.906,479.366 409.907,479.368 409.228,477.629C408.379,475.458 411.203,475.235 411.319,477.611C411.402,479.301 412.113,478.885 412.622,479.702ZM612.56,322.677C611.174,323.152 609.787,323.627 608.401,324.102C609.205,321.999 608.153,321.85 608.988,319.714C609.992,317.146 610.937,321.291 610.985,321.5C611.351,323.106 612.075,322.314 612.56,322.677ZM552.458,370.738C552.533,370.462 554.49,363.328 555.344,368.631C555.622,370.357 555.989,370.128 557.495,370.936C555.816,370.87 554.137,370.804 552.458,370.738ZM446.389,369.963C446.345,369.731 445.379,364.653 448.302,367.71C449.933,369.414 450.055,369.303 450.103,369.5C450.23,370.025 449.145,370.365 449.272,370.89C448.311,370.581 447.35,370.272 446.389,369.963ZM547.425,369.753C549.126,367.565 549.172,365.921 550.485,367.518C550.632,367.697 551.417,370.304 551.491,370.548L547.425,369.753ZM412.868,380.04C413.469,380.44 414.071,380.84 414.672,381.24C413.851,383.263 414.308,384.703 412.332,383.726C410.21,382.678 411.766,382.137 412.868,380.04ZM437.248,519.844C439.662,518.809 439.68,517.926 441.293,518.907C441.509,519.039 441.712,519.311 439.49,521.514C438.743,520.958 437.996,520.401 437.248,519.844ZM361.569,292.485C366.011,290.961 364.341,293.956 364.117,294.038C363.923,294.109 363.699,293.922 363.5,293.977C362.281,294.312 362.134,294.504 362.058,294.604C361.709,295.06 362.671,295.06 362.285,295.565C362.047,294.538 361.808,293.512 361.569,292.485ZM342.342,339.43C344.214,342.378 344.802,342.362 344.142,343.332C343.996,343.547 343.725,343.745 341.474,341.49L342.342,339.43ZM634.181,258.644L636.5,258.915C636.034,261.224 635.354,261.221 635.324,261.253C633.197,260.411 634.378,259.671 634.181,258.644ZM522.013,195.005C522.11,195.57 522.92,195.836 523.017,196.401C523.074,196.731 521.759,198.047 521.387,198.001C520.87,197.939 520.596,197.209 520.079,197.146C520.724,196.432 521.369,195.719 522.013,195.005ZM422.567,257.425L423.363,257.689C424.007,257.823 424.652,257.958 425.296,258.093C424.487,259.787 424.551,261.199 423.291,259.838C423.154,259.691 422.882,259.397 422.567,257.425ZM557.495,370.936C559.45,369.869 559.603,369.823 561.545,370.909C559.467,371.037 559.532,371.011 557.495,370.936ZM581.514,256.979C581.971,257.295 582.018,256.726 582.443,257.021C582.541,257.088 583.33,257.634 583.312,258.223C583.308,258.367 583.203,257.938 581.526,258.001C579.776,258.067 579.889,257.169 579.594,257.019C580.234,257.006 580.874,256.992 581.514,256.979ZM423.147,352.464C423.985,354.275 424.129,354.262 424.05,354.415C423.709,355.078 423.418,354.765 423.047,355.486C423.08,354.479 423.113,353.471 423.147,352.464Z" style="fill:rgb(34,36,37);fill-opacity:0.99;"/>
                <path d="M631.465,396.327C636.433,397.444 636.41,395.707 641.502,395.853C647.444,396.023 650.584,396.876 653.508,396.446C657.261,397.573 660.6,396.998 661.208,396.893C662.264,397.75 662.221,397.72 663.537,398.24C663.99,398.424 665.78,399.151 669.53,399.447C670.969,400.309 670.949,400.146 672.524,400.31C674.861,401.258 674.82,401.304 675.536,401.444C678.635,403.603 679.088,402.643 682.301,404.735C682.905,405.129 682.998,404.932 690.314,408.852C692.537,410.043 692.257,410.417 694.566,411.271C696.345,413.553 697.873,415.663 701.759,416.334C706.062,422.059 707.737,420.473 711.694,426.363C711.756,426.456 711.807,426.367 712.622,427.404C712.73,427.541 712.798,427.463 714.183,428.909L714.799,430.208C715.201,430.668 715.227,430.58 716.706,431.382C717.072,431.921 719.556,435.92 719.802,436.315C719.859,436.408 719.862,436.396 720.619,437.399C721.282,438.418 721.945,439.437 722.608,440.456C722.903,440.805 723.198,441.154 723.493,441.502C724.117,443.482 723.999,443.489 724.571,444.443C725.226,445.896 725.204,445.844 725.886,447.327L726.729,448.301C726.892,449.522 726.847,449.463 727.444,450.51L727.753,451.462C728.452,453.086 728.306,453.138 729.588,454.433C729.134,458.298 729.67,458.23 731.699,461.49L731.819,463.4C732.181,466.089 732.337,465.965 733.142,468.593C734.519,473.551 733.753,496.247 733.502,498.5C733.152,499.495 732.803,500.489 732.453,501.484L731.703,503.541L731.497,505.5C730.979,507.023 730.884,506.915 730.391,508.446C729.607,510.451 729.712,510.388 729.43,512.465L729.096,513.322C728.76,513.985 728.424,514.649 728.089,515.313C727.638,517.406 722.467,527.99 720.252,530.334C717.546,533.198 717.487,535.309 717.374,535.385C717.316,535.423 716.3,535.329 715.33,536.362C712.006,539.899 712.332,540.15 707.194,545.189C702.074,550.21 701.432,550.534 700.823,550.841C697.867,552.26 697.999,552.382 695.548,554.585C695.465,554.658 694.5,555.5 694.5,555.5C693.831,556.564 693.819,556.588 692.57,556.737C692.001,556.805 692.027,556.874 686.315,560.214C685.509,560.315 684.078,560.488 681.495,562.483C677.955,563.331 678.009,563.318 674.619,564.778C671.882,565.241 671.969,565.369 669.544,566.592L669.272,567.13C667.874,566.901 667.955,566.913 666.58,567.177C662.501,567.761 662.576,567.748 658.554,568.719L656.484,568.812L653.56,568.841C651.486,568.903 651.586,569.006 649.487,569.474C648.931,569.513 649.058,569.125 648.471,569.166C648.23,569.183 648.25,569.202 645.495,569.652L644.507,569.658C644.186,569.648 642.499,569.59 640.491,569.649C638.418,569.42 638.485,569.428 636.393,569.201C631.86,568.564 631.928,568.488 627.429,568.756C621.079,567.784 620.973,566.579 616.559,567.109C613.932,564.435 613.531,565.19 610.386,564.755C609.574,564.47 605.498,563.036 600.632,560.198C599.053,559.313 599.141,559.249 597.38,558.698C595.932,557.994 596.003,557.939 594.365,557.655C593.666,557.039 593.273,557.634 584.678,551.188C583.459,550.274 582.741,551.04 582.366,549.578C581.834,547.503 581.178,548.15 580.42,547.709C579.362,546.143 579.492,546.007 577.783,545.176C577.023,544.648 571.484,538.139 570.442,537.56C569.772,537.188 569.917,537.12 569.333,536.631C569.129,535.552 569.324,534.046 566.487,533.508C565.999,532.473 566.227,532.447 565.533,531.481C565.43,531.339 564.541,530.101 564.362,529.632C564.099,528.937 563.909,529.19 563.326,528.622C563.135,526.226 562.667,526.452 561.267,524.569C560.201,522.041 560.253,522.024 560.03,521.75C557.666,518.839 558.522,518.449 558.003,517.733C557.783,517.43 557.17,517.57 556.992,517.241C555.79,515.009 557.008,514.558 555.451,512.526C555.205,512.205 555.571,512.146 554.308,507.594C554.205,507.309 554.065,507.443 553.954,507.137C553.88,506.931 553.898,506.943 553.194,504.514C552.949,503.85 552.705,503.186 552.46,502.522C552.238,500.437 552.218,500.499 551.333,498.518C551.154,497.51 550.976,496.502 550.797,495.494C551.569,485.899 548.904,485.789 551.105,476.48C551.116,475.268 551.203,465.275 553.179,461.476C553.208,461.232 553.216,461.249 553.822,458.671L554.137,458.372L554.313,457.475C555.081,455.952 555.131,456.02 555.206,454.355L555.431,453.462C556.658,451.497 557.003,451.708 557.447,449.475C557.854,448.521 558.26,447.566 558.667,446.612C559.885,444.618 559.862,444.662 560.432,442.444C560.823,441.926 560.541,441.757 564.752,435.582L565.3,435.402C566.462,433.855 566.474,433.944 567.328,432.268C567.462,432.155 567.361,432.147 568.871,430.711C570.218,429.092 570.281,429.249 571.396,427.381C571.699,427.036 572.001,426.691 572.304,426.346C573.525,425.138 573.953,425.641 577.33,421.273C577.642,420.958 577.954,420.643 578.266,420.328C580.89,418.831 580.949,418.882 582.367,416.272C585.658,414.148 585.901,414.473 588.439,411.437C589.353,411.075 589.499,411.517 590.563,410.594C590.702,410.474 590.701,410.494 592.418,409.243C593.684,408.584 593.689,408.677 594.78,407.766C595.396,407.472 596.013,407.178 596.629,406.884C599.31,405.484 599.331,405.587 601.652,403.704C601.769,403.608 605.374,403.055 607.377,401.343C609.099,401.131 609.004,401.065 610.476,400.3C613.138,399.729 612.909,399.248 615.511,398.529C616.395,398.284 619.152,398.291 619.399,398.189C620.48,397.744 620.505,397.994 621.497,397.469L624.482,397.153C628.596,395.995 628.583,396.431 631.465,396.327Z" style="fill:rgb(254,188,0);fill-opacity:0.99;"/>
                <path d="M631.469,413.061C672.909,406.914 703.971,435.72 712.06,459.641C731.022,515.718 683.744,545.631 665.545,549.704C636.279,556.254 613.826,551.709 595.204,536.876C543.218,495.467 573.479,419.334 631.469,413.061Z" style="fill:rgb(254,253,250);fill-opacity:0.99;"/>
                <path d="M596.952,483.454C596.978,482.832 596.363,479.135 598.565,476.556C606.799,466.911 617.768,480.93 617.916,481.062C631.215,492.953 632.124,495.625 635.112,492.177C645.84,479.802 670.611,454.947 673.769,451.779C684.619,440.893 693.684,453.393 690.855,459.66C689.26,463.193 656.89,495.782 653.851,498.841C639.095,513.698 636.271,522.588 622.754,510.237C597.981,487.601 597.668,486.341 596.952,483.454Z" style="fill:rgb(254,188,0);fill-opacity:1;"/>
                <path d="M441.352,418.422C443.776,413.066 443.478,413.055 445.267,407.418C446.954,402.103 454.549,402.869 462.497,403.545C470.46,404.222 483.907,408.893 485.133,411.631C488.71,419.616 467.284,423.602 465.419,424.106C464.061,424.411 462.704,424.716 461.346,425.021C456.899,427.185 458.314,428.622 454.592,432.585C442.684,445.262 438.834,443.868 430.475,445.084C428.81,445.034 427.144,444.985 425.479,444.936C424.848,444.879 419.499,444.397 417.777,443.093C415.99,441.74 415.066,439.159 415.114,437.49C415.28,431.622 424.123,431.097 424.593,430.979C427.812,430.194 427.917,430.674 430.752,428.965C433.339,427.435 433.255,427.418 435.666,425.682C438.935,422.344 438.844,422.314 441.352,418.422Z" style="fill:rgb(34,35,36);fill-opacity:0.99;"/>
                <path d="M576.525,268.588C579.79,268.129 579.758,267.892 583.461,268.605L584.289,268.911C585.302,269.606 585.299,269.596 585.383,269.662C585.963,270.117 585.847,270.155 586.396,270.586C586.83,271.401 590.181,277.696 586.114,282.119C584.821,283.106 583.529,284.094 582.237,285.082C573.714,290.222 568.538,290.283 566.642,293.571C564.163,297.869 565.662,302.474 551.566,301.197C550.098,300.748 550.164,300.784 548.723,300.158L547.687,299.304C544.474,295.577 544.836,295.37 543.949,290.444C542.795,284.037 542.577,283.903 544.972,277.921C546.597,276.559 546.533,276.602 548.598,275.79C555.397,273.779 555.527,274.811 562.577,273.875C566.76,272.615 566.795,272.893 570.64,270.754C573.568,269.611 573.487,269.582 576.525,268.588Z" style="fill:rgb(34,35,36);fill-opacity:0.99;"/>
                <path d="M442.576,273.99L443.557,273.876L445.519,273.619C450.563,273.3 450.488,273.41 455.487,273.624L457.462,273.823C460.029,274.164 459.964,274.177 462.461,274.641C463.836,275.202 465.212,275.763 466.587,276.324C468.147,277.361 468.058,277.331 469.479,278.521C471.119,280.845 471.557,280.645 471.852,283.457C473.068,295.036 456.974,291.113 451.607,294.672C450.286,295.548 440.778,301.853 431.957,292.178C430.24,289.028 430.244,289.059 430.023,285.493C430.559,275.744 439.375,274.997 442.576,273.99Z" style="fill:rgb(33,35,36);fill-opacity:0.99;"/>
                <path d="M341.844,269.563C341.714,270.485 341.31,270.441 340.911,280.511C340.685,280.024 341.171,280.029 340.931,279.515C340.612,278.829 340.27,279.177 339.979,278.509C339.839,278.186 338.963,272.666 339.52,270.507C340.167,268.007 338.45,265.49 340.5,267.009C342.444,268.449 341.581,269.064 341.844,269.563Z" style="fill:rgb(69,69,71);fill-opacity:0.04;"/>
                <path d="M445.519,273.619C446.645,271.782 446.384,270.934 448.498,271.348C453.16,272.26 453.062,270.905 453.449,270.997C454.639,271.279 454.31,271.67 455.487,273.624C450.488,273.41 450.563,273.3 445.519,273.619Z" style="fill:rgb(55,56,56);fill-opacity:0.06;"/>
                <path d="M430.752,428.965C427.917,430.674 427.812,430.194 424.593,430.979C424.183,430.005 422.437,429.292 425.482,427.452C428.158,425.834 428.187,427.252 430.752,428.965Z" style="fill:rgb(41,41,41);fill-opacity:0.04;"/>
                <path d="M325.293,388.614C327.118,391.985 327.039,391.947 328.949,395.209L327.5,395.149C325.457,393.704 319.97,392.182 325.293,388.614Z" style="fill:rgb(57,57,57);fill-opacity:0.04;"/>
                <path d="M396.597,227.942C395.413,230.063 394.902,229.522 394.186,230.22C393.281,231.101 394.516,231.655 393.518,232.523C393.018,232.957 390.751,232.012 390.435,232.122C390.033,232.262 389.925,232.982 389.5,232.991C389.068,233.001 388.932,232.156 388.5,232.166L387.675,231.768C392.05,229.586 392.043,229.717 396.597,227.942Z" style="fill:rgb(54,53,54);fill-opacity:0.08;"/>
                <path d="M632.587,307.958C633.705,308.625 634.823,309.293 635.94,309.96C633.268,312.444 633.193,312.251 630.79,313.965C630.792,313.53 630.811,310.081 631.68,308.61C631.87,308.289 632.398,308.279 632.587,307.958Z" style="fill:rgb(49,49,49);fill-opacity:0.06;"/>
                <path d="M512.362,502.518L513.5,502.846C513.982,503.706 514.432,503.478 514.428,504.503C514.421,506.767 515.438,506.564 516.341,507.619C517.829,509.356 516.972,509.548 515.698,511.366C513.32,507.198 513.622,507.109 512.362,502.518Z" style="fill:rgb(71,60,45);fill-opacity:0.05;"/>
                <path d="M561.45,169.825C561.965,169.383 562.48,168.942 562.994,168.5L562.994,167.5L563.5,166.994C564.306,169.001 564.529,169.483 566.577,168.745C569.285,167.769 568.605,169.479 569.615,172.12C566.072,171.007 566.194,170.839 561.45,169.825Z" style="fill:rgb(49,49,50);fill-opacity:0.1;"/>
                <path d="M373.686,332.155C375.653,333.196 379.183,334.878 379.665,335.108C379.189,335.317 378.976,335.937 378.5,336.147C376.993,336.81 377.015,335.677 375.468,335.957C373.169,336.374 372.397,333.726 372.495,333.503C372.737,332.955 373.443,332.703 373.686,332.155Z" style="fill:rgb(58,57,58);fill-opacity:0.06;"/>
                <path d="M505.954,525.115C504.563,527.564 504.431,527.378 502.219,529.208C501.61,529.711 501.971,530.202 501.148,530.162C500.251,530.12 500.891,529.145 500.062,529.105C502.497,526.012 504.116,522.207 505.954,525.115Z" style="fill:rgb(64,60,57);fill-opacity:0.04;"/>
                <path d="M532.818,380.031C534.971,381.466 534.981,381.377 536.861,383.133C534.686,384.013 528.516,386.256 532.818,380.031Z" style="fill:rgb(59,56,53);fill-opacity:0.04;"/>
                <path d="M420.592,255.082C424.567,255.602 424.506,255.592 428.43,255.226C427.397,257.007 427.497,257.155 425.567,257.792C424.832,257.758 424.097,257.723 423.363,257.689L422.567,257.425C419.504,256.523 420.782,255.444 420.592,255.082Z" style="fill:rgb(65,65,64);fill-opacity:0.07;"/>
                <path d="M405.924,243.211C407.831,245.907 407.812,245.894 407.983,246.122C408.4,246.679 408.452,246.554 408.893,247.142C408.02,247.548 408.399,247.926 407.595,248.299C407.532,248.328 407.2,248.483 406.752,248.138C405.745,247.362 405.725,247.45 404.478,247.542C403.361,247.624 403.963,244.629 404.091,244.488C404.591,243.936 405.424,243.763 405.924,243.211Z" style="fill:rgb(53,53,53);fill-opacity:0.04;"/>
                <path d="M521.596,375.164C529.553,377.77 529.377,378.109 529.624,378.237C527.836,378.947 527.907,379.376 526.5,378.953C525.503,378.653 525.553,378.665 524.523,378.748C522.711,378.896 523.195,377.997 521.596,375.164Z" style="fill:rgb(61,58,57);fill-opacity:0.11;"/>
                <path d="M586.114,282.119L587.5,282.786C587.524,283.122 588.19,283.164 588.214,283.5C588.341,285.26 586.649,285.982 586.417,286.08C584.295,286.985 584.351,286.134 582.237,285.082C583.529,284.094 584.821,283.106 586.114,282.119Z" style="fill:rgb(34,35,34);fill-opacity:0.05;"/>
                <path d="M437.353,189.174L437.101,190.5C436.915,190.776 437.288,191.224 437.101,191.5C436.875,191.835 436.274,191.752 436.036,192.079C435.731,192.499 435.774,193.086 435.594,193.574C434.991,195.211 431.757,192.692 431.489,192.483C434.335,190.606 434.292,190.684 437.353,189.174Z" style="fill:rgb(52,51,52);fill-opacity:0.06;"/>
                <path d="M577.33,421.273C573.953,425.641 573.525,425.138 572.304,426.346C572.452,424.352 572.557,424.395 571.992,422.414C571.352,420.17 574.313,421.791 577.33,421.273Z" style="fill:rgb(204,151,26);fill-opacity:0.05;"/>
                <path d="M570.64,270.754C566.795,272.893 566.76,272.615 562.577,273.875C562.633,273.376 561.904,272.999 561.961,272.5C561.969,272.423 563.403,271.629 563.584,271.62C564.701,271.565 564.609,271.5 565.577,270.967C565.882,270.799 566.254,270.789 566.601,270.769C567.714,270.702 567.576,270.441 568.578,269.944C568.578,269.944 570.475,270.689 570.64,270.754Z" style="fill:rgb(54,55,55);fill-opacity:0.09;"/>
                <path d="M361.796,324.142L365.763,327.131C365.278,328.927 365.304,328.923 365.24,329.071C364.098,331.706 362.867,328.332 361.879,327.042C360.378,325.08 361.808,324.545 361.796,324.142Z" style="fill:rgb(50,51,51);fill-opacity:0.04;"/>
                <path d="M653.508,396.446C659.268,392.113 659.32,395.857 659.668,396.144C659.774,396.231 659.782,396.2 661.208,396.893C660.6,396.998 657.261,397.573 653.508,396.446Z" style="fill:rgb(220,162,29);fill-opacity:0.06;"/>
                <path d="M451.882,377.508L452.933,378.5C452.963,378.976 453.265,383.805 453.019,384.458C452.866,384.865 452.244,384.962 452.081,385.366C451.962,385.659 452.392,385.999 452.277,386.294C452.052,386.87 451.577,386.86 451.5,386.858C450.701,386.84 450.979,386.265 450.227,386.248C452.294,382.221 451.49,382.031 451.882,377.508Z" style="fill:rgb(65,64,64);fill-opacity:0.16;"/>
                <path d="M667.36,307.793C668.808,309.325 668.807,309.348 668.936,311.5L668.219,312.787C666.993,311.676 665.766,310.564 664.54,309.453C665.679,308.524 665.411,308.049 667.36,307.793Z" style="fill:rgb(61,60,61);fill-opacity:0.04;"/>
                <path d="M600.562,325.857C596.433,326.477 596.518,326.482 592.439,327.041C592.532,324.126 593.647,324.841 596.468,324.385C598.92,323.99 599.48,325.937 599.561,325.988C599.847,326.166 600.276,325.679 600.562,325.857Z" style="fill:rgb(61,61,61);fill-opacity:0.11;"/>
                <path d="M370.427,405.627L371.5,404.861C374.749,406.57 375.304,407.249 373.4,410.429C372.756,411.505 372.516,410.821 371.382,410.428C372.36,407.873 372.264,407.648 370.427,405.627Z" style="fill:rgb(60,61,61);fill-opacity:0.05;"/>
                <path d="M383.559,499.298C385.892,499.936 388.225,500.573 390.558,501.211C390.261,501.348 389.882,500.941 389.584,501.078C389.214,501.249 384.655,506.517 383.559,499.298Z" style="fill:rgb(56,56,57);fill-opacity:0.1;"/>
                <path d="M347.608,250.547L346.413,253.462L345.5,252.007C343.566,249.789 340.119,250.318 342.589,248.673C344.137,247.642 347.279,250.272 347.608,250.547Z" style="fill:rgb(48,48,48);fill-opacity:0.05;"/>
                <path d="M376.755,217.929C375.743,218.569 374.732,219.208 373.72,219.848C366.092,212.769 376.496,217.804 376.755,217.929Z" style="fill:rgb(57,59,60);fill-opacity:0.05;"/>
                <path d="M408.881,189.817C407.889,191.136 406.897,192.454 405.905,193.773C403.815,191.629 403.768,191.687 403.648,191.458C403.491,191.159 402.887,189.749 407.5,189.76L408.881,189.817Z" style="fill:rgb(33,32,33);fill-opacity:0.09;"/>
                <path d="M576.525,268.588C577.099,267.609 577.028,267.625 577.661,266.652C577.818,266.41 577.81,266.086 577.965,265.843C578.035,265.732 578.686,264.712 579.546,265.411C580.263,265.994 579.506,266.497 580.294,266.909C581.371,267.472 581.469,266.416 582.5,266.956L583.044,267.5L583.461,268.605C579.758,267.892 579.79,268.129 576.525,268.588Z" style="fill:rgb(56,56,57);fill-opacity:0.14;"/>
                <path d="M446.56,168.996C444.898,169.302 443.236,169.607 441.575,169.912L440.5,168.822C440.841,168.569 444.314,165.991 445.5,167.049C446.051,167.541 446.009,168.504 446.56,168.996Z" style="fill:rgb(49,49,50);fill-opacity:0.06;"/>
                <path d="M570.72,249.47C571.597,252.223 571.668,252.135 573.725,254.231C573.19,254.549 573.019,255.308 572.484,255.627C571.668,256.113 571.035,255.302 570.957,255.202C568.896,252.563 569.463,251.735 569.642,251.474C569.954,251.017 570.626,250.864 570.888,250.377C571.034,250.106 570.574,249.74 570.72,249.47Z" style="fill:rgb(55,56,56);fill-opacity:0.09;"/>
                <path d="M405.891,512.327L407.982,516.227C407.949,516.239 406.797,518.239 404.791,516.212C403.056,514.457 404.36,514.246 405.891,512.327Z" style="fill:rgb(54,53,53);fill-opacity:0.06;"/>
                <path d="M430.023,285.493C430.244,289.059 430.24,289.028 431.957,292.178C431.171,291.946 430.286,292.337 429.5,292.104C428.938,291.938 428.049,289.612 427.959,289.378C427.565,288.348 429.854,287.234 430.023,285.493Z" style="fill:rgb(40,40,41);fill-opacity:0.16;"/>
                <path d="M596.398,558.708L597.38,558.698C599.141,559.249 599.053,559.313 600.632,560.198C600.496,560.424 599.124,562.696 598.588,562.789C596.321,563.185 597.467,560.143 596.398,558.708Z" style="fill:rgb(206,155,26);fill-opacity:0.04;"/>
                <path d="M605.52,340.713C605.015,342.46 605.3,342.626 603.742,343.679C603.59,343.782 602.014,346.258 601.869,346.486C601.883,342.711 601.153,341.339 605.52,340.713Z" style="fill:rgb(59,58,56);fill-opacity:0.09;"/>
                <path d="M645.346,232.637C648.639,231.418 648.915,232.417 650.091,235.77L649.076,236.831C648.127,235.778 648.238,235.765 647.281,234.703C647.129,234.535 647.138,234.55 645.346,232.637Z" style="fill:rgb(64,64,65);fill-opacity:0.04;"/>
                <path d="M551.985,541.536C552.173,541.396 557.268,537.614 554.886,541.996C554.229,543.204 554.7,544.348 551.131,544.168C551.416,543.291 551.7,542.414 551.985,541.536Z" style="fill:rgb(80,61,28);fill-opacity:0.05;"/>
                <path d="M555.641,407.336C555.888,407.556 557.748,409.209 558.8,410.009C558.261,410.229 558.034,410.95 557.494,411.169C556.502,411.573 553.12,409.021 553.706,408.449C554.238,407.929 555.108,407.856 555.641,407.336Z" style="fill:rgb(108,85,50);fill-opacity:0.05;"/>
                <path d="M465.419,424.106C465.24,424.586 466.248,425.02 466.068,425.5C465.997,425.69 465.801,425.396 464.237,427.259C462.55,429.269 462.448,427.341 461.346,425.021C462.704,424.716 464.061,424.411 465.419,424.106Z" style="fill:rgb(47,45,44);fill-opacity:0.04;"/>
                <path d="M731.548,507.513C731.703,507.724 733.242,509.816 733.057,510.417C732.94,510.797 732.406,510.95 732.289,511.329C730.398,511.247 730.404,511.195 730.247,511.241C729.986,511.316 730.281,511.947 730.02,512.022L729.43,512.465C729.712,510.388 729.607,510.451 730.391,508.446L731.548,507.513Z" style="fill:rgb(167,124,18);fill-opacity:0.06;"/>
                <path d="M412.622,479.702C411.536,480.153 410.449,480.604 409.363,481.055C409.906,479.366 409.907,479.368 409.228,477.629C408.379,475.458 411.203,475.235 411.319,477.611C411.402,479.301 412.113,478.885 412.622,479.702Z" style="fill:rgb(33,33,32);fill-opacity:0.08;"/>
                <path d="M612.56,322.677C611.174,323.152 609.787,323.627 608.401,324.102C609.205,321.999 608.153,321.85 608.988,319.714C609.992,317.146 610.937,321.291 610.985,321.5C611.351,323.106 612.075,322.314 612.56,322.677Z" style="fill:rgb(49,48,49);fill-opacity:0.12;"/>
                <path d="M552.458,370.738C552.533,370.462 554.49,363.328 555.344,368.631C555.622,370.357 555.989,370.128 557.495,370.936C555.816,370.87 554.137,370.804 552.458,370.738Z" style="fill:rgb(65,64,63);fill-opacity:0.09;"/>
                <path d="M466.587,276.324C468.034,275.297 467.87,274.663 469.614,275.068C471.482,275.503 470.285,276.249 469.479,278.521C468.058,277.331 468.147,277.361 466.587,276.324Z" style="fill:rgb(55,55,54);fill-opacity:0.06;"/>
                <path d="M610.386,564.755C613.531,565.19 613.932,564.435 616.559,567.109C616.184,567.146 615.863,566.706 615.487,566.744C615.254,566.767 615.08,567.44 613.577,567.225C611.088,566.87 611.094,565.719 610.386,564.755Z" style="fill:rgb(219,163,25);fill-opacity:0.09;"/>
                <path d="M547.425,369.753C549.126,367.565 549.172,365.921 550.485,367.518C550.632,367.697 551.417,370.304 551.491,370.548L547.425,369.753Z" style="fill:rgb(62,62,61);fill-opacity:0.06;"/>
                <path d="M548.598,275.79C546.533,276.602 546.597,276.559 544.972,277.921C544.587,277.302 543.664,277.156 543.279,276.538C543.094,276.241 542.616,274.285 547.5,275.417L548.598,275.79Z" style="fill:rgb(51,51,52);fill-opacity:0.11;"/>
                <path d="M377.724,497.021C378.697,497.414 379.67,497.806 380.642,498.199C379.987,500.581 379.107,501.335 377.639,499.417C376.523,497.958 377.72,497.146 377.724,497.021Z" style="fill:rgb(55,55,55);fill-opacity:0.05;"/>
                <path d="M659.805,331.294C659.958,331.541 660.98,333.192 661.739,334.362C661.149,334.662 661.09,335.612 660.5,335.912C660.167,336.082 657.138,336.528 659.805,331.294Z" style="fill:rgb(58,56,54);fill-opacity:0.07;"/>
                <path d="M412.868,380.04C413.469,380.44 414.071,380.84 414.672,381.24C413.851,383.263 414.308,384.703 412.332,383.726C410.21,382.678 411.766,382.137 412.868,380.04Z" style="fill:rgb(49,50,49);fill-opacity:0.05;"/>
                <path d="M568.5,384.623C569.833,384.58 571.166,384.538 572.5,384.495C571.031,387.009 571.176,387.012 571.042,387.219C569.713,389.277 568.578,384.887 568.5,384.623Z" style="fill:rgb(78,68,54);fill-opacity:0.07;"/>
                <path d="M584.289,268.911C586.879,266.342 587.17,266.504 587.442,266.654C589.314,267.692 587.755,268.127 586.396,270.586C585.847,270.155 585.963,270.117 585.383,269.662C585.299,269.596 585.302,269.606 584.289,268.911Z" style="fill:rgb(39,39,39);fill-opacity:0.08;"/>
                <path d="M665.378,396.327C666.328,397.101 666.354,396.953 667.297,397.686C668.48,398.535 669.359,399.298 669.53,399.447C665.78,399.151 663.99,398.424 663.537,398.24C664.999,396.837 665.027,396.916 665.378,396.327Z" style="fill:rgb(202,149,25);fill-opacity:0.08;"/>
                <path d="M525.182,520.926C526.404,519.754 527.623,518.477 528.085,518.931C528.182,519.028 528.078,519.058 528.052,520.65C528.034,521.698 527.752,521.583 527.415,522.63C526.257,521.797 526.303,521.847 525.182,520.926Z" style="fill:rgb(48,40,31);fill-opacity:0.05;"/>
                <path d="M686.315,560.214C685.3,563.162 684.598,562.857 681.495,562.483C684.078,560.488 685.509,560.315 686.315,560.214Z" style="fill:rgb(215,161,24);fill-opacity:0.05;"/>
                <path d="M437.248,519.844C439.662,518.809 439.68,517.926 441.293,518.907C441.509,519.039 441.712,519.311 439.49,521.514C438.743,520.958 437.996,520.401 437.248,519.844Z" style="fill:rgb(47,46,46);fill-opacity:0.07;"/>
                <path d="M557.293,448.414L557.447,449.475C557.003,451.708 556.658,451.497 555.431,453.462C555.261,450.495 554.747,449.994 557.293,448.414Z" style="fill:rgb(206,154,25);fill-opacity:0.07;"/>
                <path d="M361.569,292.485C366.011,290.961 364.341,293.956 364.117,294.038C363.923,294.109 363.699,293.922 363.5,293.977C362.281,294.312 362.134,294.504 362.058,294.604C361.709,295.06 362.671,295.06 362.285,295.565C362.047,294.538 361.808,293.512 361.569,292.485Z" style="fill:rgb(53,53,54);fill-opacity:0.08;"/>
                <path d="M342.342,339.43C344.214,342.378 344.802,342.362 344.142,343.332C343.996,343.547 343.725,343.745 341.474,341.49L342.342,339.43Z" style="fill:rgb(36,35,36);fill-opacity:0.06;"/>
                <path d="M529.268,523.861C529.754,523.881 529.957,522.976 530.443,522.996C530.872,523.013 530.909,523.801 531.314,523.945C531.665,524.07 532.03,523.684 532.402,523.692C533.842,523.723 533,524.414 532.378,525.722C531.228,524.976 529.52,524.005 529.268,523.861Z" style="fill:rgb(79,66,47);fill-opacity:0.14;"/>
                <path d="M731.819,463.4C732.705,464.166 734.279,463.86 733.142,468.593C732.337,465.965 732.181,466.089 731.819,463.4Z" style="fill:rgb(204,152,22);fill-opacity:0.09;"/>
                <path d="M674.619,564.778C674.334,565.125 675.061,566.806 669.544,566.592C671.969,565.369 671.882,565.241 674.619,564.778Z" style="fill:rgb(198,147,19);fill-opacity:0.11;"/>
                <path d="M548.723,300.158C550.164,300.784 550.098,300.748 551.566,301.197C548.192,303.477 548.048,301.78 548.068,301.5C548.102,301.003 548.689,300.655 548.723,300.158Z" style="fill:rgb(71,71,70);fill-opacity:0.09;"/>
                <path d="M522.013,195.005C522.11,195.57 522.92,195.836 523.017,196.401C523.074,196.731 521.759,198.047 521.387,198.001C520.87,197.939 520.596,197.209 520.079,197.146C520.724,196.432 521.369,195.719 522.013,195.005Z" style="fill:rgb(51,50,52);fill-opacity:0.07;"/>
                <path d="M561.267,524.569C562.667,526.452 563.135,526.226 563.326,528.622C561.42,527.124 561.498,527.019 561.267,524.569Z" style="fill:rgb(216,159,26);fill-opacity:0.08;"/>
                <path d="M555.431,453.462L555.206,454.355C554.451,457.298 554.373,457.222 554.313,457.475L554.137,458.372C553.88,457.76 553.622,457.148 553.365,456.536C553.493,455.955 553.621,455.375 553.749,454.795C554.566,454.04 554.623,454.203 555.431,453.462Z" style="fill:rgb(198,145,23);fill-opacity:0.09;"/>
                <path d="M425.479,444.936C427.144,444.985 428.81,445.034 430.475,445.084C429.755,445.431 428.189,447.774 425.479,444.936Z" style="fill:rgb(56,54,54);fill-opacity:0.34;"/>
                <path d="M592.418,409.243C590.701,410.494 590.702,410.474 590.563,410.594C589.499,411.517 589.353,411.075 588.439,411.437C589.869,409.418 590.009,409.509 592.418,409.243Z" style="fill:rgb(214,157,23);fill-opacity:0.09;"/>
                <path d="M567.328,432.268C566.474,433.944 566.462,433.855 565.3,435.402L565.11,433.283C566.086,432.5 566.046,432.461 567.328,432.268Z" style="fill:rgb(240,179,30);fill-opacity:0.06;"/>
                <path d="M566.487,533.508C569.324,534.046 569.129,535.552 569.333,536.631C567.78,535.156 567.674,535.317 566.487,533.508Z" style="fill:rgb(209,153,24);fill-opacity:0.13;"/>
                <path d="M557.495,370.936C559.45,369.869 559.603,369.823 561.545,370.909C559.467,371.037 559.532,371.011 557.495,370.936Z" style="fill:rgb(63,62,61);fill-opacity:0.25;"/>
                <path d="M577.783,545.176C579.492,546.007 579.362,546.143 580.42,547.709C578.388,547.433 578.525,547.079 577.783,545.176Z" style="fill:rgb(228,171,27);fill-opacity:0.09;"/>
                <path d="M720.619,437.399C720.707,437.467 721.712,438.254 721.712,438.254C722.442,438.624 722.28,438.751 722.898,439.292L722.608,440.456C721.945,439.437 721.282,438.418 720.619,437.399Z" style="fill:rgb(217,162,18);fill-opacity:0.16;"/>
                <path d="M581.514,256.979C581.971,257.295 582.018,256.726 582.443,257.021C582.541,257.088 583.33,257.634 583.312,258.223C583.308,258.367 583.203,257.938 581.526,258.001C579.776,258.067 579.889,257.169 579.594,257.019C580.234,257.006 580.874,256.992 581.514,256.979Z" style="fill:rgb(59,59,59);fill-opacity:0.28;"/>
                <path d="M724.571,444.443C726.716,444.712 726.7,445.38 725.886,447.327C725.204,445.844 725.226,445.896 724.571,444.443Z" style="fill:rgb(191,141,18);fill-opacity:0.09;"/>
                <path d="M551.333,498.518C552.218,500.499 552.238,500.437 552.46,502.522C550.953,500.907 551.459,500.702 551.333,498.518Z" style="fill:rgb(191,143,33);fill-opacity:0.14;"/>
                <path d="M610.476,400.3C609.004,401.065 609.099,401.131 607.377,401.343C607.558,401.162 607.395,400.782 607.576,400.601C607.741,400.435 607.787,400.579 610.476,400.3Z" style="fill:rgb(218,160,25);fill-opacity:0.12;"/>
                <path d="M594.365,557.655C596.003,557.939 595.932,557.994 597.38,558.698L596.398,558.708C595.157,558.682 595.244,558.51 594.365,557.655Z" style="fill:rgb(214,158,23);fill-opacity:0.18;"/>
                <path d="M423.147,352.464C423.985,354.275 424.129,354.262 424.05,354.415C423.709,355.078 423.418,354.765 423.047,355.486C423.08,354.479 423.113,353.471 423.147,352.464Z" style="fill:rgb(63,63,64);fill-opacity:0.3;"/>
                <path d="M558.667,446.612C558.26,447.566 557.854,448.521 557.447,449.475L557.293,448.414L557.382,447.463C557.81,447.179 558.238,446.895 558.667,446.612Z" style="fill:rgb(222,162,22);fill-opacity:0.21;"/>
                <path d="M726.729,448.301L727.545,448.444L727.776,449.344L727.444,450.51C726.847,449.463 726.892,449.522 726.729,448.301Z" style="fill:rgb(246,181,24);fill-opacity:0.24;"/>
                <path d="M714.799,430.208C715.148,430.248 715.022,429.916 715.324,429.95C717.076,430.15 716.523,431.192 716.706,431.382C715.227,430.58 715.201,430.668 714.799,430.208Z" style="fill:rgb(226,170,24);fill-opacity:0.13;"/>
                <path d="M553.822,458.671C553.216,461.249 553.208,461.232 553.179,461.476C553.07,461.104 552.665,460.867 552.556,460.495C552.383,459.909 552.576,459.631 552.618,459.57C553.094,458.884 553.381,459.306 553.822,458.671Z" style="fill:rgb(228,166,26);fill-opacity:0.17;"/>
                <path d="M640.491,569.649C642.499,569.59 644.186,569.648 644.507,569.658C642.485,570.207 642.516,570.206 640.491,569.649Z" style="fill:rgb(184,139,26);fill-opacity:0.15;"/>
                <path d="M672.524,400.31C674.223,400.52 674.256,400.367 675.536,401.444C674.82,401.304 674.861,401.258 672.524,400.31Z" style="fill:rgb(180,130,19);fill-opacity:0.16;"/>
                <path d="M666.58,567.177C667.955,566.913 667.874,566.901 669.272,567.13C667.915,567.421 667.991,567.417 666.58,567.177Z" style="fill:rgb(222,166,25);fill-opacity:0.11;"/>
                <path d="M722.898,439.292C722.907,439.317 723.315,439.083 723.493,441.502C723.198,441.154 722.903,440.805 722.608,440.456L722.898,439.292Z" style="fill:rgb(149,111,14);fill-opacity:0.09;"/>
                <path d="M731.497,505.5L731.528,506.507L731.548,507.513L730.391,508.446C730.884,506.915 730.979,507.023 731.497,505.5Z" style="fill:rgb(215,154,18);fill-opacity:0.33;"/>
                <path d="M731.703,503.541C731.737,503.854 731.991,504.117 732.024,504.43C732.158,505.668 732.038,506.169 732.003,506.316C731.924,506.648 731.61,506.163 731.528,506.507L731.497,505.5L731.703,503.541Z" style="fill:rgb(187,135,12);fill-opacity:0.23;"/>
                <path d="M727.776,449.344C727.911,449.708 728.046,450.071 728.181,450.435L727.753,451.462L727.444,450.51L727.776,449.344Z" style="fill:rgb(245,184,25);fill-opacity:0.09;"/>
                <path d="M565.11,433.283L565.3,435.402L564.752,435.582C564.785,434.332 564.729,434.409 565.11,433.283Z" style="fill:rgb(176,129,19);fill-opacity:0.06;"/>
                <path d="M555.206,454.355C555.131,456.02 555.081,455.952 554.313,457.475C554.373,457.222 554.451,457.298 555.206,454.355Z" style="fill:rgb(244,177,19);fill-opacity:0.34;"/>
                <path d="M733.502,498.5C733.314,499.673 733.222,499.595 732.453,501.484C732.803,500.489 733.152,499.495 733.502,498.5Z" style="fill:rgb(165,125,20);fill-opacity:0.21;"/>
                <path d="M550.797,495.494C550.976,496.502 551.154,497.51 551.333,498.518C550.931,497.007 550.863,497.065 550.797,495.494Z" style="fill:rgb(184,137,28);fill-opacity:0.18;"/>
                <path d="M621.497,397.469C622.992,397.02 622.931,396.961 624.482,397.153L621.497,397.469Z" style="fill:rgb(191,142,26);fill-opacity:0.19;"/>
                <path d="M656.484,568.812L658.554,568.719C657.549,569.143 657.575,568.991 656.484,568.812Z" style="fill:rgb(199,147,24);fill-opacity:0.18;"/>
            </g>
        </g>
    </g>
</svg>
