<?xml version="1.0" encoding="UTF-8" standalone="no"?>
<!DOCTYPE svg PUBLIC "-//W3C//DTD SVG 1.1//EN" "http://www.w3.org/Graphics/SVG/1.1/DTD/svg11.dtd">
<svg width="100%" height="100%" viewBox="0 0 1254 1254" version="1.1" xmlns="http://www.w3.org/2000/svg" xmlns:xlink="http://www.w3.org/1999/xlink" xml:space="preserve" xmlns:serif="http://www.serif.com/" style="fill-rule:evenodd;clip-rule:evenodd;stroke-linejoin:round;stroke-miterlimit:2;">
    <g transform="matrix(1,0,0,1,-12117,0)">
        <rect id="globicono12" x="12117" y="0" width="1254" height="1254" style="fill:none;"/>
        <g id="globicono121" serif:id="globicono12">
            <g id="ChatGPT-Image-5-jun-2026--10_45_45.png" serif:id="ChatGPT Image 5 jun 2026, 10_45_45.png" transform="matrix(2.103819,0,0,2.103819,11658.250355,-93.520167)">
                <path d="M325.567,172.721C328.609,172.251 328.625,172.106 425.5,172.139C449.338,172.14 456.57,172.102 467.501,172.147C507.502,172.14 547.503,172.133 587.504,172.126C638.338,172.186 638.348,171.895 642.383,172.92C644.966,173.777 644.92,173.675 647.389,174.705C660.034,182.559 658.068,187.969 658.076,230.499C658.081,260.57 658.535,261.463 656.605,261.898C656.252,261.978 655.874,261.879 655.52,261.959L652.495,261.931C641.758,262.329 641.239,261.353 641.233,259.509C641.194,248.444 641.305,248.508 641.268,237.5L641.269,231.501L641.266,226.5L641.289,220.5C641.266,213.444 641.287,213.5 641.284,206.498L641.271,200.5L641.237,195.503C641.214,192.367 641.453,192.41 640.634,189.426C637.823,186.179 636.27,187.044 626.5,187.02C612.025,186.627 612.119,187.08 445.499,187.014C409.391,186.417 340.635,186.889 331.517,186.951C328.687,186.971 327.563,188.325 327.43,188.421C325.266,190.923 326.026,191.23 325.709,194.503L325.699,200.498L325.707,205.503C325.693,225.006 325.757,224.932 325.726,244.498C325.718,251.006 325.736,250.925 325.714,257.497C325.721,261.497 325.785,297.482 325.724,307.5C325.721,314.67 325.77,337.158 325.737,344.498C325.741,349.165 325.745,353.832 325.749,358.499C325.942,363.127 325.619,363.13 326.39,364.647C342.348,365.548 503.218,364.736 524.492,365.049C529.495,365.123 532.667,364.004 532.732,367.493C532.875,375.137 533.449,379.705 530.467,380.123C529.776,380.221 529.771,380.118 489.507,380.123L485.501,380.126C452.501,380.124 419.501,380.122 386.5,380.12C383.167,380.12 379.834,380.12 376.5,380.12C363.499,380.119 350.499,380.118 337.498,380.116C335.166,380.117 332.834,380.119 330.502,380.12C294.566,380.128 293.77,379.807 293.345,381.458C292.616,384.287 294.19,393.55 298.686,399.362C305.106,407.66 311.555,408.576 315.426,409.824C334.722,410.58 334.695,409.967 393.502,410.156L394.492,410.152C397.497,410.153 400.502,410.153 403.507,410.154L404.496,410.158C422.204,410.119 422.152,410.085 442.505,410.147L443.495,410.146C453.533,410.12 453.476,410.109 463.506,410.14L464.493,410.14C472.553,410.121 472.473,410.117 480.5,410.138C529.838,410.081 529.893,409.915 532.317,410.659C533.061,413.516 532.483,423.349 532.418,424.45C530.575,425.653 530.111,425.156 529.5,425.238C311.405,424.964 311.282,425.745 304.611,424.096C302.641,423.418 300.672,422.74 298.703,422.063C298.039,421.728 295.468,420.434 290.853,417.07C290.166,416.443 289.479,415.817 288.792,415.19C287.81,414.19 286.829,413.19 285.847,412.19C285.438,411.622 285.369,411.76 284.937,411.159C284.771,410.929 284.79,410.941 282.953,408.219C279.469,402.556 278.626,399.912 277.613,396.457C275.513,388.313 273.707,369.262 278.738,365.889C282.54,363.341 308.178,367.025 308.939,363.614C309.211,362.398 309.087,242.99 309.076,232.501C309.038,195.664 307.963,195.512 310.791,184.614C311.508,183.35 312.224,182.086 312.941,180.822C318.351,174.879 318.612,175.044 325.567,172.721Z" style="fill:rgb(38,39,38);fill-opacity:0.99;"/>
                <path d="M530.448,433.358C532.495,433.727 532.43,433.498 534.484,433.179C547.455,429.982 562.388,433.467 562.503,433.485C565.219,433.608 565.203,433.612 565.444,433.61C566.121,433.967 566.799,434.325 567.476,434.682C569.913,435.432 572.08,436.348 574.513,436.484C575.263,437.056 575.292,436.999 582.75,441.006C608.808,455.006 613.298,474.031 618.012,479.826C617.876,480.771 617.798,481.321 620.44,491.498L620.567,492.488C622.991,515.293 617.661,525.248 611.801,535.659C605.835,546.258 597.881,551.443 596.913,552.923C595.962,554.376 596.05,554.504 595.56,554.633C593.922,555.063 587.03,560.245 585.304,561.128C584.602,561.487 580.715,563.475 576.327,565.204C570.359,567.556 569.842,565.971 564.221,569.035C563.959,569.177 563.797,568.355 560.563,569.745C559.541,569.709 558.519,569.673 557.498,569.637C555.869,569.74 554.24,569.843 552.611,569.946C552.212,569.952 549.501,569.991 547.622,570.203C543.965,569.713 538.572,569.745 536.502,569.653L535.533,569.774C533.27,568.538 533.202,568.517 530.651,569.185C525.764,566.638 525.149,568.179 520.529,565.237C518.007,564.163 518.049,564.313 515.466,563.566C515.311,563.48 514.288,562.911 513.424,562.702C513.172,562.513 512.73,562.853 512.479,562.663C511.801,562.152 512.266,561.873 511.602,561.329C511.459,561.211 511.437,561.284 509.375,560.721C509.111,560.543 503.134,557.55 498.676,553.251C495.337,550.03 495.091,550.401 491.839,547.153C489.803,545.119 490.48,544.658 488.32,542.738C487.52,541.391 487.551,541.451 486.343,540.593C486.007,540.284 485.672,539.974 485.336,539.665C485.317,539.511 485.097,537.734 485.097,537.734C484.767,537.428 484.635,537.99 484.287,537.583C483.945,537.183 484.541,537.082 484.171,536.65C481.593,532.907 481.667,532.867 481.431,532.551C481.378,532.301 481.041,530.704 480.376,529.531C480.208,529.099 480.04,528.668 479.872,528.236C479.343,527.333 478.814,526.43 478.286,525.527C477.892,521.896 476.828,522.195 476.31,518.546L476.364,517.518C476.204,516.793 476.044,516.067 475.884,515.342C475.645,513.467 475.156,511.816 475.067,511.516C474.58,509.545 474.579,509.597 474.312,507.545C475.158,502.01 474.39,495.475 474.268,494.434L474.806,492.525C475.867,488.998 476.206,489.114 476.198,485.411C476.705,482.707 480.264,471.657 481.768,469.583C482.428,468.465 483.146,467.474 483.275,467.297C484.77,465.51 484.261,465.12 484.431,464.483C484.816,463.045 488.621,462.213 489.325,457.436C489.461,457.405 491.023,457.056 491.023,457.056C491.296,456.57 491.171,455.925 491.444,455.439C498.447,448.629 498.704,448.961 499.253,448.318C500.562,447.529 500.534,447.548 501.394,446.308C501.791,446.075 502.188,445.843 502.584,445.61C503.691,445.315 503.682,445.418 504.651,444.765C505.616,444.012 505.604,444.01 505.693,443.952C506.115,443.676 506.104,443.842 506.541,443.557C507.473,442.872 507.453,443.014 508.432,442.301C511.908,440.544 511.528,440.062 511.831,439.927C514.475,438.759 514.475,438.978 514.679,438.846C517.21,437.199 526.443,434.735 527.49,434.456C528.476,434.09 529.462,433.724 530.448,433.358Z" style="fill:rgb(254,187,0);fill-opacity:0.99;"/>
                <path d="M537.456,446.065C597.493,435.487 635.004,512.349 581.3,547.182C564.809,557.878 540.753,559.049 523.385,551.802C473.299,530.903 477.832,457.619 537.456,446.065Z" style="fill:rgb(254,252,250);fill-opacity:0.99;"/>
                <path d="M640.5,272.514C688.085,272.169 690.307,272.538 694.575,273.245C694.922,273.358 696.929,273.513 701.313,275.835C703.078,276.844 703.069,276.834 703.219,276.925C703.488,277.088 703.385,277.136 703.645,277.293C704.568,278.058 705.49,278.823 706.413,279.587C711.724,285.562 711.186,285.915 713.3,291.543C714.412,299.467 713.862,299.428 713.882,307.501C713.883,312.835 713.884,318.168 713.885,323.501C713.883,327.501 713.882,331.5 713.881,335.5L713.878,336.5C713.878,350.5 713.879,364.5 713.88,378.501L713.872,380.502C713.872,391.168 713.872,401.834 713.872,412.5C713.878,418.5 713.883,424.501 713.889,430.501L713.886,434.498C713.887,437.5 713.888,440.502 713.89,443.504C713.887,447.17 713.884,450.836 713.882,454.502C713.883,457.169 713.884,459.836 713.884,462.502C713.892,468.836 713.899,475.169 713.906,481.502C713.841,496.985 714.532,498.604 706.16,508.116C704.573,509.177 702.986,510.238 701.4,511.299C697.729,512.706 697.975,513.599 690.506,513.952C690.454,513.954 690.506,513.953 684.506,513.962C672.772,513.981 667.942,514.029 666.501,514.044C665.503,514.014 664.505,513.984 663.506,513.954C654.986,514.092 655.049,513.994 646.497,513.963C638.534,513.968 638.572,513.998 636.507,513.93C633.528,514.029 633.459,514.474 630.735,513.263C630.64,512.676 630.545,512.088 630.451,511.501C630.434,510.781 630.407,509.585 630.421,502.495C630.428,498.786 632.028,499.115 632.487,498.901C690.661,498.914 690.842,499.087 694.333,497.271C695.897,495.772 696.035,496.003 697.098,494.267C698.554,491.888 698.346,491.663 698.367,329.5C698.371,295.44 700.533,287.981 686.489,287.895C588.03,287.289 583.458,287.292 574.499,287.296C569.836,287.298 566.267,290.852 565.42,292.45C562.669,297.639 565.089,393.149 564.032,424.358C561.364,425.521 556.408,424.674 550.491,424.903C546.841,425.044 548.382,423.127 548.006,419.496C547.845,415.506 547.923,415.577 547.917,411.498C547.908,407.831 547.9,404.164 547.891,400.498L547.888,399.497C547.886,395.831 547.885,392.164 547.883,388.497L547.88,387.499C547.877,377.832 547.874,368.165 547.871,358.498L547.87,357.499C547.871,350.499 547.871,343.499 547.871,336.499L547.872,335.5C547.872,331.833 547.872,328.166 547.872,324.499C547.871,319.166 547.87,313.833 547.868,308.5C547.893,297.448 546.988,297.335 549.994,286.752L551.318,284.405C554.547,279.396 557.435,276.141 566.434,273.288C568.439,272.942 568.387,272.305 640.5,272.514Z" style="fill:rgb(39,39,39);fill-opacity:0.99;"/>
                <path d="M541.498,526.909C540.086,526.552 536.676,525.687 526.771,516.205C517.568,507.396 511.115,503.636 513.831,498.673C519.944,487.5 531.164,502.796 539.652,509.291C541.642,510.813 543.732,507.168 544.432,506.435C546.778,503.981 560.88,489.229 573.061,475.097C581.223,465.627 591.038,475.963 583.17,484.185C575.036,492.685 558.527,511.802 551.821,518.796C547.136,523.681 548.111,525.297 541.498,526.909Z" style="fill:rgb(254,187,0);fill-opacity:1;"/>
                <path d="M657.139,304.46C655.816,309.602 653.889,308.736 628.5,308.696C611.461,308.669 606.488,310.697 606.933,300.528C607.19,294.658 610.069,295.787 642.499,295.771C646.954,295.768 653.665,295.378 655.312,296.738C657.823,298.811 657.162,301.548 657.139,304.46Z" style="fill:rgb(37,38,38);fill-opacity:1;"/>
                <path d="M646.497,513.963C655.049,513.994 654.986,514.092 663.506,513.954C661.558,515.944 661.342,515.52 659.487,516.11C657.924,515.902 657.956,516.018 656.55,516.688C654.419,516.307 654.654,515.789 652.581,515.16C651.089,514.707 651.054,515.515 649.59,515.046C649.124,514.897 648.967,514.21 648.501,514.06C647.833,514.028 647.165,513.995 646.497,513.963Z" style="fill:rgb(100,89,71);fill-opacity:0.04;"/>
                <path d="M567.57,429.448C572.684,433.872 572.835,433.719 574.513,436.484C572.08,436.348 569.913,435.432 567.476,434.682C567.524,433.123 567.597,433.179 567.216,431.634C567.334,430.905 567.452,430.177 567.57,429.448Z" style="fill:rgb(220,188,120);fill-opacity:0.09;"/>
                <path d="M474.268,494.434C474.39,495.475 475.158,502.01 474.312,507.545C473.72,506.99 471.67,505.068 473.111,497.468C473.431,495.783 473.192,495.734 474.268,494.434Z" style="fill:rgb(231,175,30);fill-opacity:0.07;"/>
                <path d="M684.506,513.962C684.17,513.998 683.834,514.033 683.498,514.068C681.516,514.336 679.48,513.806 677.498,514.074C675.967,514.282 676.769,515.494 675.262,516.005C675.043,516.08 674.815,515.705 674.601,515.793C672.1,516.815 671.922,517.803 669.743,516.145C667.787,514.655 668.665,514.136 668.495,514.038C667.92,513.705 667.076,514.377 666.501,514.044C667.942,514.029 672.772,513.981 684.506,513.962Z" style="fill:rgb(57,53,46);fill-opacity:0.28;"/>
                <path d="M376.5,380.12C379.834,380.12 383.167,380.12 386.5,380.12L386.029,381.5C385.783,381.543 385.745,381.985 385.5,382.029C381.224,382.786 381.234,382.549 376.965,381.5L376.5,380.12Z" style="fill:rgb(64,64,62);fill-opacity:0.06;"/>
                <path d="M633.469,491.901C632.441,491.841 632.524,491.853 631.506,491.786C629.732,491.668 630.1,490.996 629.5,490.658L629.063,489.5L628.5,488.888L628.284,487.5C628.519,487.428 630.401,484.62 631.79,487.432C632.307,488.478 632.287,488.4 632.297,488.51C632.449,490.071 631.535,489.439 631.568,489.534C631.718,489.969 632.216,490.188 632.569,490.482C633.575,491.322 633.2,491.477 633.469,491.901Z" style="fill:rgb(253,252,252);fill-opacity:0.99;"/>
                <path d="M692.378,278.028C692.427,278.361 692.908,281.578 694.2,281.82C696.503,282.251 696.58,282.655 696.421,284.446C696.19,287.052 693.445,283.789 693.277,283.59C692.375,282.517 692.284,282.685 691.365,281.584C690.676,280.757 691.211,280.671 692.378,278.028Z" style="fill:rgb(40,41,40);fill-opacity:1;"/>
                <path d="M547.917,411.498C547.923,415.577 547.845,415.506 548.006,419.496C547.972,420.165 547.938,420.833 547.904,421.502C547.432,420.836 546.96,420.17 546.488,419.504C546.346,417.903 546.196,417.99 546.386,416.497C546.52,415.443 546.14,415.57 545.858,414.51C545.914,413.84 545.97,413.17 546.027,412.5L547.917,411.498Z" style="fill:rgb(88,76,56);fill-opacity:0.11;"/>
                <path d="M396.545,407.892C397.7,408.171 397.643,408.455 400.503,408.309C401.059,408.452 400.897,407.801 401.448,407.943C401.448,407.943 403.342,409.977 403.507,410.154C400.502,410.153 397.497,410.153 394.492,410.152C394.667,409.982 394.615,409.989 396.545,407.892Z" style="fill:rgb(62,62,59);fill-opacity:0.07;"/>
                <path d="M282.953,408.219C284.79,410.941 284.771,410.929 284.937,411.159C285.369,411.76 285.438,411.622 285.847,412.19C284.9,412.785 285.349,413.195 284.421,413.778C284.354,413.82 284.335,413.832 283.443,413.699C282.384,413.542 282.219,413.594 282.069,412.556C281.735,410.258 282.036,410.309 282.953,408.219Z" style="fill:rgb(49,49,48);fill-opacity:0.05;"/>
                <path d="M330.502,380.12C332.834,380.119 335.166,380.117 337.498,380.116L337.026,381.5C335.325,381.803 332.666,384.252 330.502,380.12Z" style="fill:rgb(63,63,62);fill-opacity:0.07;"/>
                <path d="M298.703,422.063C300.672,422.74 302.641,423.418 304.611,424.096L303.5,424.744C303.051,424.802 297.728,425.49 297.975,423.5C298.042,422.967 298.637,422.596 298.703,422.063Z" style="fill:rgb(50,51,51);fill-opacity:0.09;"/>
                <path d="M327.43,188.421C327.615,188.839 329.264,188.249 328.31,190.409C328.239,190.572 328.432,190.541 327.617,192.525C326.906,194.255 325.877,194.329 325.709,194.503C326.026,191.23 325.266,190.923 327.43,188.421Z" style="fill:rgb(56,55,55);fill-opacity:0.05;"/>
                <path d="M325.749,358.499C328.616,360.984 328.829,361.749 326.39,364.647C325.619,363.13 325.942,363.127 325.749,358.499Z" style="fill:rgb(51,49,49);fill-opacity:0.07;"/>
                <path d="M515.466,563.566C518.049,564.313 518.007,564.163 520.529,565.237C517.683,567.681 516.355,567.209 515.466,563.566Z" style="fill:rgb(224,170,34);fill-opacity:0.06;"/>
                <path d="M443.496,187.022C441.511,189.031 441.554,189.054 441.352,189.192C437.989,191.482 438.737,187.29 439.499,187.051C440.771,186.651 442.225,187.421 443.496,187.022Z" style="fill:rgb(26,26,26);fill-opacity:0.08;"/>
                <path d="M485.501,380.126L489.507,380.123C490.768,384.634 486.175,381.561 485.987,381.5L485.501,380.126Z" style="fill:rgb(66,66,63);fill-opacity:0.05;"/>
                <path d="M674.238,398.509C676.256,398.895 677.288,399.24 675.927,400.843C674.965,401.977 674.812,402.256 673.568,401.473C673.002,401.117 672.994,400.993 673.459,400.486C673.574,400.36 673.5,400.336 674.238,398.509Z" style="fill:rgb(252,252,253);fill-opacity:1;"/>
                <path d="M630.735,513.263C633.459,514.474 633.528,514.029 636.507,513.93C636.474,513.934 636.528,514.026 636.494,514.031C635.305,514.178 635.552,514.533 634.531,515.077C633.121,515.18 628.767,515.736 629.444,514.515C629.735,513.991 630.444,513.787 630.735,513.263Z" style="fill:rgb(94,78,47);fill-opacity:0.22;"/>
                <path d="M325.699,200.498C327.685,202.187 329.037,202.349 327.378,204.413C326.962,204.932 326.123,204.985 325.707,205.503L325.699,200.498Z" style="fill:rgb(52,52,52);fill-opacity:0.09;"/>
                <path d="M530.448,433.358C530.948,432.519 531.996,428.882 534.484,433.179C532.43,433.498 532.495,433.727 530.448,433.358Z" style="fill:rgb(202,153,39);fill-opacity:0.04;"/>
                <path d="M288.792,415.19C289.479,415.817 290.166,416.443 290.853,417.07C289.934,417.66 290.495,418.127 289.574,418.718C289.494,418.769 288.985,419.097 288.386,418.654C286.725,417.425 287.975,417.097 288.792,415.19Z" style="fill:rgb(57,56,56);fill-opacity:0.07;"/>
                <path d="M684.506,513.962C690.506,513.953 690.454,513.954 690.506,513.952C689.495,514.056 689.569,514.023 689.495,514.056C686.517,515.386 686.271,515.849 683.498,514.068C683.834,514.033 684.17,513.998 684.506,513.962Z" style="fill:rgb(57,54,49);fill-opacity:0.23;"/>
                <path d="M551.318,284.405L549.994,286.752C549.577,286.186 548.673,286.122 548.255,285.555C547.572,284.628 548.53,283.012 551.318,284.405Z" style="fill:rgb(57,58,57);fill-opacity:0.05;"/>
                <path d="M509.375,560.721C511.437,561.284 511.459,561.211 511.602,561.329C512.266,561.873 511.801,562.152 512.479,562.663C512.73,562.853 513.172,562.513 513.424,562.702C511.209,563.343 510.128,564.67 509.923,562.345C509.839,561.383 509.998,561.383 509.375,560.721Z" style="fill:rgb(208,157,31);fill-opacity:0.06;"/>
                <path d="M530.651,569.185C533.202,568.517 533.27,568.538 535.533,569.774C534.843,570.063 534.153,570.351 533.462,570.64C533.25,570.502 533.208,570.604 530.651,569.185Z" style="fill:rgb(228,173,38);fill-opacity:0.09;"/>
                <path d="M532.418,424.45C533.363,427.219 532.582,427.198 532.376,427.136C532.112,427.057 532.163,426.996 529.5,425.238C530.111,425.156 530.575,425.653 532.418,424.45Z" style="fill:rgb(101,81,42);fill-opacity:0.18;"/>
                <path d="M552.611,569.946C549.284,572.668 548.946,571.03 547.622,570.203C549.501,569.991 552.212,569.952 552.611,569.946Z" style="fill:rgb(222,168,34);fill-opacity:0.18;"/>
                <path d="M475.067,511.516C475.156,511.816 475.645,513.467 475.884,515.342C475.75,515.197 474.209,513.531 474.209,513.531C474.198,513.357 474.273,513.382 475.067,511.516Z" style="fill:rgb(228,171,31);fill-opacity:0.11;"/>
                <path d="M504.651,444.765C503.682,445.418 503.691,445.315 502.584,445.61C502.941,444.765 502.408,444.737 502.797,443.817C503.341,442.53 503.443,444.147 504.651,444.765Z" style="fill:rgb(101,74,12);fill-opacity:0.05;"/>
                <path d="M501.394,446.308C500.534,447.548 500.562,447.529 499.253,448.318C499.553,446.659 499.674,446.554 501.394,446.308Z" style="fill:rgb(239,181,37);fill-opacity:0.05;"/>
                <path d="M484.171,536.65C484.541,537.082 483.945,537.183 484.287,537.583C484.635,537.99 484.767,537.428 485.097,537.734C485.097,537.734 485.317,539.511 485.336,539.665C484.001,538.488 483.805,538.431 484.171,536.65Z" style="fill:rgb(216,159,26);fill-opacity:0.09;"/>
                <path d="M486.343,540.593C487.551,541.451 487.52,541.391 488.32,542.738C487.245,542.315 487.27,542.411 486.406,541.536L486.343,540.593Z" style="fill:rgb(242,176,27);fill-opacity:0.15;"/>
                <path d="M491.444,455.439C491.171,455.925 491.296,456.57 491.023,457.056C491.023,457.056 489.461,457.405 489.325,457.436C490.313,456.334 490.255,456.369 491.444,455.439Z" style="fill:rgb(214,156,21);fill-opacity:0.13;"/>
                <path d="M480.376,529.531C481.041,530.704 481.378,532.301 481.431,532.551C480.167,531.295 479.869,531.29 480.376,529.531Z" style="fill:rgb(193,137,20);fill-opacity:0.16;"/>
                <path d="M483.275,467.297C483.146,467.474 482.428,468.465 481.768,469.583C481.876,468.01 481.841,467.83 483.275,467.297Z" style="fill:rgb(208,148,17);fill-opacity:0.13;"/>
                <path d="M478.286,525.527C478.814,526.43 479.343,527.333 479.872,528.236C479.513,527.851 478.826,527.901 478.467,527.515C478.359,527.398 478.454,527.368 478.286,525.527Z" style="fill:rgb(218,160,26);fill-opacity:0.24;"/>
                <path d="M562.503,433.485C564.058,432.915 564.147,432.649 565.444,433.61C565.203,433.612 565.219,433.608 562.503,433.485Z" style="fill:rgb(234,182,67);fill-opacity:0.17;"/>
                <path d="M557.498,569.637C558.519,569.673 559.541,569.709 560.563,569.745C559.034,570.415 559.056,570.084 557.498,569.637Z" style="fill:rgb(183,130,16);fill-opacity:0.13;"/>
                <path d="M535.533,569.774L536.502,569.653C535.489,569.982 534.476,570.311 533.462,570.64C534.153,570.351 534.843,570.063 535.533,569.774Z" style="fill:rgb(171,130,24);fill-opacity:0.04;"/>
            </g>
        </g>
    </g>
</svg>
