<?xml version="1.0" encoding="UTF-8" standalone="no"?>
<!DOCTYPE svg PUBLIC "-//W3C//DTD SVG 1.1//EN" "http://www.w3.org/Graphics/SVG/1.1/DTD/svg11.dtd">
<svg width="100%" height="100%" viewBox="0 0 446 681" version="1.1" xmlns="http://www.w3.org/2000/svg" xmlns:xlink="http://www.w3.org/1999/xlink" xml:space="preserve" xmlns:serif="http://www.serif.com/" style="fill-rule:evenodd;clip-rule:evenodd;stroke-linejoin:round;stroke-miterlimit:2;">
    <g transform="matrix(1,0,0,1,-404.428665,-363.862166)">
        <g id="Fondo" transform="matrix(1.224609,0,0,1.224609,0,0)">
            <path d="M330.73,430.502C330.826,423.268 328.654,422.676 332.842,416.768C333.573,415.735 336.564,412.98 340.51,412.584C343.127,412.321 395.393,412.427 397.499,412.517C406.572,412.908 418.828,426.885 475.355,475.663C481.978,481.378 474.578,482.129 429.445,524.439C409.144,543.47 405.633,542.657 405.594,557.501C405.479,600.9 404.551,604.991 411.475,604.295C416.13,603.827 485.646,535.605 517.879,505.901C614.688,416.687 613.473,412.457 626.5,412.44C686.489,412.361 687.04,412.325 690.5,415.5C694.829,419.471 694.052,420.545 693.96,522.501C693.864,628.43 696.857,633.406 682.006,650.058C681.729,650.368 593.502,730.582 585.563,737.57C575.98,746.004 574.364,740.695 565.245,731.762C546.866,713.756 539.399,710.19 546.591,703.597C548.051,702.26 556.997,694.06 564.394,686.404C571.325,679.229 566.64,653.286 568.16,639.433C568.652,634.945 612.725,598.127 615.156,594.264C619.259,587.744 617.097,521.829 616.317,520.603C611.17,512.504 598.884,527.3 597.034,529.01C586.02,539.195 460.587,655.19 459.574,656.554C455.573,661.944 458.793,732.856 457.713,740.526C456.832,746.78 450.909,746.026 449.577,745.318C444.256,742.492 386.731,689.6 381.355,684.657C349.559,655.422 331.092,646.032 330.721,621.496C330.573,611.713 330.717,445.782 330.73,430.502Z"/>
            <path d="M522.454,297.788C577.89,310.017 577.945,355.101 577.674,367.506C576.684,412.893 519.506,448.062 474.72,417.18C438.917,392.492 438.613,338.633 468.117,314.009C491.956,294.113 508.703,296.877 522.454,297.788Z"/>
            <path d="M525.93,737.498C526.54,748.623 534.704,744.904 552.508,745.259C561.812,745.444 558.523,771.185 556.215,773.136C551.819,776.851 528.354,769.737 528.132,779.482C527.961,786.991 526.876,794.153 533.504,794.326C546.753,794.672 558.113,791.883 558.156,800.504C558.232,815.567 560.425,823.508 550.502,823.645C539.566,823.796 528.554,821.28 528.164,829.481C526.577,862.903 483.596,855.882 483.512,834.5C483.463,822.101 482.936,687.546 483.566,679.509C483.977,674.249 501.175,659.228 536.393,625.386C541.742,620.245 550.236,611.145 550.384,614.528C550.979,628.154 550.342,662.341 550.264,666.498C550.136,673.396 549.233,673.482 530.424,691.415C524.898,696.684 525.85,697.658 525.93,737.498Z" style="fill:rgb(245,148,25);"/>
        </g>
    </g>
</svg>
