<?xml version="1.0" encoding="UTF-8" standalone="no"?>
<!DOCTYPE svg PUBLIC "-//W3C//DTD SVG 1.1//EN" "http://www.w3.org/Graphics/SVG/1.1/DTD/svg11.dtd">
<svg width="100%" height="100%" viewBox="0 0 1254 1254" version="1.1" xmlns="http://www.w3.org/2000/svg" xmlns:xlink="http://www.w3.org/1999/xlink" xml:space="preserve" xmlns:serif="http://www.serif.com/" style="fill-rule:evenodd;clip-rule:evenodd;stroke-linejoin:round;stroke-miterlimit:2;">
    <g transform="matrix(1,0,0,1,-9509,0)">
        <rect id="globicono10" x="9509" y="0" width="1254" height="1254" style="fill:none;"/>
        <g id="globicono101" serif:id="globicono10">
            <g id="ChatGPT-Image-5-jun-2026--10_43_24.png" serif:id="ChatGPT Image 5 jun 2026, 10_43_24.png" transform="matrix(2.035022,0,0,2.035022,9080.139377,-86.193455)">
                <path d="M460.529,132.59C483.918,128.465 513.274,124.699 557.418,135.835C576.227,141.801 603.658,149.738 640.198,180.88C641.238,181.817 642.279,182.754 643.32,183.69C645.268,185.496 656.997,196.363 666.127,207.817C672.127,215.721 672.077,215.741 672.609,216.418C675.983,221.271 675.988,221.217 676.254,221.652C690.639,242.538 698.064,264.399 699.182,267.61C701.137,273.631 702.001,276.772 702.222,277.576C706.513,291.902 705.975,294.589 707.838,303.459L708.354,308.511C708.572,311.179 708.791,313.847 709.009,316.516C709.275,329.953 709.319,333.892 708.992,337.521C708.954,338.886 708.702,348.138 707.759,354.547C707.102,359.008 708.903,360.788 704.49,361.561C701.519,360.418 701.529,360.454 700.693,360.059C695.236,357.808 695.279,357.832 687.599,355.205C685.315,354.39 684.97,354.689 683.981,352.513C685.014,346.512 684.872,346.591 685.839,340.552C686.549,336.124 685.077,336.575 684.457,335.995L682.498,335.957C626.335,336.054 626.381,335.989 621.502,336.035C618.637,336.367 618.591,336.222 618.411,336.393C617.362,337.392 617.871,337.601 617.15,354.46C616.17,357.898 615.687,357.642 612.403,359.211C610.302,360.056 606.981,361.344 606.508,361.527L605.301,362.034C598.79,364.553 598.982,364.837 592.497,367.368C590.939,366.258 591.17,365.939 592.066,359.455C592.432,357.473 592.757,357.543 593.742,341.521C593.884,337.65 594.491,337.466 593.507,336.493C593.507,336.493 589.821,336.074 589.5,336.037C583.438,336.035 583.511,336.032 577.499,335.966C572.966,335.966 573.05,335.958 568.496,336.031L567.497,336.034C565.164,336.005 562.83,335.977 560.497,335.949L557.496,336.026C552.465,336.036 552.549,335.961 547.501,336.043L541.498,336.027C536.93,335.91 537.015,335.954 532.497,335.959C518.885,335.954 518.647,335.968 517.445,336.04C514.846,336.193 515.318,337.594 515.335,367.501C515.354,401.304 514.753,402.868 517.529,403.005C529.483,403.596 529.482,403.254 530.521,403.306L532.469,403.685C541.947,404.325 541.979,403.723 551.272,405.886C552.052,407.781 551.851,407.801 550.983,409.735C544.633,423.881 545.248,425.567 541.546,425.277C533.987,424.38 534.073,424.273 526.489,423.837L524.485,423.747C518.654,423.211 516.165,420.721 515.369,426.502C515.265,462.786 515.336,462.756 515.389,471.499L515.393,472.501C515.298,478.91 515.262,500.926 515.448,501.521C515.943,503.104 517.133,503.416 534.734,493.909C535.388,493.554 536.043,493.199 536.697,492.845C540.651,490.501 542.17,488.107 543.715,492.432C544.151,493.653 545.161,496.248 545.289,496.578C547.32,501.776 549.808,509.011 552.082,513.658C552.763,515.195 552.624,515.394 554.014,517.736L554.703,519.43C555.06,520.774 555.72,520.987 554.363,522.303C547.057,525.012 537.023,526.245 535.489,526.434C534.147,526.638 532.805,526.841 531.463,527.045C526.899,527.727 526.929,527.733 526.534,527.781C524.465,528.034 524.507,527.793 522.46,528.043C519.473,528.158 516.486,528.273 513.498,528.388L512.499,528.398C506.956,528.455 507.017,528.402 501.502,528.369C500.142,528.319 489.737,527.941 484.544,527.081C478.676,526.302 478.763,526.337 476.426,525.971C460.812,523.278 460.893,523.181 445.438,518.641C443.825,518.146 442.212,517.651 440.599,517.157C431.6,513.61 431.592,513.846 422.715,510.091C422.244,509.832 421.528,509.44 416.633,507.24C416.499,507.176 416.395,507.06 416.261,506.996C412.35,505.137 412.494,505.057 408.691,503.18C405.094,501.28 402.224,499.555 401.672,499.222C397.044,496.47 397.077,496.451 396.675,496.215C394.902,495.176 394.911,495.187 394.76,495.093C394.164,494.724 394.269,494.683 393.639,494.293C391.752,493.129 389.152,491.369 388.767,491.108L387.658,490.283C387.42,490.12 387.536,490.124 384.721,488.201C381.811,486.075 377.419,482.637 376.791,482.144C372.683,478.613 365.327,473.331 351.885,459.125C350.833,458.012 345.211,452.071 339.704,444.353C330.838,433.288 322.979,418.725 321.715,416.383C321.467,415.985 321.49,415.999 318.554,410.473C317.361,407.825 317.37,407.842 317.265,407.614C316.986,407.004 316.954,407.084 316.65,406.421C312.576,396.955 312.462,397.075 308.879,387.376L307.806,384.389C305.794,377.358 305.655,377.458 303.964,370.405C303.176,367.438 303.2,367.512 302.627,364.481C301.489,357.238 301.139,356.865 300.95,355.453C299.234,342.625 299.917,342.574 299.765,341.461C297.163,322.433 301.211,296.134 301.84,293.574L302.782,287.555C304.346,281.287 306.572,267.731 316.117,246.336C320.481,237.442 320.421,237.461 321.891,234.711C327.173,224.62 337.283,210.698 338.74,208.691C341.698,204.887 344.45,201.541 344.955,200.927C345.589,200.223 346.222,199.519 346.856,198.815C358.167,186.004 370.587,175.704 372.804,173.866C375.014,172.232 375.002,172.245 375.191,172.101C376.586,171.041 376.458,171.004 377.841,169.953C378.386,169.536 381.808,166.917 384.733,164.834C385.607,164.268 390.476,161.115 395.736,157.875C400.406,155.183 400.352,155.227 400.75,154.992C402.71,153.834 406.179,152.013 406.656,151.763L408.614,150.748C419.53,145.504 419.372,145.276 430.676,140.926C432.659,140.227 434.643,139.527 436.626,138.828C445.138,136.211 445.14,136.487 453.598,133.953C457.101,133.302 457.04,133.297 460.529,132.59ZM365.678,220.087C365.557,220.425 364.421,223.58 365.441,224.559C367.652,226.682 370.291,222.771 370.538,222.404C371.091,222.66 374.58,224.279 377.546,225.407C377.542,225.409 376.066,224.836 376.004,226.5C376.001,226.586 375.99,226.881 376.585,227.407C377.69,228.382 377.503,228.49 378.502,229.498C378.756,229.754 379.213,230.215 382.519,227.456C383.521,227.943 385.498,228.903 395.561,232.351C395.275,232.484 394.955,231.907 394.669,232.04C389.65,234.377 399.905,236.513 400.5,235.975C401.33,235.225 400.707,234.819 401.63,234.114C402.093,233.761 402.057,234.788 402.529,234.428C407.475,235.814 409.032,236.047 408.149,238.372C401.795,255.103 397.175,276.958 395.767,289.519C392.525,313.631 394.779,316 391.478,316.145C390.76,316.177 390.812,316.147 382.498,316.165C381.829,313.457 381.284,313.538 378.545,313.765C377.519,313.85 377.955,314.289 378.5,315.103L379.503,316.165C363.502,316.171 347.501,316.177 331.5,316.182C327.729,316.218 323.984,316.775 324.024,314.553C324.137,308.269 326.688,294.126 327.093,291.422C331.944,274.54 332.71,263.858 348.002,236.229C352.355,228.306 359.223,217.804 360.53,217.637C360.983,217.579 361.203,217.551 365.678,220.087ZM330.496,335.956C331.428,338.755 331.265,338.877 331.5,338.973C331.907,339.139 332.058,338.233 332.469,338.077C333.246,337.783 333.155,338.11 334.478,338.566C338.323,339.889 338.266,336.11 338.499,336.034C339.767,335.623 341.23,336.448 342.498,336.036L343.497,336.035C343.991,336.568 343.273,337.249 345.608,338.315C347.307,339.09 347.261,339.226 347.418,339.193C347.922,339.085 348.584,337.333 350.741,339.238C353.315,341.511 353.135,338.977 355.499,336.03C357.532,335.982 357.453,335.981 359.498,336.039L359.927,337.5C362.224,338.839 361.843,339.681 364.47,339.844L365.46,339.578C367.479,339.893 367.65,340.47 368.502,339.502C368.834,339.124 368.816,338.516 369.148,338.138C371.549,338.027 371.539,338.216 373.293,339.814C374.192,340.633 375.036,339.495 375.083,339.25C375.422,337.488 376.022,338.011 376.982,337.5C379.314,340.391 380.042,338.985 379.914,338.764C378.473,336.271 378.679,336.203 378.502,336.032C378.262,335.799 377.738,336.264 377.498,336.03C388.575,335.913 393.543,334.963 393.657,338.493C393.69,339.492 393.692,348.492 394.93,356.461C394.605,357.111 393.339,356.85 393.015,357.5C392.871,357.788 393.325,357.73 393.312,361.511C393.307,363.025 393.247,362.973 393.76,364.42C394.653,366.942 391.404,368.94 394.11,370.893C395.206,371.684 394.747,371.904 395.025,374.5C395.273,375.293 395.128,375.274 395.5,376.016C395.671,376.358 395.549,376.851 395.824,377.117C395.989,377.276 396.335,376.824 396.5,376.984L397.986,375.409C398.193,376.214 399.792,382.429 400.458,385.511L399.012,386.5C398.765,388.559 398.812,388.476 398.246,390.419C397.518,392.922 400.345,392.64 400.87,393.285C401.129,393.602 400.673,394.314 401.037,394.5C401.611,394.794 402.392,394.063 402.966,394.357C403.265,395.243 404.983,400.338 406.925,405.357C410.391,413.797 412.473,416.808 410.529,417.554C409.543,417.932 408.512,418.185 407.525,418.564L406.22,417.5L405.5,416.78C401.133,418.39 400.788,418.179 400.433,417.961C398.018,416.481 397.877,417.342 397.878,417.549C397.879,417.731 400.362,420.481 400.586,420.729C384.874,425.379 368.97,432.836 366.305,434.085C364.215,435.065 363.348,434.868 354.083,421.809C338.446,399.769 335.545,388.975 332.066,379.65C333.41,376.599 334.674,376.56 333.098,373.635C332.87,373.212 332.302,373.021 332.119,372.576C331.594,371.294 333.145,371.514 333.039,369.398C332.928,367.193 334.585,359.042 332.238,357.934C329.836,356.799 331.409,358.906 331.617,361.541C331.651,361.968 331.991,366.275 331.587,366.888C331.442,367.11 331.373,367.004 328.67,368.464C328.111,365.936 322.071,338.605 324.41,336.388C324.764,336.052 324.83,336.358 330.496,335.956ZM650.717,222.337L649.975,223.5L649.983,224.5C651.008,227.217 650.952,227.223 651.255,227.646C653.894,231.327 655.253,229.527 655.606,229.428L656.781,231.327C656.499,231.777 651.531,237.888 658.362,240.818C660.202,241.608 660.162,240.993 661.988,240.223C670.839,256.367 672.339,262.253 674.348,267.563C672.414,269.315 670.53,269.796 672.84,271.072C674.016,271.721 673.935,271.776 674.5,273.023L675.029,274.5L676.438,273.525C678.771,280.946 678.968,280.835 680.719,288.442C680.576,288.734 681.054,289.106 680.911,289.399C679.659,291.959 674.86,289.95 675.856,292.364C676.283,293.399 678.329,292.327 682.058,293.585C685.158,309.709 685.674,313.268 684.709,315.726L683.5,314.342L682.5,314.824C682.093,314.552 681.474,314.772 681.067,314.5C680.243,313.949 680.455,313.685 679.479,313.387C677.574,312.807 677.381,312.064 676.328,313.176C674.637,314.962 674.019,314.156 672.498,316.155C669.164,316.156 665.83,316.158 662.497,316.159L661.972,315.5C661.494,312.951 661.766,311.23 659.567,312.643C656.638,314.525 659.501,316.17 659.503,316.177C626.196,316.166 626.228,316.296 619.523,316.188C614.576,316.109 620.794,292.136 601.415,238.531C600.228,235.246 603.63,235.504 610.447,233.297C611.131,233.592 611.816,233.887 612.5,234.182C614.675,234.692 615.428,236.459 616.089,234.243C616.155,234.02 616.115,234.029 616.45,231.346C624.193,228.849 629.863,226.737 644.594,219.685C648.178,217.97 648.445,219.095 650.717,222.337ZM439.498,335.959C441.434,336.099 440.596,337.632 442.632,338.165C443.989,338.52 444.05,338.914 445.245,338.118C446.337,337.392 445.573,336.909 446.498,336.04C446.741,335.812 447.255,336.267 447.498,336.039C459.403,336.031 459.34,335.857 470.498,336.032C475.133,335.954 488.901,335.96 490.501,335.961C489.403,340.218 491.741,340.524 495.125,339.493C495.125,359.829 495.124,380.165 495.124,400.5C495.119,404.027 492.562,402.168 484.53,403.688C482.974,403.982 469.497,403.89 451.582,407.834C450.768,407.331 450.313,406.363 449.5,405.859C449.161,405.65 449.089,406.553 444.533,405.434C443.018,405.061 442.763,404.948 442.048,406.368C441.555,407.348 441.575,407.425 441.601,407.52C441.658,407.735 441.741,407.668 443.51,409.535C435.642,411.307 434.069,413.248 432.176,408.628C429.967,403.238 416.738,370.958 416.589,337.505C416.589,337.386 416.585,336.532 417.35,336.229C417.785,336.056 424.849,336.037 425.502,336.035C427.898,339.941 428.293,341.284 432.424,339.256C433.6,338.678 434.015,337.679 434.09,337.5C434.284,337.032 434.069,336.301 434.502,336.038C435.07,335.693 435.928,336.383 436.496,336.038C437.496,336.012 438.497,335.985 439.498,335.959ZM427.385,255.452C431.531,241.9 432.292,241.901 433.481,241.902C436.149,241.904 437.393,243.714 460.452,246.932C470.958,248.398 470.882,248.29 481.479,248.997C487.035,249.367 486.918,249.813 492.491,249.982C496.085,250.091 495.107,254.341 495.114,270.5C495.115,284.5 495.117,298.5 495.118,312.501L494.5,312.107C494.282,312.069 481.792,312.085 492.5,314.01C494.58,314.384 494.02,315.162 494.633,315.628C492.29,316.21 492.345,316.159 441.499,316.179C417.969,316.185 416.811,316.52 416.823,314.503C416.844,310.91 417.742,302.788 418.109,298.473C422.381,299.75 421.225,297.045 420.5,294.99C420.029,294.144 419.559,293.297 419.088,292.45C420.506,283.528 421.164,277.723 425.899,260.606C428.012,259.808 429.871,258.342 430.183,258.096C430.425,257.905 431.447,256.869 427.385,255.452ZM578.419,242.567C576.705,244.706 576.825,245.233 576.883,245.49C577.336,247.487 578.015,247.034 579.918,246.358L580.632,248.458C584.342,258.883 586.841,269.679 587.275,271.552L586.5,271.937C584.614,274.513 582.446,275.539 585.501,276.499C585.766,276.582 585.748,276.568 588.84,277.436C589.457,280.493 596.579,315.803 593.422,316.152C593.301,316.165 522.595,316.164 521.499,316.167C517.329,316.18 515.364,317.661 515.337,313.504C515.305,308.542 514.955,254.582 515.393,251.478C515.637,249.749 516.696,250.184 523.523,249.905L524.043,250.5L524.5,251.957C528.457,251.559 533.963,252.482 535.654,251.836C538.388,250.792 537.722,250.1 538.013,249.5L537.508,248.577C564.085,246.464 573.717,240.92 578.419,242.567ZM463.043,179.188C464.981,176.568 465.026,176.667 467.014,174.099C477.132,161.029 494.623,147.553 495.086,151.582C495.124,151.912 495.138,226.67 495.113,227.483C494.994,231.371 490.386,229.487 485.514,229.266C463.456,228.264 454.584,225.83 442.412,223.79C444.002,221.441 443.924,221.387 444.129,221.253C446.869,219.461 442.597,217.944 441.24,217.397C450.674,195.312 461.243,181.583 461.365,181.407C464.331,187.87 464.081,180.713 464.012,180.5C463.843,179.983 463.211,179.705 463.043,179.188ZM540.706,171.312C540.587,171.821 537.55,175.24 542.5,175.963L543.919,175.182C544.324,175.718 544.347,175.668 549.048,181.836C547.421,184.253 546.024,184.986 548.602,186.321C548.745,186.395 548.739,186.34 550.5,186.977L550.992,187.5L551.01,188.5C551.036,188.967 551.966,189.033 551.992,189.5C552.031,190.207 551.317,190.767 551.175,191.46C550.069,196.884 554.462,190.66 554.629,190.425C557.88,195.844 557.868,195.764 560.867,201.325C562.379,204.317 562.395,204.227 563.859,207.303C563.574,207.899 561.531,207.237 562.295,210.577C562.789,212.735 565.246,213.974 565.5,213.964C565.979,213.945 566.324,213.373 566.803,213.354C569.816,220.296 572.11,221.922 567.57,223.792C561.502,224.672 561.55,224.482 555.576,225.898C555.456,225.82 555.189,223.648 552.498,223.889C552.048,223.929 547.166,224.365 547.082,225.5C547.043,226.012 547.589,226.455 547.55,226.967C541.829,227.854 516.86,230.675 515.769,229.278C515.142,228.476 515.346,226.444 515.33,162.5C515.329,160.183 514.393,149.877 517.39,150.883C519.585,151.62 531.411,160.67 538.391,168.595C538.58,168.809 538.563,168.796 540.706,171.312ZM480.494,424.452C493.976,423.34 495.079,423.271 495.116,425.525C495.124,426.02 495.165,492.637 495.168,498.472C495.17,501.428 492.75,499.529 492.576,499.393C466.553,478.969 442.283,434.292 443.827,431.723C444.584,430.462 465.325,426.462 480.494,424.452ZM430.287,163.047C432.259,162.202 443.953,157.194 455.485,153.866C459.764,152.631 453.873,157.406 453.612,157.617C444.131,165.302 430.217,187.672 428.469,190.483C428.123,190.023 427.393,189.961 427.048,189.5C426.813,189.187 426.702,188.698 426.863,188.343C427.054,187.924 427.816,187.938 427.957,187.5C428.01,187.335 424.422,183.535 424.885,189.505C425.084,192.075 424.894,191.985 424.994,194.5L425.643,195.581C425.385,195.975 425.419,195.947 423.935,198.687C419.541,197.066 420.116,199.357 420.292,199.601C420.424,199.783 420.481,199.682 422.867,200.713C421.226,204.175 421.136,204.074 419.657,207.564C418.755,209.665 418.701,209.531 417.807,211.614C417.707,211.847 417.72,211.832 416.628,214.561C416.447,214.309 417.153,213.947 416.971,213.695C415.922,212.237 411.993,213.586 411.585,213.726C410.984,213.933 410.589,213.987 410.5,213.999C408.408,214.286 408.701,215.498 408.45,215.706C402.997,213.901 403.08,213.917 397.686,212.019C397.291,210.555 396.792,210.517 397.484,209.503C397.779,209.07 398.428,208.933 398.664,208.466C399.327,207.155 395.839,208.39 393.5,207.866L392.5,207.892L391.5,207.892L390.5,207.786L389.402,208.696C374.466,202.515 374.053,201.798 374.622,200.575C375.203,199.326 390.952,186.553 392.406,185.374C401.114,178.859 401.003,178.788 410.336,173.249C410.748,173.779 411.503,173.97 411.915,174.5C412.034,174.654 411.648,174.887 411.741,175.058C412.008,175.543 413.069,175.557 413.208,175.341C413.714,174.56 413.294,174.532 412.285,172.125C419.708,167.927 419.68,167.984 427.384,164.23C430.235,166.115 430.178,166.72 431.194,166.118C432.236,165.501 431.431,165.277 430.287,163.047ZM573.381,161.816C573.771,161.998 573.704,161.939 578.308,163.98C578.563,164.487 578.819,164.993 579.074,165.5C579.441,165.826 579.133,166.585 579.5,166.911C579.822,167.198 580.417,166.807 580.789,167.024C581.808,167.62 581.52,167.936 582.561,168.379C584.14,169.05 584.134,169.249 584.5,168.97C584.937,168.636 585.001,167.947 585.439,167.613C609.953,180.719 620.116,189.894 628.827,197.093C626.859,198.526 625.545,199.387 627.833,200.307C628.321,200.503 628.287,199.895 628.694,200.18C629.583,200.801 629.102,201.193 629.977,201.804C625.186,202.598 622.563,202.414 624.636,206.822C622.13,207.884 622.174,207.853 619.674,208.95L618.5,207.881L617.5,207.961C613.326,207.774 611.402,207.747 612.591,211.767C606.644,214.012 606.654,213.819 600.588,215.82L599.212,214.5C598.469,213.092 598.549,212.979 598.412,212.984C593.874,213.152 593.874,212.659 593.5,212.782C593.011,212.943 592.706,213.481 592.217,213.642C590.196,209.129 583.679,192.395 569.066,172.833C571.393,170.171 571.283,169.915 571.161,169.634C570.735,168.65 570.387,169.351 567.299,170.665C565.302,168.064 565.258,168.201 563.299,165.659C562.524,164.795 558.366,159.677 553.214,155.647C550.482,153.509 553.361,153.736 553.501,153.791C557.303,155.292 571.792,161.171 573.381,161.816ZM426.597,450.449C426.202,450.941 425.419,451.008 425.025,451.5C425.008,451.521 424.886,457.078 425.017,457.635C425.361,459.102 425.851,458.575 427.7,459.151C429.656,459.761 429.521,458.993 430.953,458.221C438.865,470.586 442.491,475.221 443.914,477.181C442.372,480.689 440.423,481.215 443.264,483.798C444.204,484.653 445.293,483.303 445.293,483.295C445.296,482.946 444.785,482.757 444.732,482.412C444.699,482.198 444.865,482.269 446.577,480.434C461.115,498.657 465.927,497.854 463.334,499.142C462.463,499.574 462.445,499.115 442.462,491.607C443.304,490.142 445.846,487.345 443.534,487.296C441.326,487.249 440.497,490.726 440.367,490.808C440.11,490.972 439.788,490.274 439.53,490.437C437.697,489.548 419.588,482.707 397.231,465.859C381.428,453.951 381.376,452.701 382.543,451.549C382.835,451.262 418.054,436.29 420.39,438.606C421.15,439.359 420.722,439.619 426.597,450.449ZM328.67,368.464C331.373,367.004 331.442,367.11 331.587,366.888C331.991,366.275 331.651,361.968 331.617,361.541C331.409,358.906 329.836,356.799 332.238,357.934C334.585,359.042 332.928,367.193 333.039,369.398C333.145,371.514 331.594,371.294 332.119,372.576C332.302,373.021 332.87,373.212 333.098,373.635C334.674,376.56 333.41,376.599 332.066,379.65C331.4,377.557 330.379,375.409 328.67,368.464ZM394.93,356.461C395.875,366.064 396.055,365.989 397.986,375.409L396.5,376.984C396.335,376.824 395.989,377.276 395.824,377.117C395.549,376.851 395.671,376.358 395.5,376.016C395.128,375.274 395.273,375.293 395.025,374.5C394.747,371.904 395.206,371.684 394.11,370.893C391.404,368.94 394.653,366.942 393.76,364.42C393.247,362.973 393.307,363.025 393.312,361.511C393.325,357.73 392.871,357.788 393.015,357.5C393.339,356.85 394.605,357.111 394.93,356.461ZM656.781,231.327C659.48,235.787 659.434,235.719 661.988,240.223C660.162,240.993 660.202,241.608 658.362,240.818C651.531,237.888 656.499,231.777 656.781,231.327ZM537.508,248.577L538.013,249.5C537.722,250.1 538.388,250.792 535.654,251.836C533.963,252.482 528.457,251.559 524.5,251.957L524.043,250.5L523.523,249.905C524.637,249.759 529.088,249.174 537.508,248.577ZM426.597,450.449C428.752,454.381 428.619,454.367 430.953,458.221C429.521,458.993 429.656,459.761 427.7,459.151C425.851,458.575 425.361,459.102 425.017,457.635C424.886,457.078 425.008,451.521 425.025,451.5C425.419,451.008 426.202,450.941 426.597,450.449ZM631.618,199.375C633.052,200.755 635.095,201.802 632.343,203.196C631.735,203.504 631.694,203.389 624.636,206.822C622.563,202.414 625.186,202.598 629.977,201.804C630.02,201.395 630.475,201.872 630.514,201.505C630.64,200.326 630.076,200.577 630.116,200.5C630.404,199.945 631.33,199.93 631.618,199.375ZM343.497,336.035C351.499,335.96 354.539,336.013 355.499,336.03C353.135,338.977 353.315,341.511 350.741,339.238C348.584,337.333 347.922,339.085 347.418,339.193C347.261,339.226 347.307,339.09 345.608,338.315C343.273,337.249 343.991,336.568 343.497,336.035ZM359.498,336.039L361.499,336.028C368.042,336.033 368.157,335.592 368.503,336.033C368.955,336.611 368.696,337.56 369.148,338.138C368.816,338.516 368.834,339.124 368.502,339.502C367.65,340.47 367.479,339.893 365.46,339.578C365.13,339.667 364.8,339.756 364.47,339.844C361.843,339.681 362.224,338.839 359.927,337.5L359.498,336.039ZM425.502,336.035C431.076,335.935 430.978,336.038 436.496,336.038C435.928,336.383 435.07,335.693 434.502,336.038C434.069,336.301 434.284,337.032 434.09,337.5C434.015,337.679 433.6,338.678 432.424,339.256C428.293,341.284 427.898,339.941 425.502,336.035ZM451.582,407.834C450.938,407.979 447.543,408.744 443.51,409.535C441.741,407.668 441.658,407.735 441.601,407.52C441.575,407.425 441.555,407.348 442.048,406.368C442.763,404.948 443.018,405.061 444.533,405.434C449.089,406.553 449.161,405.65 449.5,405.859C450.313,406.363 450.768,407.331 451.582,407.834ZM592.217,213.642C592.706,213.481 593.011,212.943 593.5,212.782C593.874,212.659 593.874,213.152 598.412,212.984C598.549,212.979 598.469,213.092 599.212,214.5L600.588,215.82C595.011,217.61 594.993,217.608 594.494,217.526C593.678,217.393 593.157,215.931 592.217,213.642ZM684.709,315.726C682.756,316.433 681.582,316.169 672.498,316.155C674.019,314.156 674.637,314.962 676.328,313.176C677.381,312.064 677.574,312.807 679.479,313.387C680.455,313.685 680.243,313.949 681.067,314.5C681.474,314.772 682.093,314.552 682.5,314.824L683.5,314.342L684.709,315.726ZM416.628,214.561C415.459,216.65 415.865,217.836 413.578,217.197C413.166,217.082 413.198,217.087 408.45,215.706C408.701,215.498 408.408,214.286 410.5,213.999C410.589,213.987 410.984,213.933 411.585,213.726C411.993,213.586 415.922,212.237 416.971,213.695C417.153,213.947 416.447,214.309 416.628,214.561ZM400.458,385.511C400.667,386.216 400.557,386.174 402.966,394.357C402.392,394.063 401.611,394.794 401.037,394.5C400.673,394.314 401.129,393.602 400.87,393.285C400.345,392.64 397.518,392.922 398.246,390.419C398.812,388.476 398.765,388.559 399.012,386.5L400.458,385.511ZM441.24,217.397C442.597,217.944 446.869,219.461 444.129,221.253C443.924,221.387 444.002,221.441 442.412,223.79C437.689,221.978 439.867,220.452 441.24,217.397ZM361.499,336.028C362.699,336.017 373.454,335.918 376.499,336.033L376.982,337.5C376.022,338.011 375.422,337.488 375.083,339.25C375.036,339.495 374.192,340.633 373.293,339.814C371.539,338.216 371.549,338.027 369.148,338.138C368.696,337.56 368.955,336.611 368.503,336.033C368.157,335.592 368.042,336.033 361.499,336.028ZM389.402,208.696L390.5,207.786L391.5,207.892L392.5,207.892L393.5,207.866C395.839,208.39 399.327,207.155 398.664,208.466C398.428,208.933 397.779,209.07 397.484,209.503C396.792,210.517 397.291,210.555 397.686,212.019C391.02,209.416 391.056,209.38 389.402,208.696ZM428.469,190.483C427.787,191.668 425.867,195.172 425.643,195.581L424.994,194.5C424.894,191.985 425.084,192.075 424.885,189.505C424.422,183.535 428.01,187.335 427.957,187.5C427.816,187.938 427.054,187.924 426.863,188.343C426.702,188.698 426.813,189.187 427.048,189.5C427.393,189.961 428.123,190.023 428.469,190.483ZM395.561,232.351C399.087,233.333 399.005,233.426 402.529,234.428C402.057,234.788 402.093,233.761 401.63,234.114C400.707,234.819 401.33,235.225 400.5,235.975C399.905,236.513 389.65,234.377 394.669,232.04C394.955,231.907 395.275,232.484 395.561,232.351ZM330.496,335.956C338.88,335.961 338.826,335.994 342.498,336.036C341.23,336.448 339.767,335.623 338.499,336.034C338.266,336.11 338.323,339.889 334.478,338.566C333.155,338.11 333.246,337.783 332.469,338.077C332.058,338.233 331.907,339.139 331.5,338.973C331.265,338.877 331.428,338.755 330.496,335.956ZM619.674,208.95C616.167,210.453 616.229,210.474 612.591,211.767C611.402,207.747 613.326,207.774 617.5,207.961L618.5,207.881L619.674,208.95ZM650.717,222.337C655.193,228.903 655.222,228.855 655.606,229.428C655.253,229.527 653.894,231.327 651.255,227.646C650.952,227.223 651.008,227.217 649.983,224.5L649.975,223.5L650.717,222.337ZM407.525,418.564C406.967,418.726 406.996,418.77 400.586,420.729C400.362,420.481 397.879,417.731 397.878,417.549C397.877,417.342 398.018,416.481 400.433,417.961C400.788,418.179 401.133,418.39 405.5,416.78L406.22,417.5L407.525,418.564ZM365.678,220.087C368.105,221.293 368.029,221.244 370.538,222.404C370.291,222.771 367.652,226.682 365.441,224.559C364.421,223.58 365.557,220.425 365.678,220.087ZM555.576,225.898C552.901,226.255 550.226,226.611 547.55,226.967C547.589,226.455 547.043,226.012 547.082,225.5C547.166,224.365 552.048,223.929 552.498,223.889C555.189,223.648 555.456,225.82 555.576,225.898ZM490.501,335.961C490.738,335.961 493.386,335.957 493.455,335.972C495.599,336.426 494.725,337.215 495.125,339.493C491.741,340.524 489.403,340.218 490.501,335.961ZM563.859,207.303C565.091,209.475 565.62,210.995 566.803,213.354C566.324,213.373 565.979,213.945 565.5,213.964C565.246,213.974 562.789,212.735 562.295,210.577C561.531,207.237 563.574,207.899 563.859,207.303ZM443.914,477.181C444.801,478.265 445.689,479.35 446.577,480.434C444.865,482.269 444.699,482.198 444.732,482.412C444.785,482.757 445.296,482.946 445.293,483.295C445.293,483.303 444.204,484.653 443.264,483.798C440.423,481.215 442.372,480.689 443.914,477.181ZM587.275,271.552C587.796,273.513 588.318,275.474 588.84,277.436C585.748,276.568 585.766,276.582 585.501,276.499C582.446,275.539 584.614,274.513 586.5,271.937L587.275,271.552ZM377.546,225.407C380.018,226.512 379.946,226.52 382.519,227.456C379.213,230.215 378.756,229.754 378.502,229.498C377.503,228.49 377.69,228.382 376.585,227.407C375.99,226.881 376.001,226.586 376.004,226.5C376.066,224.836 377.542,225.409 377.546,225.407ZM551.951,186.217C552.844,187.62 553.736,189.022 554.629,190.425C554.462,190.66 550.069,196.884 551.175,191.46C551.317,190.767 552.031,190.207 551.992,189.5C551.966,189.033 551.036,188.967 551.01,188.5L550.992,187.5L550.5,186.977L551.951,186.217ZM680.719,288.442C681.421,291.019 681.353,290.973 682.058,293.585C678.329,292.327 676.283,293.399 675.856,292.364C674.86,289.95 679.659,291.959 680.911,289.399C681.054,289.106 680.576,288.734 680.719,288.442ZM674.348,267.563C675.045,269.551 675.741,271.538 676.438,273.525L675.029,274.5L674.5,273.023C673.935,271.776 674.016,271.721 672.84,271.072C670.53,269.796 672.414,269.315 674.348,267.563ZM578.308,163.98C581.885,165.791 581.81,165.758 585.439,167.613C585.001,167.947 584.937,168.636 584.5,168.97C584.134,169.249 584.14,169.05 582.561,168.379C581.52,167.936 581.808,167.62 580.789,167.024C580.417,166.807 579.822,167.198 579.5,166.911C579.133,166.585 579.441,165.826 579.074,165.5C578.819,164.993 578.563,164.487 578.308,163.98ZM549.048,181.836C549.287,182.182 549.225,182.214 551.951,186.217L550.5,186.977C548.739,186.34 548.745,186.395 548.602,186.321C546.024,184.986 547.421,184.253 549.048,181.836ZM427.385,255.452C431.447,256.869 430.425,257.905 430.183,258.096C429.871,258.342 428.012,259.808 425.899,260.606C426.394,258.888 426.89,257.17 427.385,255.452ZM439.498,335.959C443.52,335.96 443.443,335.889 447.498,336.039C447.255,336.267 446.741,335.812 446.498,336.04C445.573,336.909 446.337,337.392 445.245,338.118C444.05,338.914 443.989,338.52 442.632,338.165C440.596,337.632 441.434,336.099 439.498,335.959ZM659.503,316.177C659.501,316.17 656.638,314.525 659.567,312.643C661.766,311.23 661.494,312.951 661.972,315.5L662.497,316.159L659.503,316.177ZM540.706,171.312C541.777,172.602 542.848,173.892 543.919,175.182L542.5,175.963C537.55,175.24 540.587,171.821 540.706,171.312ZM419.088,292.45C419.559,293.297 420.029,294.144 420.5,294.99C421.225,297.045 422.381,299.75 418.109,298.473C418.2,297.993 418.105,298.014 419.088,292.45ZM628.827,197.093C629.906,198.002 631.393,199.194 631.618,199.375C631.33,199.93 630.404,199.945 630.116,200.5C630.076,200.577 630.64,200.326 630.514,201.505C630.475,201.872 630.02,201.395 629.977,201.804C629.102,201.193 629.583,200.801 628.694,200.18C628.287,199.895 628.321,200.503 627.833,200.307C625.545,199.387 626.859,198.526 628.827,197.093ZM439.53,490.437C439.788,490.274 440.11,490.972 440.367,490.808C440.497,490.726 441.326,487.249 443.534,487.296C445.846,487.345 443.304,490.142 442.462,491.607C441.485,491.217 440.507,490.827 439.53,490.437ZM616.45,231.346C616.115,234.029 616.155,234.02 616.089,234.243C615.428,236.459 614.675,234.692 612.5,234.182C611.816,233.887 611.131,233.592 610.447,233.297C615.97,231.512 615.935,231.53 616.45,231.346ZM495.118,312.501C494.956,313.543 494.795,314.585 494.633,315.628C494.02,315.162 494.58,314.384 492.5,314.01C481.792,312.085 494.282,312.069 494.5,312.107L495.118,312.501ZM379.503,316.165L378.5,315.103C377.955,314.289 377.519,313.85 378.545,313.765C381.284,313.538 381.829,313.457 382.498,316.165L379.503,316.165ZM578.419,242.567C578.919,243.831 579.418,245.094 579.918,246.358C578.015,247.034 577.336,247.487 576.883,245.49C576.825,245.233 576.705,244.706 578.419,242.567ZM463.043,179.188C463.211,179.705 463.843,179.983 464.012,180.5C464.081,180.713 464.331,187.87 461.365,181.407C461.924,180.668 462.484,179.928 463.043,179.188ZM430.287,163.047C431.431,165.277 432.236,165.501 431.194,166.118C430.178,166.72 430.235,166.115 427.384,164.23L430.287,163.047ZM567.299,170.665C570.387,169.351 570.735,168.65 571.161,169.634C571.283,169.915 571.393,170.171 569.066,172.833L567.299,170.665ZM376.499,336.033L377.498,336.03C377.738,336.264 378.262,335.799 378.502,336.032C378.679,336.203 378.473,336.271 379.914,338.764C380.042,338.985 379.314,340.391 376.982,337.5L376.499,336.033ZM423.935,198.687C423.579,199.362 423.223,200.038 422.867,200.713C420.481,199.682 420.424,199.783 420.292,199.601C420.116,199.357 419.541,197.066 423.935,198.687ZM412.285,172.125C413.294,174.532 413.714,174.56 413.208,175.341C413.069,175.557 412.008,175.543 411.741,175.058C411.648,174.887 412.034,174.654 411.915,174.5C411.503,173.97 410.748,173.779 410.336,173.249C410.986,172.875 411.635,172.5 412.285,172.125Z" style="fill:rgb(24,26,27);fill-opacity:0.99;"/>
                <path d="M646.451,365.209L649.546,365.139C651.194,365.139 652.842,365.139 654.49,365.139C655.505,365.16 656.521,365.181 657.537,365.202L658.498,365.263L661.511,365.358C663.328,365.576 663.32,365.555 663.474,365.593C676.195,368.761 676.54,366.939 677.451,367.607C679.684,369.243 679.766,368.901 682.52,369.317C682.68,369.415 684.66,371.394 688.549,371.426C689.545,372.161 689.532,372.165 689.624,372.22C690.043,372.468 690.061,372.282 690.486,372.535C690.552,372.568 694.984,375.018 698.595,376.372C699.598,377.047 699.623,376.911 701.48,377.558C703.339,379.252 703.543,378.878 705.521,380.457C707.346,381.924 707.242,382.222 709.628,382.32C709.837,382.531 709.505,382.996 709.714,383.207C709.939,383.433 710.358,383.254 710.659,383.358C711.764,383.739 711.399,384.138 712.291,384.815C716.836,388.266 717.202,389.468 719.055,390.887C719.398,391.186 719.74,391.486 720.083,391.785C724.457,395.846 724.868,396.307 725.248,396.734C730.885,401.424 729.871,402.268 730.406,402.589C731.763,403.404 735.087,409.464 735.726,410.278C737.378,413.562 737.32,413.491 739.43,416.532C739.802,417.178 740.174,417.824 740.546,418.469C741.922,422.081 743.379,424.043 743.703,424.479C743.835,424.963 744.236,424.807 745.869,430.364C745.898,430.463 745.926,430.44 746.65,431.39C746.757,433.062 746.816,432.994 747.682,434.462C747.896,436.087 748.007,436.013 748.667,437.474C748.987,444.079 750.811,443.835 750.61,450.48C750.498,454.167 752.289,461.43 751.44,465.485C749.873,472.966 752.048,473.257 749.691,480.539C748.513,484.175 748.808,484.313 748.723,486.516C747.851,488.004 747.764,487.914 747.666,489.611C746.954,490.52 747.118,490.546 745.711,494.531C745.017,495.545 745.434,495.673 744.746,496.698C744.181,498.201 742.226,501.704 741.623,504.539C741.291,506.094 739.967,505.44 739.707,507.56C739.552,508.834 739.783,509.088 738.504,509.504C737.785,509.738 738.138,510.048 733.201,517.338C732.823,517.896 732.994,517.891 732.738,518.574C731.216,519.809 730.957,519.675 730.695,521.654C726.968,525.327 726.968,525.279 726.67,525.62C726.259,525.891 725.848,526.163 725.437,526.434C725.113,526.78 724.788,527.125 724.464,527.471C722.767,528.903 722.852,528.879 721.629,530.63C714.765,537.955 713.007,537.818 711.572,539.573C711.5,539.66 710.773,540.549 710.689,540.666C709.546,542.262 709.137,541.485 707.274,542.129C706.049,543.091 705.894,542.879 705.33,544.249C703.738,544.612 703.756,544.524 702.455,545.45C700.925,545.904 701.001,545.951 699.642,546.817C694.596,549.292 694.211,548.359 689.528,551.545C688.836,551.784 688.145,552.023 687.454,552.262C682.425,553.23 682.697,554.163 677.586,554.814C677.054,554.9 677.112,554.696 676.586,554.781C676.335,554.822 676.356,554.832 673.493,555.468C672.516,555.882 671.538,556.297 670.561,556.711C669.536,556.763 668.512,556.814 667.487,556.866L666.401,557.169C663.437,557.011 663.501,556.899 660.478,557.105C657.501,557.484 654.976,557.611 654.496,557.636L653.507,557.644C650.459,557.241 650.521,557.245 647.493,557.628L646.505,557.633C643.126,556.512 639.07,556.802 638.422,556.848C632.832,556.281 633.07,555 627.441,554.801C626.604,554.771 624.722,554.705 617.382,551.892C614.215,550.103 611.924,549.695 611.421,549.605C609.545,548.4 605.141,546.555 604.581,546.321C603.637,545.655 603.711,545.68 602.553,545.431C602.062,545.052 597.104,541.215 596.218,540.959C596.005,540.898 595.81,541.26 595.597,541.199C595.074,539.754 594.87,539.929 593.386,539.659C591.322,537.592 588.685,535.183 588.269,534.802C586.498,532.849 586.483,532.965 584.265,531.682C583.3,530.757 581.601,529.854 581.353,529.722C581.063,528.06 580.999,527.942 579.34,527.568C578.502,525.539 578.358,525.698 576.832,524.068C575.891,522.577 576.029,522.559 574.832,521.266C574.377,521.027 573.922,520.788 573.467,520.549C573.212,519.383 573.289,519.373 572.535,518.478C571.073,516.996 571.442,516.766 569.86,515.373L569.502,514.499C568.162,512.296 568.344,512.207 566.443,510.538C566.095,508.302 565.753,508.477 564.828,506.342C564.297,505.254 564.294,505.319 563.449,504.513L563.153,503.641C561.187,500.598 561.091,499.046 560.448,498.534C560.245,498.371 559.72,498.631 559.685,498.373C559.604,497.766 560.192,497.218 560.189,496.606C560.187,496.099 559.659,496.269 558.009,490.65C557.909,490.311 557.867,490.374 556.326,486.569L556.326,485.558C556.12,483.976 556.102,484.04 555.47,482.507C555.328,477.864 553.337,474.667 553.286,474.509L553.281,473.518L553.335,469.497L553.377,467.523C553.937,464.938 554.159,456.752 553.368,453.476C552.817,449.423 553.219,448.811 553.438,448.477C553.86,447.835 553.524,445.92 553.755,445.64C554.042,445.293 554.167,445.739 554.446,445.474C554.567,445.359 554.494,445.326 555.094,443.478C555.177,442.991 555.77,439.546 556.187,437.399C557.212,433.358 557.863,433.6 558.331,429.475C559.957,427.154 560.02,427.207 560.338,424.361C560.639,424.013 561.26,423.296 563.065,419.295C564.295,417.497 564.345,417.529 564.368,415.411C565.91,414.023 565.727,413.866 565.87,413.759C566.193,413.107 566.515,412.455 566.838,411.803C569.212,409.055 572.618,404.02 573.528,402.514C575.258,400.965 577.841,399.629 578.356,396.392C578.784,396.011 578.914,396.725 579.333,396.352C579.725,396.004 579.079,395.838 579.443,395.426C579.443,395.426 580.541,394.753 580.637,394.694C582.703,392.537 583.015,392.951 584.744,390.592C586.488,389.982 586.384,389.823 587.365,388.269C589.035,387.176 589.027,387.188 589.169,387.089C589.484,386.87 589.246,386.734 589.528,386.535C600.336,378.875 600.57,379.197 601.361,378.361C604.104,377.873 603.782,377.298 606.306,376.09L606.5,375.499C608.533,374.953 608.593,375.238 610.323,374.101C614.404,371.18 625.856,368.883 626.463,368.432C628.512,366.906 630.298,367.744 639.451,366.12C642.927,365.503 642.855,365.677 646.451,365.209Z" style="fill:rgb(254,179,0);fill-opacity:0.99;"/>
                <path d="M649.496,384.041C707.546,382.848 736.522,432.762 730.972,471.534C720.334,545.859 624.531,561.574 586.87,505.25C548.274,447.528 598.233,383.249 649.496,384.041Z" style="fill:rgb(254,252,247);fill-opacity:0.99;"/>
                <path d="M662.621,486.38C653.498,477.193 652.888,475.561 650.71,477.715C627.445,500.731 625.222,506.342 616.49,502.523C610.501,499.903 608.868,492.512 613.49,487.491C618.552,481.991 637.67,464.296 637.514,462.498C637.252,459.478 611.468,439.854 610.855,432.477C610.237,425.033 621.848,419.814 628.191,425.828C639.042,436.117 651.276,450.376 653.621,449.805C655.511,449.345 676.105,425.406 681.577,423.78C692.362,420.575 697.539,432.409 692.216,438.254C687.219,443.74 667.682,461.926 667.688,463.499C667.7,466.464 693.465,486.196 694.392,493.517C695.261,500.371 684.934,508.611 676.621,500.375C671.132,494.938 663.737,487.503 662.621,486.38Z" style="fill:rgb(254,181,0);fill-opacity:1;"/>
                <path d="M693.618,408.511C693.389,408.718 693.646,409.209 693.417,409.415C692.747,410.02 691.267,407.625 690.161,406.83C687.796,405.129 688.864,398.715 690.062,402.433C690.39,403.449 689.357,404.833 692.824,405.225C694.876,405.457 693.646,406.411 693.618,408.511Z" style="fill:rgb(254,250,244);fill-opacity:0.99;"/>
                <path d="M513.498,528.388C516.486,528.273 519.473,528.158 522.46,528.043L522.022,529.5L521.5,530.022C518.927,530.348 519.015,530.428 516.506,530.287C515.709,530.242 515.002,531.418 514.538,530.435C514.46,530.269 514.461,530.283 513.498,528.388Z" style="fill:rgb(45,39,33);fill-opacity:0.07;"/>
                <path d="M563.859,207.303C565.091,209.475 565.62,210.995 566.803,213.354C566.324,213.373 565.979,213.945 565.5,213.964C565.246,213.974 562.789,212.735 562.295,210.577C561.531,207.237 563.574,207.899 563.859,207.303Z" style="fill:rgb(37,37,38);fill-opacity:0.04;"/>
                <path d="M443.914,477.181C444.801,478.265 445.689,479.35 446.577,480.434C444.865,482.269 444.699,482.198 444.732,482.412C444.785,482.757 445.296,482.946 445.293,483.295C445.293,483.303 444.204,484.653 443.264,483.798C440.423,481.215 442.372,480.689 443.914,477.181Z" style="fill:rgb(30,30,31);fill-opacity:0.04;"/>
                <path d="M589.5,336.037C589.821,336.074 593.507,336.493 593.507,336.493C594.491,337.466 593.884,337.65 593.742,341.521C590.429,339.933 590.841,339.426 589.5,336.037Z" style="fill:rgb(46,42,38);fill-opacity:0.04;"/>
                <path d="M587.275,271.552C587.796,273.513 588.318,275.474 588.84,277.436C585.748,276.568 585.766,276.582 585.501,276.499C582.446,275.539 584.614,274.513 586.5,271.937L587.275,271.552Z" style="fill:rgb(32,33,34);fill-opacity:0.05;"/>
                <path d="M735.726,410.278C738.155,410.768 738.118,410.582 740.449,411.567L740.555,412.494C740.511,413.056 740.889,413.094 740.477,413.488C739.402,414.517 739.573,415.343 739.495,415.503L739.43,416.532C737.32,413.491 737.378,413.562 735.726,410.278Z" style="fill:rgb(218,152,9);fill-opacity:0.05;"/>
                <path d="M377.546,225.407C380.018,226.512 379.946,226.52 382.519,227.456C379.213,230.215 378.756,229.754 378.502,229.498C377.503,228.49 377.69,228.382 376.585,227.407C375.99,226.881 376.001,226.586 376.004,226.5C376.066,224.836 377.542,225.409 377.546,225.407Z" style="fill:rgb(37,37,37);fill-opacity:0.04;"/>
                <path d="M551.951,186.217C552.844,187.62 553.736,189.022 554.629,190.425C554.462,190.66 550.069,196.884 551.175,191.46C551.317,190.767 552.031,190.207 551.992,189.5C551.966,189.033 551.036,188.967 551.01,188.5L550.992,187.5L550.5,186.977L551.951,186.217Z" style="fill:rgb(35,36,36);fill-opacity:0.05;"/>
                <path d="M554.703,519.43L555.5,519.027C555.843,519.027 558.908,519.024 558.081,522.452C557.467,524.998 556.414,523.998 554.363,522.303C555.72,520.987 555.06,520.774 554.703,519.43Z" style="fill:rgb(122,85,27);fill-opacity:0.05;"/>
                <path d="M680.719,288.442C681.421,291.019 681.353,290.973 682.058,293.585C678.329,292.327 676.283,293.399 675.856,292.364C674.86,289.95 679.659,291.959 680.911,289.399C681.054,289.106 680.576,288.734 680.719,288.442Z" style="fill:rgb(29,30,30);fill-opacity:0.1;"/>
                <path d="M377.841,169.953C376.458,171.004 376.586,171.041 375.191,172.101C375.002,172.245 375.014,172.232 372.804,173.866C372.446,173.209 371.381,173.157 371.023,172.5C370.527,171.589 373.412,171.175 374.783,169.881C375.499,169.205 375.601,169.5 376.5,169.081L377.841,169.953Z" style="fill:rgb(40,42,43);fill-opacity:0.06;"/>
                <path d="M638.422,556.848C639.07,556.802 643.126,556.512 646.505,557.633C643.006,559.113 641.074,560.686 638.422,556.848Z" style="fill:rgb(228,165,10);fill-opacity:0.04;"/>
                <path d="M578.308,163.98C581.885,165.791 581.81,165.758 585.439,167.613C585.001,167.947 584.937,168.636 584.5,168.97C584.134,169.249 584.14,169.05 582.561,168.379C581.52,167.936 581.808,167.62 580.789,167.024C580.417,166.807 579.822,167.198 579.5,166.911C579.133,166.585 579.441,165.826 579.074,165.5C578.819,164.993 578.563,164.487 578.308,163.98Z" style="fill:rgb(36,37,37);fill-opacity:0.09;"/>
                <path d="M460.529,132.59C457.04,133.297 457.101,133.302 453.598,133.953C454.367,132.548 454.18,132.416 455.577,131.686C455.86,131.539 458.223,130.305 459.5,131.008C460.051,131.311 459.978,132.287 460.529,132.59Z" style="fill:rgb(37,37,38);fill-opacity:0.07;"/>
                <path d="M549.048,181.836C549.287,182.182 549.225,182.214 551.951,186.217L550.5,186.977C548.739,186.34 548.745,186.395 548.602,186.321C546.024,184.986 547.421,184.253 549.048,181.836Z" style="fill:rgb(33,34,34);fill-opacity:0.05;"/>
                <path d="M476.426,525.971C478.763,526.337 478.676,526.302 484.544,527.081C484.297,527.308 483.786,526.796 483.54,527.023C483.154,527.377 483.245,528.036 483.001,528.5C482.177,530.069 480.379,528.244 478.669,528.148C476.929,528.051 477.245,527.512 476.426,525.971Z" style="fill:rgb(32,30,30);fill-opacity:0.13;"/>
                <path d="M427.385,255.452C431.447,256.869 430.425,257.905 430.183,258.096C429.871,258.342 428.012,259.808 425.899,260.606C426.394,258.888 426.89,257.17 427.385,255.452Z" style="fill:rgb(32,32,33);fill-opacity:0.07;"/>
                <path d="M617.15,354.46C617.27,354.766 616.94,355.137 617.06,355.443C617.999,357.841 619.19,358.049 617.631,359.628C616.422,360.853 612.792,359.37 612.403,359.211C615.687,357.642 616.17,357.898 617.15,354.46Z" style="fill:rgb(90,65,27);fill-opacity:0.15;"/>
                <path d="M439.498,335.959C443.52,335.96 443.443,335.889 447.498,336.039C447.255,336.267 446.741,335.812 446.498,336.04C445.573,336.909 446.337,337.392 445.245,338.118C444.05,338.914 443.989,338.52 442.632,338.165C440.596,337.632 441.434,336.099 439.498,335.959Z" style="fill:rgb(39,38,37);fill-opacity:0.2;"/>
                <path d="M540.706,171.312C541.777,172.602 542.848,173.892 543.919,175.182L542.5,175.963C537.55,175.24 540.587,171.821 540.706,171.312Z" style="fill:rgb(41,41,42);fill-opacity:0.05;"/>
                <path d="M419.088,292.45C419.559,293.297 420.029,294.144 420.5,294.99C421.225,297.045 422.381,299.75 418.109,298.473C418.2,297.993 418.105,298.014 419.088,292.45Z" style="fill:rgb(28,29,29);fill-opacity:0.07;"/>
                <path d="M393.639,494.293C394.269,494.683 394.164,494.724 394.76,495.093C394.911,495.187 394.902,495.176 396.675,496.215L395.992,497.5C395.704,497.775 395.846,498.338 395.557,498.613C393.451,500.619 393.699,498.316 393.002,495.5L393.639,494.293Z" style="fill:rgb(41,41,42);fill-opacity:0.04;"/>
                <path d="M724.464,527.471C724.719,528.041 723.917,528.44 725.393,529.548C726.095,530.075 726.18,529.84 726.881,530.366C726.546,533.345 725.2,531.05 722.346,530.201C722.079,530.122 721.896,530.71 721.629,530.63C722.852,528.879 722.767,528.903 724.464,527.471Z" style="fill:rgb(225,160,13);fill-opacity:0.09;"/>
                <path d="M628.827,197.093C629.906,198.002 631.393,199.194 631.618,199.375C631.33,199.93 630.404,199.945 630.116,200.5C630.076,200.577 630.64,200.326 630.514,201.505C630.475,201.872 630.02,201.395 629.977,201.804C629.102,201.193 629.583,200.801 628.694,200.18C628.287,199.895 628.321,200.503 627.833,200.307C625.545,199.387 626.859,198.526 628.827,197.093Z" style="fill:rgb(33,33,33);fill-opacity:0.05;"/>
                <path d="M563.153,503.641L563.449,504.513C563.909,505.122 564.368,505.732 564.828,506.342C565.753,508.477 566.095,508.302 566.443,510.538C563.036,507.782 561.512,507.787 563.153,503.641Z" style="fill:rgb(203,141,11);fill-opacity:0.05;"/>
                <path d="M439.53,490.437C439.788,490.274 440.11,490.972 440.367,490.808C440.497,490.726 441.326,487.249 443.534,487.296C445.846,487.345 443.304,490.142 442.462,491.607C441.485,491.217 440.507,490.827 439.53,490.437Z" style="fill:rgb(33,34,33);fill-opacity:0.07;"/>
                <path d="M566.443,510.538C568.344,512.207 568.162,512.296 569.502,514.499C569.07,514.62 569.421,513.893 568.996,514.013C568.066,514.274 568.488,514.965 567.5,515.062C566.359,515.174 564.609,513.603 565.444,512.49C565.816,511.994 566.553,511.808 566.835,511.256C566.959,511.013 566.318,510.78 566.443,510.538Z" style="fill:rgb(138,94,7);fill-opacity:0.06;"/>
                <path d="M307.806,384.389L308.879,387.376L307.209,388.5C306.916,388.507 306.892,389.125 306.599,389.133C306.207,389.142 303.347,388.369 307.806,384.389Z" style="fill:rgb(19,19,19);fill-opacity:0.05;"/>
                <path d="M553.286,474.509C553.337,474.667 555.328,477.864 555.47,482.507C554.57,481.999 552.716,481.968 553.33,479.467C553.425,479.082 553.621,478.283 553.286,474.509Z" style="fill:rgb(204,143,10);fill-opacity:0.07;"/>
                <path d="M577.736,396.745L578.356,396.392C577.841,399.629 575.258,400.965 573.528,402.514C573.278,400.648 573.266,400.661 573.258,400.499C573.17,398.8 574.293,399.715 575.705,398.728C576.885,397.902 576.672,397.763 577.736,396.745Z" style="fill:rgb(213,145,7);fill-opacity:0.1;"/>
                <path d="M616.45,231.346C616.115,234.029 616.155,234.02 616.089,234.243C615.428,236.459 614.675,234.692 612.5,234.182C611.816,233.887 611.131,233.592 610.447,233.297C615.97,231.512 615.935,231.53 616.45,231.346Z" style="fill:rgb(28,28,29);fill-opacity:0.11;"/>
                <path d="M440.599,517.157C442.212,517.651 443.825,518.146 445.438,518.641C443.872,520.222 443.962,521.184 442.607,520.275C440.995,519.194 441.395,518.912 440.599,517.157Z" style="fill:rgb(43,41,42);fill-opacity:0.06;"/>
                <path d="M611.421,549.605C611.924,549.695 614.215,550.103 617.382,551.892C613.089,553.684 613.064,552.083 611.421,549.605Z" style="fill:rgb(218,154,8);fill-opacity:0.08;"/>
                <path d="M408.614,150.748L406.656,151.763C404.749,150.933 403.927,151.602 403.685,149.514C403.409,147.131 404.814,148.762 407.109,149.5L408.614,150.748Z" style="fill:rgb(28,28,28);fill-opacity:0.04;"/>
                <path d="M654.496,557.636C654.976,557.611 657.501,557.484 660.478,557.105C661.484,557.345 662.489,557.584 663.494,557.823C659.114,559.398 659.039,558.799 654.496,557.636Z" style="fill:rgb(204,142,7);fill-opacity:0.05;"/>
                <path d="M346.856,198.815C346.222,199.519 345.589,200.223 344.955,200.927C344.498,200.305 343.587,200.123 343.13,199.501C342.71,198.93 343.545,196.862 344.499,197.243C345.375,197.594 345.979,198.464 346.856,198.815Z" style="fill:rgb(41,43,43);fill-opacity:0.06;"/>
                <path d="M552.082,513.658C552.179,513.656 553.011,511.971 554.372,513.617C554.414,513.669 554.664,513.971 554.745,514.363C554.779,514.532 555.159,516.376 555.123,516.489C554.953,517.019 554.184,517.206 554.014,517.736C552.624,515.394 552.763,515.195 552.082,513.658Z" style="fill:rgb(106,77,23);fill-opacity:0.08;"/>
                <path d="M740.546,418.469L741.194,418.682C744.549,421.428 744.275,422.147 744.138,422.509C743.755,423.516 743.923,423.481 743.703,424.479C743.379,424.043 741.922,422.081 740.546,418.469Z" style="fill:rgb(232,162,8);fill-opacity:0.12;"/>
                <path d="M578.419,242.567C578.919,243.831 579.418,245.094 579.918,246.358C578.015,247.034 577.336,247.487 576.883,245.49C576.825,245.233 576.705,244.706 578.419,242.567Z" style="fill:rgb(32,32,31);fill-opacity:0.05;"/>
                <path d="M463.043,179.188C463.211,179.705 463.843,179.983 464.012,180.5C464.081,180.713 464.331,187.87 461.365,181.407C461.924,180.668 462.484,179.928 463.043,179.188Z" style="fill:rgb(39,38,39);fill-opacity:0.05;"/>
                <path d="M690.486,372.535C694.011,372.389 693.837,373.619 695.452,373.683C697.298,373.756 698.044,375.73 698.595,376.372C694.984,375.018 690.552,372.568 690.486,372.535Z" style="fill:rgb(195,132,4);fill-opacity:0.13;"/>
                <path d="M556.187,437.399C555.77,439.546 555.177,442.991 555.094,443.478C554.439,442.71 554.07,443.315 553.412,442.543C553.355,442.476 552.98,442.037 553.354,441.438C553.633,440.991 554.414,441.011 554.66,440.544C554.829,440.224 554.399,439.856 554.38,439.494C554.328,438.492 555.503,438.215 556.187,437.399Z" style="fill:rgb(200,136,7);fill-opacity:0.11;"/>
                <path d="M683.981,352.513C684.97,354.689 685.315,354.39 687.599,355.205C687.303,355.325 684.43,356.493 683.693,356.054C681.805,354.929 682.971,354.462 683.981,352.513Z" style="fill:rgb(86,63,30);fill-opacity:0.18;"/>
                <path d="M560.338,424.361C560.02,427.207 559.957,427.154 558.331,429.475C558.389,426.304 557.263,425.256 560.338,424.361Z" style="fill:rgb(222,155,9);fill-opacity:0.04;"/>
                <path d="M430.287,163.047C431.431,165.277 432.236,165.501 431.194,166.118C430.178,166.72 430.235,166.115 427.384,164.23L430.287,163.047Z" style="fill:rgb(44,44,44);fill-opacity:0.05;"/>
                <path d="M567.299,170.665C570.387,169.351 570.735,168.65 571.161,169.634C571.283,169.915 571.393,170.171 569.066,172.833L567.299,170.665Z" style="fill:rgb(31,30,31);fill-opacity:0.06;"/>
                <path d="M682.52,369.317C685.256,369.384 685.832,368.286 688.549,371.426C684.66,371.394 682.68,369.415 682.52,369.317Z" style="fill:rgb(212,148,8);fill-opacity:0.06;"/>
                <path d="M532.497,335.959C537.015,335.954 536.93,335.91 541.498,336.027C542.559,339.522 541.793,339.608 541.507,339.602C541.297,339.598 540.922,339.591 539.932,337.5C538.405,334.272 537.379,336.034 533.502,336.032C532.962,336.032 533.021,335.997 532.497,335.959Z" style="fill:rgb(36,33,30);fill-opacity:0.32;"/>
                <path d="M423.935,198.687C423.579,199.362 423.223,200.038 422.867,200.713C420.481,199.682 420.424,199.783 420.292,199.601C420.116,199.357 419.541,197.066 423.935,198.687Z" style="fill:rgb(35,36,37);fill-opacity:0.04;"/>
                <path d="M387.658,490.283L388.767,491.108C388.52,492.301 388.167,492.199 388.295,493.393C388.445,494.802 387.649,494.82 387.519,494.823C387.156,494.832 384.898,494.779 387.658,490.283Z" style="fill:rgb(35,36,36);fill-opacity:0.04;"/>
                <path d="M530.521,403.306C531.921,400.727 532.254,400.627 532.515,400.548C534.877,399.837 533.421,402.092 532.469,403.685L530.521,403.306Z" style="fill:rgb(57,48,35);fill-opacity:0.05;"/>
                <path d="M701.48,377.558C704.993,377.047 704.882,378.057 705.521,380.457C703.543,378.878 703.339,379.252 701.48,377.558Z" style="fill:rgb(187,133,6);fill-opacity:0.08;"/>
                <path d="M606.306,376.09C603.782,377.298 604.104,377.873 601.361,378.361C601.883,377.822 601.803,377.85 602.378,377.31C602.46,377.233 602.399,377.216 603.227,376.179C604.623,374.43 605.493,375.924 606.306,376.09Z" style="fill:rgb(205,140,8);fill-opacity:0.08;"/>
                <path d="M412.285,172.125C413.294,174.532 413.714,174.56 413.208,175.341C413.069,175.557 412.008,175.543 411.741,175.058C411.648,174.887 412.034,174.654 411.915,174.5C411.503,173.97 410.748,173.779 410.336,173.249C410.986,172.875 411.635,172.5 412.285,172.125Z" style="fill:rgb(30,30,31);fill-opacity:0.08;"/>
                <path d="M587.365,388.269C586.384,389.823 586.488,389.982 584.744,390.592C584.598,389.454 583.642,387.635 587.365,388.269Z" style="fill:rgb(241,168,9);fill-opacity:0.05;"/>
                <path d="M660.478,557.105C663.501,556.899 663.437,557.011 666.401,557.169C665.152,558.239 665.069,558.097 663.494,557.823C662.489,557.584 661.484,557.345 660.478,557.105Z" style="fill:rgb(226,160,9);fill-opacity:0.2;"/>
                <path d="M647.493,557.628C650.521,557.245 650.459,557.241 653.507,557.644C650.525,558.822 650.434,558.807 647.493,557.628Z" style="fill:rgb(207,146,6);fill-opacity:0.07;"/>
                <path d="M564.368,415.411C564.345,417.529 564.295,417.497 563.065,419.295C562.171,417.044 562.409,416.796 564.368,415.411Z" style="fill:rgb(200,139,8);fill-opacity:0.04;"/>
                <path d="M569.86,515.373C571.442,516.766 571.073,516.996 572.535,518.478L571.901,518.228C571.044,517.957 571.11,518.036 570.336,517.733C568.406,516.978 569.735,516.122 569.86,515.373Z" style="fill:rgb(190,130,8);fill-opacity:0.1;"/>
                <path d="M705.521,380.457C706.614,380.726 707.707,380.996 708.8,381.265C709.076,381.617 709.352,381.968 709.628,382.32C707.242,382.222 707.346,381.924 705.521,380.457Z" style="fill:rgb(230,158,8);fill-opacity:0.16;"/>
                <path d="M555.47,482.507C555.727,484.102 555.66,484.07 556.326,485.558L556.326,486.569C555.32,485.745 555.33,485.744 555.239,485.679C553.36,484.32 555.272,483.139 555.47,482.507Z" style="fill:rgb(196,133,9);fill-opacity:0.07;"/>
                <path d="M719.055,390.887C719.152,390.73 720.269,388.935 720.269,388.935C722.294,389.14 720.969,390.022 720.083,391.785C719.74,391.486 719.398,391.186 719.055,390.887Z" style="fill:rgb(160,114,6);fill-opacity:0.04;"/>
                <path d="M732.738,518.574C732.452,520.528 732.154,520.35 730.695,521.654C730.957,519.675 731.216,519.809 732.738,518.574Z" style="fill:rgb(229,159,3);fill-opacity:0.11;"/>
                <path d="M579.34,527.568C580.999,527.942 581.063,528.06 581.353,529.722C579.779,529.17 579.797,529.102 579.34,527.568Z" style="fill:rgb(229,163,13);fill-opacity:0.04;"/>
                <path d="M746.65,431.39C747.727,432.345 747.952,432.162 748.188,433.593L747.682,434.462C746.816,432.994 746.757,433.062 746.65,431.39Z" style="fill:rgb(231,163,8);fill-opacity:0.11;"/>
                <path d="M748.723,486.516C748.728,486.68 748.786,488.565 748.786,488.565C748.566,489.773 747.775,489.51 747.666,489.611C747.764,487.914 747.851,488.004 748.723,486.516Z" style="fill:rgb(230,163,9);fill-opacity:0.09;"/>
                <path d="M580.637,394.694C580.541,394.753 579.443,395.426 579.443,395.426C579.079,395.838 579.725,396.004 579.333,396.352C578.914,396.725 578.784,396.011 578.356,396.392C578.829,394.834 579.008,394.862 580.637,394.694Z" style="fill:rgb(213,143,7);fill-opacity:0.11;"/>
                <path d="M702.455,545.45C702.152,545.868 701.849,546.286 701.546,546.704L699.642,546.817C701.001,545.951 700.925,545.904 702.455,545.45Z" style="fill:rgb(217,148,7);fill-opacity:0.18;"/>
                <path d="M667.487,556.866C668.512,556.814 669.536,556.763 670.561,556.711C669.209,557.771 669.093,557.398 667.487,556.866Z" style="fill:rgb(210,151,8);fill-opacity:0.09;"/>
                <path d="M748.188,433.593C748.212,433.966 748.218,433.939 748.667,437.474C748.007,436.013 747.896,436.087 747.682,434.462L748.188,433.593Z" style="fill:rgb(178,121,5);fill-opacity:0.13;"/>
                <path d="M593.386,539.659C594.87,539.929 595.074,539.754 595.597,541.199C594.545,540.437 593.565,539.779 593.386,539.659Z" style="fill:rgb(217,149,8);fill-opacity:0.18;"/>
                <path d="M745.711,494.531C746.056,495.912 746.138,496.21 744.746,496.698C745.434,495.673 745.017,495.545 745.711,494.531Z" style="fill:rgb(221,159,14);fill-opacity:0.09;"/>
                <path d="M572.535,518.478C573.289,519.373 573.212,519.383 573.467,520.549L572.483,520.522C572.5,519.841 572.518,519.16 572.535,518.478Z" style="fill:rgb(236,160,7);fill-opacity:0.18;"/>
                <path d="M571.901,518.228L572.535,518.478C572.518,519.16 572.5,519.841 572.483,520.522C571.754,519.477 571.881,519.481 571.901,518.228Z" style="fill:rgb(200,139,9);fill-opacity:0.04;"/>
                <path d="M553.335,469.497L553.281,473.518C552.824,471.474 552.826,471.51 553.335,469.497Z" style="fill:rgb(176,118,4);fill-opacity:0.16;"/>
                <path d="M646.451,365.209C648.026,364.717 647.99,364.703 649.546,365.139L646.451,365.209Z" style="fill:rgb(208,144,7);fill-opacity:0.19;"/>
                <path d="M654.49,365.139C656.036,364.701 656.004,364.711 657.537,365.202C656.521,365.181 655.505,365.16 654.49,365.139Z" style="fill:rgb(207,142,6);fill-opacity:0.2;"/>
                <path d="M555.47,482.507C556.102,484.04 556.12,483.976 556.326,485.558C555.66,484.07 555.727,484.102 555.47,482.507Z" style="fill:rgb(229,148,5);fill-opacity:0.31;"/>
                <path d="M602.553,545.431C603.711,545.68 603.637,545.655 604.581,546.321C603.905,546.024 603.229,545.728 602.553,545.431Z" style="fill:rgb(165,109,4);fill-opacity:0.22;"/>
                <path d="M689.528,551.545C688.836,551.784 688.145,552.023 687.454,552.262C688.145,552.023 688.836,551.784 689.528,551.545Z" style="fill:rgb(189,133,8);fill-opacity:0.21;"/>
                <path d="M658.498,365.263C660.016,364.99 659.985,365 661.511,365.358L658.498,365.263Z" style="fill:rgb(191,133,6);fill-opacity:0.19;"/>
                <path d="M563.449,504.513C564.294,505.319 564.297,505.254 564.828,506.342C564.368,505.732 563.909,505.122 563.449,504.513Z" style="fill:rgb(234,153,6);fill-opacity:0.46;"/>
            </g>
        </g>
    </g>
</svg>
